SplineFontDB: 3.0
FontName: DigitalNumbers-Regular
FullName: Digital Numbers
FamilyName: Digital Numbers
Weight: Regular
Copyright: Copyright (c) 2015, Stephan Ahlf (https://github.com/s-a/digital-numbers-font stephan.ahlf@googlemail.com)
UComments: "2015-6-5: Created with FontForge (http://fontforge.org)"
Version: 001.102
ItalicAngle: 0
UnderlinePosition: -100
UnderlineWidth: 50
Ascent: 800
Descent: 200
InvalidEm: 0
LayerCount: 2
Layer: 0 0 "Back" 1
Layer: 1 0 "Zeichen" 0
XUID: [1021 128 -81606342 30374]
FSType: 0
OS2Version: 0
OS2_WeightWidthSlopeOnly: 0
OS2_UseTypoMetrics: 0
CreationTime: 1433487616
ModificationTime: 1433583214
PfmFamily: 49
TTFWeight: 400
TTFWidth: 5
LineGap: 0
VLineGap: 0
OS2TypoAscent: 974
OS2TypoAOffset: 0
OS2TypoDescent: -317
OS2TypoDOffset: 0
OS2TypoLinegap: 0
OS2WinAscent: 974
OS2WinAOffset: 0
OS2WinDescent: 317
OS2WinDOffset: 0
HheadAscent: 974
HheadAOffset: 0
HheadDescent: -317
HheadDOffset: 0
OS2Vendor: 'PfEd'
MarkAttachClasses: 1
DEI: 91125
LangName: 1033 "" "" "" "" "" "" "" "" "" "" "" "" "" "This Font Software is licensed under the SIL Open Font License, Version 1.1." "http://scripts.sil.org/OFL"
Encoding: ISO8859-1
UnicodeInterp: none
NameList: AGL For New Fonts
DisplaySize: -24
AntiAlias: 1
FitToEm: 0
WidthSeparation: 150
WinInfo: 0 21 16
BeginPrivate: 0
EndPrivate
Grid
215.5 1300 m 0
 215.5 -700 l 1024
  Named: "a"
-1000 105.944335938 m 0
 2000 105.944335938 l 1024
-1000 -106.055664062 m 0
 2000 -106.055664062 l 1024
  Named: "ba"
-506.938476562 1300 m 0
 -506.938476562 -700 l 1024
-1000 695.944335938 m 0
 2000 695.944335938 l 1024
  Named: "h"
-379.928710938 1300 m 0
 -379.928710938 -700 l 1024
556.0703125 1300 m 0
 556.0703125 -700 l 1024
  Named: "r"
112.072265625 1300 m 0
 112.072265625 -700 l 1024
  Named: "l"
-1000 1065.94433594 m 0
 2000 1065.94433594 l 1024
EndSplineSet
BeginChars: 256 256

StartChar: E
Encoding: 69 69 0
Width: 800
VWidth: 0
Flags: HW
HStem: -213 108<295 542> -169 21G<163 184> -169 21G<163 184> 242 108<278 551> 695 108<293 317 319 540> 740 20G<160 183> 740 20G<160 183>
VStem: 163 108<-71 174 415 663>
LayerCount: 2
Back
Fore
SplineSet
160 313 m 5x15
 160 531 l 6
 160 537 160 542 160 548 c 4
 160 550 160 550 160 552 c 6
 160 760 l 5
 267 663 l 5
 267 440 l 5
 267 415 l 5
 160 313 l 5x15
191 803 m 5x19
 410 803 l 6
 416 803 420 803 426 803 c 4
 428 803 428 803 430 803 c 6
 637 803 l 5
 540 695 l 5
 319 695 l 5
 317 695 l 5
 293 695 l 5
 191 803 l 5x19
242 270 m 5
 208 297 l 5
 278 350 l 5
 551 350 l 5
 621 297 l 5
 551 242 l 5
 278 242 l 5
 242 270 l 5
163 278 m 5
 270 174 l 5
 270 150 l 5
 270 -71 l 5
 163 -169 l 5x51
 163 37 l 6
 163 39 163 41 163 43 c 4
 163 49 163 53 163 59 c 6
 163 278 l 5
192 -213 m 5x91
 295 -105 l 5
 542 -105 l 5
 640 -213 l 5
 433 -213 l 6
 431 -213 430 -213 428 -213 c 4
 422 -213 418 -213 412 -213 c 6
 192 -213 l 5x91
EndSplineSet
EndChar

StartChar: F
Encoding: 70 70 1
Width: 800
VWidth: 0
Flags: HW
HStem: -169 21G<163 185> -169 21G<163 185> 242 108<279 552> 695 108<294 319 319 541> 740 20G<162 184> 740 20G<162 184>
VStem: 163 108<-71 174 415 663>
LayerCount: 2
Back
Fore
SplineSet
162 313 m 1x2a
 162 531 l 2
 162 537 162 542 162 548 c 0
 162 550 162 550 162 552 c 2
 162 760 l 1
 269 663 l 1
 269 440 l 1
 269 415 l 1
 162 313 l 1x2a
191 803 m 1x32
 410 803 l 2
 416 803 421 803 427 803 c 0
 429 803 429 803 431 803 c 2
 638 803 l 1
 541 695 l 1
 319 695 l 1
 294 695 l 1
 191 803 l 1x32
243 270 m 1
 209 297 l 1
 279 350 l 1
 552 350 l 1
 622 297 l 1
 552 242 l 1
 279 242 l 1
 243 270 l 1
163 278 m 1
 270 174 l 1
 270 150 l 1
 270 -71 l 1
 163 -169 l 1xa2
 163 37 l 2
 163 39 163 41 163 43 c 0
 163 49 163 53 163 59 c 2
 163 278 l 1
EndSplineSet
EndChar

StartChar: e
Encoding: 101 101 2
Width: 800
VWidth: 0
Flags: HW
HStem: -213 108<295 542> -169 21G<163 184> -169 21G<163 184> 242 108<278 551> 695 108<293 317 319 540> 740 20G<160 183> 740 20G<160 183>
VStem: 163 108<-71 174 415 663>
LayerCount: 2
Back
Fore
SplineSet
160 313 m 1x15
 160 531 l 2
 160 537 160 542 160 548 c 0
 160 550 160 550 160 552 c 2
 160 760 l 1
 267 663 l 1
 267 440 l 1
 267 415 l 1
 160 313 l 1x15
191 803 m 1x19
 410 803 l 2
 416 803 420 803 426 803 c 0
 428 803 428 803 430 803 c 2
 637 803 l 1
 540 695 l 1
 319 695 l 1
 317 695 l 1
 293 695 l 1
 191 803 l 1x19
242 270 m 1
 208 297 l 1
 278 350 l 1
 551 350 l 1
 621 297 l 1
 551 242 l 1
 278 242 l 1
 242 270 l 1
163 278 m 1
 270 174 l 1
 270 150 l 1
 270 -71 l 1
 163 -169 l 1x51
 163 37 l 2
 163 39 163 41 163 43 c 0
 163 49 163 53 163 59 c 2
 163 278 l 1
192 -213 m 1x91
 295 -105 l 1
 542 -105 l 1
 640 -213 l 1
 433 -213 l 2
 431 -213 430 -213 428 -213 c 0
 422 -213 418 -213 412 -213 c 2
 192 -213 l 1x91
EndSplineSet
EndChar

StartChar: f
Encoding: 102 102 3
Width: 800
VWidth: 0
Flags: HW
HStem: -169 21G<163 185> -169 21G<163 185> 242 108<279 552> 695 108<294 319 319 541> 740 20G<162 184> 740 20G<162 184>
VStem: 163 108<-71 174 415 663>
LayerCount: 2
Back
Fore
SplineSet
162 313 m 1x2a
 162 531 l 2
 162 537 162 542 162 548 c 0
 162 550 162 550 162 552 c 2
 162 760 l 1
 269 663 l 1
 269 440 l 1
 269 415 l 1
 162 313 l 1x2a
191 803 m 1x32
 410 803 l 2
 416 803 421 803 427 803 c 0
 429 803 429 803 431 803 c 2
 638 803 l 1
 541 695 l 1
 319 695 l 1
 294 695 l 1
 191 803 l 1x32
243 270 m 1
 209 297 l 1
 279 350 l 1
 552 350 l 1
 622 297 l 1
 552 242 l 1
 279 242 l 1
 243 270 l 1
163 278 m 1
 270 174 l 1
 270 150 l 1
 270 -71 l 1
 163 -169 l 1xa2
 163 37 l 2
 163 39 163 41 163 43 c 0
 163 49 163 53 163 59 c 2
 163 278 l 1
EndSplineSet
EndChar

StartChar: G
Encoding: 71 71 4
Width: 800
VWidth: 0
Flags: HW
HStem: -213 108<280 527> -169 21G<147 169 635 656> -169 21G<147 169 635 656> 242 108<263 536> 695 108<279 303 303 524> 740 20G<144 166> 740 20G<144 166>
VStem: 147 108<-71 174 415 663> 548 108<-66 180>
LayerCount: 2
Back
Fore
SplineSet
144 313 m 1x1580
 144 531 l 2
 144 537 144 542 144 548 c 0
 144 550 144 550 144 552 c 2
 144 760 l 1
 252 663 l 1
 252 440 l 1
 252 415 l 1
 144 313 l 1x1580
176 803 m 1x1980
 394 803 l 2
 400 803 404 803 410 803 c 0
 412 803 413 803 415 803 c 2
 623 803 l 1
 524 695 l 1
 303 695 l 1
 279 695 l 1
 176 803 l 1x1980
228 270 m 1
 192 297 l 1
 263 350 l 1
 536 350 l 1
 606 297 l 1
 536 242 l 1
 263 242 l 1
 228 270 l 1
656 -169 m 1x5180
 548 -66 l 1
 548 -42 l 1
 548 180 l 1
 656 278 l 1
 656 70 l 2
 656 68 656 67 656 65 c 0
 656 59 656 55 656 49 c 2
 656 -169 l 1x5180
147 278 m 1
 255 174 l 1
 255 150 l 1
 255 -71 l 1
 147 -169 l 1
 147 37 l 2
 147 39 147 41 147 43 c 0
 147 49 147 53 147 59 c 2
 147 278 l 1
177 -213 m 1x9180
 280 -105 l 1
 527 -105 l 1
 624 -213 l 1
 416 -213 l 2
 414 -213 415 -213 413 -213 c 0
 407 -213 401 -213 395 -213 c 2
 177 -213 l 1x9180
EndSplineSet
EndChar

StartChar: H
Encoding: 72 72 5
Width: 800
VWidth: 0
Flags: HW
HStem: -169 21G<147 169 635 656> -169 21G<147 169 635 656> 242 108<263 536> 740 20G<144 166 633 653> 740 20G<144 166 633 653>
VStem: 147 108<-71 174 415 663> 548 108<-66 180 410 633 633 657>
LayerCount: 2
Back
Fore
SplineSet
653 760 m 1x36
 653 541 l 2
 653 535 653 532 653 526 c 0
 653 524 653 522 653 520 c 2
 653 313 l 1
 545 410 l 1
 545 633 l 1
 545 657 l 1
 653 760 l 1x36
144 313 m 1
 144 531 l 2
 144 537 144 542 144 548 c 0
 144 550 144 550 144 552 c 2
 144 760 l 1
 252 663 l 1
 252 440 l 1
 252 415 l 1
 144 313 l 1
228 270 m 1
 192 297 l 1
 263 350 l 1
 536 350 l 1
 606 297 l 1
 536 242 l 1
 263 242 l 1
 228 270 l 1
656 -169 m 1xa6
 548 -66 l 1
 548 -42 l 1
 548 180 l 1
 656 278 l 1
 656 70 l 2
 656 68 656 67 656 65 c 0
 656 59 656 55 656 49 c 2
 656 -169 l 1xa6
147 278 m 1
 255 174 l 1
 255 150 l 1
 255 -71 l 1
 147 -169 l 1
 147 37 l 2
 147 39 147 41 147 43 c 0
 147 49 147 53 147 59 c 2
 147 278 l 1
EndSplineSet
EndChar

StartChar: h
Encoding: 104 104 6
Width: 800
VWidth: 0
Flags: HW
HStem: -169 21G<147 169 635 656> -169 21G<147 169 635 656> 242 108<263 536> 740 20G<144 166 633 653> 740 20G<144 166 633 653>
VStem: 147 108<-71 174 415 663> 548 108<-66 180 410 633 633 657>
LayerCount: 2
Back
Fore
SplineSet
653 760 m 1x36
 653 541 l 2
 653 535 653 532 653 526 c 0
 653 524 653 522 653 520 c 2
 653 313 l 1
 545 410 l 1
 545 633 l 1
 545 657 l 1
 653 760 l 1x36
144 313 m 1
 144 531 l 2
 144 537 144 542 144 548 c 0
 144 550 144 550 144 552 c 2
 144 760 l 1
 252 663 l 1
 252 440 l 1
 252 415 l 1
 144 313 l 1
228 270 m 1
 192 297 l 1
 263 350 l 1
 536 350 l 1
 606 297 l 1
 536 242 l 1
 263 242 l 1
 228 270 l 1
656 -169 m 1xa6
 548 -66 l 1
 548 -42 l 1
 548 180 l 1
 656 278 l 1
 656 70 l 2
 656 68 656 67 656 65 c 0
 656 59 656 55 656 49 c 2
 656 -169 l 1xa6
147 278 m 1
 255 174 l 1
 255 150 l 1
 255 -71 l 1
 147 -169 l 1
 147 37 l 2
 147 39 147 41 147 43 c 0
 147 49 147 53 147 59 c 2
 147 278 l 1
EndSplineSet
EndChar

StartChar: g
Encoding: 103 103 7
Width: 800
VWidth: 0
Flags: HW
HStem: -213 108<280 527> -169 21G<147 169 635 656> -169 21G<147 169 635 656> 242 108<263 536> 695 108<279 303 303 524> 740 20G<144 166> 740 20G<144 166>
VStem: 147 108<-71 174 415 663> 548 108<-66 180>
LayerCount: 2
Back
Fore
SplineSet
144 313 m 1x1580
 144 531 l 2
 144 537 144 542 144 548 c 0
 144 550 144 550 144 552 c 2
 144 760 l 1
 252 663 l 1
 252 440 l 1
 252 415 l 1
 144 313 l 1x1580
176 803 m 1x1980
 394 803 l 2
 400 803 404 803 410 803 c 0
 412 803 413 803 415 803 c 2
 623 803 l 1
 524 695 l 1
 303 695 l 1
 279 695 l 1
 176 803 l 1x1980
228 270 m 1
 192 297 l 1
 263 350 l 1
 536 350 l 1
 606 297 l 1
 536 242 l 1
 263 242 l 1
 228 270 l 1
656 -169 m 1x5180
 548 -66 l 1
 548 -42 l 1
 548 180 l 1
 656 278 l 1
 656 70 l 2
 656 68 656 67 656 65 c 0
 656 59 656 55 656 49 c 2
 656 -169 l 1x5180
147 278 m 1
 255 174 l 1
 255 150 l 1
 255 -71 l 1
 147 -169 l 1
 147 37 l 2
 147 39 147 41 147 43 c 0
 147 49 147 53 147 59 c 2
 147 278 l 1
177 -213 m 1x9180
 280 -105 l 1
 527 -105 l 1
 624 -213 l 1
 416 -213 l 2
 414 -213 415 -213 413 -213 c 0
 407 -213 401 -213 395 -213 c 2
 177 -213 l 1x9180
EndSplineSet
EndChar

StartChar: I
Encoding: 73 73 8
Width: 800
VWidth: 0
Flags: HW
HStem: -169 21G<434.029 455> -169 21G<434.029 455> 740 20G<432.029 453> 740 20G<432.029 453>
VStem: 345 108<-66 180 410 657>
LayerCount: 2
Back
Fore
SplineSet
453 760 m 1x28
 453 541 l 2
 453 535 453 532 453 526 c 0
 453 524 453 522 453 520 c 2
 453 313 l 1
 345 410 l 1
 345 633 l 1
 345 657 l 1
 453 760 l 1x28
455 -169 m 1x88
 347 -66 l 1
 347 -42 l 1
 347 180 l 1
 455 278 l 1
 455 70 l 2
 455 68 455 67 455 65 c 0
 455 59 455 55 455 49 c 2
 455 -169 l 1x88
EndSplineSet
EndChar

StartChar: i
Encoding: 105 105 9
Width: 800
VWidth: 0
Flags: HW
HStem: -169 21G<435 455> -169 21G<435 455> 740 20G<433 453> 740 20G<433 453>
VStem: 347 108<-66 180 410 633 633 657>
LayerCount: 2
Back
Fore
SplineSet
453 760 m 1x28
 453 541 l 2
 453 535 453 532 453 526 c 0
 453 524 453 522 453 520 c 2
 453 313 l 1
 345 410 l 1
 345 633 l 1
 345 657 l 1
 453 760 l 1x28
455 -169 m 1x88
 347 -66 l 1
 347 -42 l 1
 347 180 l 1
 455 278 l 1
 455 70 l 2
 455 68 455 67 455 65 c 0
 455 59 455 55 455 49 c 2
 455 -169 l 1x88
EndSplineSet
EndChar

StartChar: one
Encoding: 49 49 10
Width: 800
VWidth: 0
Flags: HW
HStem: -213 108<280 527> -169 21G<147 169 635 656> -169 21G<147 169 635 656> 695 108<279 303 303 524> 740 20G<144 166 633 653> 740 20G<144 166 633 653>
VStem: 147 108<-71 174 415 663> 548 108<-66 180 410 633 633 657>
LayerCount: 2
Back
Fore
SplineSet
653 760 m 1x0b
 653 541 l 2
 653 535 653 532 653 526 c 0
 653 524 653 522 653 520 c 2
 653 313 l 1
 545 410 l 1
 545 633 l 1
 545 657 l 1
 653 760 l 1x0b
144 548 m 1024
656 -169 m 1x43
 548 -66 l 1
 548 -42 l 1
 548 180 l 1
 656 278 l 1
 656 70 l 2
 656 68 656 67 656 65 c 0
 656 59 656 55 656 49 c 2
 656 -169 l 1x43
EndSplineSet
EndChar

StartChar: eight
Encoding: 56 56 11
Width: 800
VWidth: 0
Flags: HW
HStem: -213 108<280 527> -169 21G<147 169 635 656> -169 21G<147 169 635 656> 242 108<263 536> 695 108<279 303 303 524> 740 20G<144 166 633 653> 740 20G<144 166 633 653>
VStem: 147 108<-71 174 415 663> 548 108<-66 180 410 633 633 657>
LayerCount: 2
Back
Fore
SplineSet
653 760 m 1x1580
 653 541 l 2
 653 535 653 532 653 526 c 0
 653 524 653 522 653 520 c 2
 653 313 l 1
 545 410 l 1
 545 633 l 1
 545 657 l 1
 653 760 l 1x1580
144 313 m 1
 144 531 l 2
 144 537 144 542 144 548 c 0
 144 550 144 550 144 552 c 2
 144 760 l 1
 252 663 l 1
 252 440 l 1
 252 415 l 1
 144 313 l 1
176 803 m 1x1980
 394 803 l 2
 400 803 404 803 410 803 c 0
 412 803 413 803 415 803 c 2
 623 803 l 1
 524 695 l 1
 303 695 l 1
 279 695 l 1
 176 803 l 1x1980
228 270 m 1
 192 297 l 1
 263 350 l 1
 536 350 l 1
 606 297 l 1
 536 242 l 1
 263 242 l 1
 228 270 l 1
656 -169 m 1x5180
 548 -66 l 1
 548 -42 l 1
 548 180 l 1
 656 278 l 1
 656 70 l 2
 656 68 656 67 656 65 c 0
 656 59 656 55 656 49 c 2
 656 -169 l 1x5180
147 278 m 1
 255 174 l 1
 255 150 l 1
 255 -71 l 1
 147 -169 l 1
 147 37 l 2
 147 39 147 41 147 43 c 0
 147 49 147 53 147 59 c 2
 147 278 l 1
177 -213 m 1x9180
 280 -105 l 1
 527 -105 l 1
 624 -213 l 1
 416 -213 l 2
 414 -213 415 -213 413 -213 c 0
 407 -213 401 -213 395 -213 c 2
 177 -213 l 1x9180
EndSplineSet
EndChar

StartChar: o
Encoding: 111 111 12
Width: 800
VWidth: 0
Flags: HW
HStem: -213 108<280 527> -169 21G<147 169.041 635.029 656> -169 21G<147 169.041 635.029 656> 695 108<279 524> 740 20G<144 166.268 632.029 653> 740 20G<144 166.268 632.029 653>
VStem: 147 108<-71 174 415 663> 545 108<-66 180 410 657>
LayerCount: 2
Back
Fore
SplineSet
653 760 m 1x0b
 653 541 l 2
 653 535 653 532 653 526 c 0
 653 524 653 522 653 520 c 2
 653 313 l 1
 545 410 l 1
 545 633 l 1
 545 657 l 1
 653 760 l 1x0b
144 313 m 1
 144 531 l 2
 144 537 144 542 144 548 c 0
 144 550 144 550 144 552 c 2
 144 760 l 1
 252 663 l 1
 252 440 l 1
 252 415 l 1
 144 313 l 1
176 803 m 1x13
 394 803 l 2
 400 803 404 803 410 803 c 0
 412 803 413 803 415 803 c 2
 623 803 l 1
 524 695 l 1
 303 695 l 1
 279 695 l 1
 176 803 l 1x13
656 -169 m 1x43
 548 -66 l 1
 548 -42 l 1
 548 180 l 1
 656 278 l 1
 656 70 l 2
 656 68 656 67 656 65 c 0
 656 59 656 55 656 49 c 2
 656 -169 l 1x43
147 278 m 1
 255 174 l 1
 255 150 l 1
 255 -71 l 1
 147 -169 l 1
 147 37 l 2
 147 39 147 41 147 43 c 0
 147 49 147 53 147 59 c 2
 147 278 l 1
177 -213 m 1x83
 280 -105 l 1
 527 -105 l 1
 624 -213 l 1
 416 -213 l 2
 414 -213 415 -213 413 -213 c 0
 407 -213 401 -213 395 -213 c 2
 177 -213 l 1x83
EndSplineSet
EndChar

StartChar: O
Encoding: 79 79 13
Width: 800
VWidth: 0
Flags: HW
HStem: -213 108<280 527> -169 21G<147 169.041 635.029 656> -169 21G<147 169.041 635.029 656> 695 108<279 524> 740 20G<144 166.268 632.029 653> 740 20G<144 166.268 632.029 653>
VStem: 147 108<-71 174 415 663> 545 108<-66 180 410 657>
LayerCount: 2
Back
SplineSet
830.625976562 760.124023438 m 1x0b
 830.625976562 760.063476562 l 1
 830.625976562 541.1875 l 2
 830.625976562 535.561523438 830.5625 530.8125 830.5625 525.25 c 0
 830.5625 523.5 830.5625 522 830.5625 520.25 c 2
 830.5625 312.4375 l 1
 722.813476562 410.436523438 l 1
 722.813476562 632.375 l 1
 722.875 632.436523438 l 1
 722.875 656.875 l 1
 830.625976562 760.124023438 l 1x0b
321.499023438 312.5 m 1
 321.499023438 312.5625 l 1
 321.499023438 531.4375 l 2
 321.499023438 537.0625 321.563476562 541.811523438 321.563476562 547.375976562 c 0
 321.563476562 549.125976562 321.563476562 550.625 321.563476562 552.375976562 c 2
 321.563476562 760.124023438 l 1
 429.311523438 662.124023438 l 1
 429.311523438 440.1875 l 1
 429.250976562 440.1875 l 1
 429.250976562 415.75 l 1
 321.499023438 312.5 l 1
352.25 803.0625 m 1x13
 352.3125 803.0625 l 1
 571.1875 803.0625 l 2
 576.8125 803.0625 581.5625 803 587.124023438 803 c 0
 588.875 803 590.374023438 803 592.124023438 803 c 2
 799.936523438 803 l 1
 701.9375 695.25 l 1
 480 695.25 l 1
 479.9375 695.3125 l 1
 455.500976562 695.3125 l 1
 352.25 803.0625 l 1x13
832.500976562 -169.438476562 m 1x43
 724.749023438 -66.1875 l 1
 724.749023438 -41.75 l 1
 724.688476562 -41.75 l 1
 724.688476562 180.188476562 l 1
 832.436523438 278.1875 l 1
 832.436523438 70.375 l 2
 832.436523438 68.625 832.436523438 67.125 832.436523438 65.375 c 0
 832.436523438 59.8125 832.500976562 55.0634765625 832.500976562 49.4375 c 2
 832.500976562 -169.438476562 l 1x43
323.374023438 278.1875 m 1
 431.125 174.9375 l 1
 431.125 150.500976562 l 1
 431.186523438 150.500976562 l 1
 431.186523438 -71.4375 l 1
 323.4375 -169.438476562 l 1
 323.4375 38.3134765625 l 2
 323.4375 40.0625 323.4375 41.5625 323.4375 43.3125 c 0
 323.4375 48.875 323.374023438 53.6259765625 323.374023438 59.25 c 2
 323.374023438 278.125 l 1
 323.374023438 278.1875 l 1
354.125 -212.375 m 1
 457.375976562 -104.625 l 1
 703.75 -104.625 l 1
 801.75 -212.375 l 1
 593.9375 -212.375 l 2
 592.1875 -212.375 590.686523438 -212.375 588.9375 -212.375 c 0
 583.375 -212.375 578.625 -212.5 573.000976562 -212.5 c 2
 354.125 -212.5 l 1x83
 354.125 -212.375 l 1
EndSplineSet
Fore
SplineSet
653 760 m 1x0b
 653 541 l 2
 653 535 653 532 653 526 c 0
 653 524 653 522 653 520 c 2
 653 313 l 1
 545 410 l 1
 545 633 l 1
 545 657 l 1
 653 760 l 1x0b
144 313 m 1
 144 531 l 2
 144 537 144 542 144 548 c 0
 144 550 144 550 144 552 c 2
 144 760 l 1
 252 663 l 1
 252 440 l 1
 252 415 l 1
 144 313 l 1
176 803 m 1x13
 394 803 l 2
 400 803 404 803 410 803 c 0
 412 803 413 803 415 803 c 2
 623 803 l 1
 524 695 l 1
 303 695 l 1
 279 695 l 1
 176 803 l 1x13
656 -169 m 1x43
 548 -66 l 1
 548 -42 l 1
 548 180 l 1
 656 278 l 1
 656 70 l 2
 656 68 656 67 656 65 c 0
 656 59 656 55 656 49 c 2
 656 -169 l 1x43
147 278 m 1
 255 174 l 1
 255 150 l 1
 255 -71 l 1
 147 -169 l 1
 147 37 l 2
 147 39 147 41 147 43 c 0
 147 49 147 53 147 59 c 2
 147 278 l 1
177 -213 m 1x83
 280 -105 l 1
 527 -105 l 1
 624 -213 l 1
 416 -213 l 2
 414 -213 415 -213 413 -213 c 0
 407 -213 401 -213 395 -213 c 2
 177 -213 l 1x83
EndSplineSet
EndChar

StartChar: zero
Encoding: 48 48 14
Width: 800
VWidth: 0
Flags: HW
HStem: -213 108<280 527> -169 21G<147 169 635 656> -169 21G<147 169 635 656> 695 108<279 303 303 524> 740 20G<144 166 633 653> 740 20G<144 166 633 653>
VStem: 147 108<-71 174 415 663> 548 108<-66 180 410 633 633 657>
LayerCount: 2
Back
Fore
SplineSet
653 760 m 1x0b
 653 541 l 2
 653 535 653 532 653 526 c 0
 653 524 653 522 653 520 c 2
 653 313 l 1
 545 410 l 1
 545 633 l 1
 545 657 l 1
 653 760 l 1x0b
144 313 m 1
 144 531 l 2
 144 537 144 542 144 548 c 0
 144 550 144 550 144 552 c 2
 144 760 l 1
 252 663 l 1
 252 440 l 1
 252 415 l 1
 144 313 l 1
176 803 m 1x13
 394 803 l 2
 400 803 404 803 410 803 c 0
 412 803 413 803 415 803 c 2
 623 803 l 1
 524 695 l 1
 303 695 l 1
 279 695 l 1
 176 803 l 1x13
656 -169 m 1x43
 548 -66 l 1
 548 -42 l 1
 548 180 l 1
 656 278 l 1
 656 70 l 2
 656 68 656 67 656 65 c 0
 656 59 656 55 656 49 c 2
 656 -169 l 1x43
147 278 m 1
 255 174 l 1
 255 150 l 1
 255 -71 l 1
 147 -169 l 1
 147 37 l 2
 147 39 147 41 147 43 c 0
 147 49 147 53 147 59 c 2
 147 278 l 1
177 -213 m 1x83
 280 -105 l 1
 527 -105 l 1
 624 -213 l 1
 416 -213 l 2
 414 -213 415 -213 413 -213 c 0
 407 -213 401 -213 395 -213 c 2
 177 -213 l 1x83
EndSplineSet
EndChar

StartChar: B
Encoding: 66 66 15
Width: 800
VWidth: 0
Flags: HW
HStem: -213 108<280 527> -169 21G<147 169 635 656> -169 21G<147 169 635 656> 242 108<263 536> 695 108<279 303 303 524> 740 20G<144 166 633 653> 740 20G<144 166 633 653>
VStem: 147 108<-71 174 415 663> 548 108<-66 180 410 633 633 657>
LayerCount: 2
Back
Fore
SplineSet
653 760 m 5x1580
 653 541 l 6
 653 535 653 532 653 526 c 4
 653 524 653 522 653 520 c 6
 653 313 l 5
 545 410 l 5
 545 633 l 5
 545 657 l 5
 653 760 l 5x1580
144 313 m 5
 144 531 l 6
 144 537 144 542 144 548 c 4
 144 550 144 550 144 552 c 6
 144 760 l 5
 252 663 l 5
 252 440 l 5
 252 415 l 5
 144 313 l 5
176 803 m 5x1980
 394 803 l 6
 400 803 404 803 410 803 c 4
 412 803 413 803 415 803 c 6
 623 803 l 5
 524 695 l 5
 303 695 l 5
 279 695 l 5
 176 803 l 5x1980
228 270 m 5
 192 297 l 5
 263 350 l 5
 536 350 l 5
 606 297 l 5
 536 242 l 5
 263 242 l 5
 228 270 l 5
656 -169 m 5x5180
 548 -66 l 5
 548 -42 l 5
 548 180 l 5
 656 278 l 5
 656 70 l 6
 656 68 656 67 656 65 c 4
 656 59 656 55 656 49 c 6
 656 -169 l 5x5180
147 278 m 5
 255 174 l 5
 255 150 l 5
 255 -71 l 5
 147 -169 l 5
 147 37 l 6
 147 39 147 41 147 43 c 4
 147 49 147 53 147 59 c 6
 147 278 l 5
177 -213 m 5x9180
 280 -105 l 5
 527 -105 l 5
 624 -213 l 5
 416 -213 l 6
 414 -213 415 -213 413 -213 c 4
 407 -213 401 -213 395 -213 c 6
 177 -213 l 5x9180
EndSplineSet
EndChar

StartChar: D
Encoding: 68 68 16
Width: 800
VWidth: 0
Flags: HW
HStem: -213 108<280 527> -169 21G<147 169 635 656> -169 21G<147 169 635 656> 695 108<279 303 303 524> 740 20G<144 166 633 653> 740 20G<144 166 633 653>
VStem: 147 108<-71 174 415 663> 548 108<-66 180 410 633 633 657>
LayerCount: 2
Back
Fore
SplineSet
653 760 m 1x0b
 653 541 l 2
 653 535 653 532 653 526 c 0
 653 524 653 522 653 520 c 2
 653 313 l 1
 545 410 l 1
 545 633 l 1
 545 657 l 1
 653 760 l 1x0b
144 313 m 1
 144 531 l 2
 144 537 144 542 144 548 c 0
 144 550 144 550 144 552 c 2
 144 760 l 1
 252 663 l 1
 252 440 l 1
 252 415 l 1
 144 313 l 1
176 803 m 1x13
 394 803 l 2
 400 803 404 803 410 803 c 0
 412 803 413 803 415 803 c 2
 623 803 l 1
 524 695 l 1
 303 695 l 1
 279 695 l 1
 176 803 l 1x13
656 -169 m 1x43
 548 -66 l 1
 548 -42 l 1
 548 180 l 1
 656 278 l 1
 656 70 l 2
 656 68 656 67 656 65 c 0
 656 59 656 55 656 49 c 2
 656 -169 l 1x43
147 278 m 1
 255 174 l 1
 255 150 l 1
 255 -71 l 1
 147 -169 l 1
 147 37 l 2
 147 39 147 41 147 43 c 0
 147 49 147 53 147 59 c 2
 147 278 l 1
177 -213 m 1x83
 280 -105 l 1
 527 -105 l 1
 624 -213 l 1
 416 -213 l 2
 414 -213 415 -213 413 -213 c 0
 407 -213 401 -213 395 -213 c 2
 177 -213 l 1x83
EndSplineSet
EndChar

StartChar: d
Encoding: 100 100 17
Width: 800
VWidth: 0
Flags: HW
HStem: -213 108<280 527> -169 21G<147 169 635 656> -169 21G<147 169 635 656> 695 108<279 303 303 524> 740 20G<144 166 633 653> 740 20G<144 166 633 653>
VStem: 147 108<-71 174 415 663> 548 108<-66 180 410 633 633 657>
LayerCount: 2
Back
Fore
SplineSet
653 760 m 1x0b
 653 541 l 2
 653 535 653 532 653 526 c 0
 653 524 653 522 653 520 c 2
 653 313 l 1
 545 410 l 1
 545 633 l 1
 545 657 l 1
 653 760 l 1x0b
144 313 m 1
 144 531 l 2
 144 537 144 542 144 548 c 0
 144 550 144 550 144 552 c 2
 144 760 l 1
 252 663 l 1
 252 440 l 1
 252 415 l 1
 144 313 l 1
176 803 m 1x13
 394 803 l 2
 400 803 404 803 410 803 c 0
 412 803 413 803 415 803 c 2
 623 803 l 1
 524 695 l 1
 303 695 l 1
 279 695 l 1
 176 803 l 1x13
656 -169 m 1x43
 548 -66 l 1
 548 -42 l 1
 548 180 l 1
 656 278 l 1
 656 70 l 2
 656 68 656 67 656 65 c 0
 656 59 656 55 656 49 c 2
 656 -169 l 1x43
147 278 m 1
 255 174 l 1
 255 150 l 1
 255 -71 l 1
 147 -169 l 1
 147 37 l 2
 147 39 147 41 147 43 c 0
 147 49 147 53 147 59 c 2
 147 278 l 1
177 -213 m 1x83
 280 -105 l 1
 527 -105 l 1
 624 -213 l 1
 416 -213 l 2
 414 -213 415 -213 413 -213 c 0
 407 -213 401 -213 395 -213 c 2
 177 -213 l 1x83
EndSplineSet
EndChar

StartChar: b
Encoding: 98 98 18
Width: 800
VWidth: 0
Flags: HW
HStem: -213 108<280 527> -169 21G<147 169 635 656> -169 21G<147 169 635 656> 242 108<263 536> 695 108<279 303 303 524> 740 20G<144 166 633 653> 740 20G<144 166 633 653>
VStem: 147 108<-71 174 415 663> 548 108<-66 180 410 633 633 657>
LayerCount: 2
Back
Fore
SplineSet
653 760 m 1x1580
 653 541 l 2
 653 535 653 532 653 526 c 0
 653 524 653 522 653 520 c 2
 653 313 l 1
 545 410 l 1
 545 633 l 1
 545 657 l 1
 653 760 l 1x1580
144 313 m 1
 144 531 l 2
 144 537 144 542 144 548 c 0
 144 550 144 550 144 552 c 2
 144 760 l 1
 252 663 l 1
 252 440 l 1
 252 415 l 1
 144 313 l 1
176 803 m 1x1980
 394 803 l 2
 400 803 404 803 410 803 c 0
 412 803 413 803 415 803 c 2
 623 803 l 1
 524 695 l 1
 303 695 l 1
 279 695 l 1
 176 803 l 1x1980
228 270 m 1
 192 297 l 1
 263 350 l 1
 536 350 l 1
 606 297 l 1
 536 242 l 1
 263 242 l 1
 228 270 l 1
656 -169 m 1x5180
 548 -66 l 1
 548 -42 l 1
 548 180 l 1
 656 278 l 1
 656 70 l 2
 656 68 656 67 656 65 c 0
 656 59 656 55 656 49 c 2
 656 -169 l 1x5180
147 278 m 1
 255 174 l 1
 255 150 l 1
 255 -71 l 1
 147 -169 l 1
 147 37 l 2
 147 39 147 41 147 43 c 0
 147 49 147 53 147 59 c 2
 147 278 l 1
177 -213 m 1x9180
 280 -105 l 1
 527 -105 l 1
 624 -213 l 1
 416 -213 l 2
 414 -213 415 -213 413 -213 c 0
 407 -213 401 -213 395 -213 c 2
 177 -213 l 1x9180
EndSplineSet
EndChar

StartChar: c
Encoding: 99 99 19
Width: 800
VWidth: 0
Flags: HW
HStem: -213 108<295 542> -169 21G<163 184> -169 21G<163 184> 695 108<293 317 319 540> 740 20G<160 183> 740 20G<160 183>
VStem: 163 108<-71 174 415 663>
LayerCount: 2
Back
Fore
SplineSet
160 313 m 1x0a
 160 531 l 2
 160 537 160 542 160 548 c 0
 160 550 160 550 160 552 c 2
 160 760 l 1
 267 663 l 1
 267 440 l 1
 267 415 l 1
 160 313 l 1x0a
191 803 m 1x12
 410 803 l 2
 416 803 420 803 426 803 c 0
 428 803 428 803 430 803 c 2
 637 803 l 1
 540 695 l 1
 319 695 l 1
 317 695 l 1
 293 695 l 1
 191 803 l 1x12
163 278 m 1
 270 174 l 1
 270 150 l 1
 270 -71 l 1
 163 -169 l 1x42
 163 37 l 2
 163 39 163 41 163 43 c 0
 163 49 163 53 163 59 c 2
 163 278 l 1
192 -213 m 1x82
 295 -105 l 1
 542 -105 l 1
 640 -213 l 1
 433 -213 l 2
 431 -213 430 -213 428 -213 c 0
 422 -213 418 -213 412 -213 c 2
 192 -213 l 1x82
EndSplineSet
EndChar

StartChar: C
Encoding: 67 67 20
Width: 800
VWidth: 0
Flags: HW
HStem: -213 108<295 542> -169 21G<163 184> -169 21G<163 184> 695 108<293 317 319 540> 740 20G<160 183> 740 20G<160 183>
VStem: 163 108<-71 174 415 663>
LayerCount: 2
Back
Fore
SplineSet
160 313 m 1x0a
 160 531 l 2
 160 537 160 542 160 548 c 0
 160 550 160 550 160 552 c 2
 160 760 l 1
 267 663 l 1
 267 440 l 1
 267 415 l 1
 160 313 l 1x0a
191 803 m 1x12
 410 803 l 2
 416 803 420 803 426 803 c 0
 428 803 428 803 430 803 c 2
 637 803 l 1
 540 695 l 1
 319 695 l 1
 317 695 l 1
 293 695 l 1
 191 803 l 1x12
163 278 m 1
 270 174 l 1
 270 150 l 1
 270 -71 l 1
 163 -169 l 1x42
 163 37 l 2
 163 39 163 41 163 43 c 0
 163 49 163 53 163 59 c 2
 163 278 l 1
192 -213 m 1x82
 295 -105 l 1
 542 -105 l 1
 640 -213 l 1
 433 -213 l 2
 431 -213 430 -213 428 -213 c 0
 422 -213 418 -213 412 -213 c 2
 192 -213 l 1x82
EndSplineSet
EndChar

StartChar: A
Encoding: 65 65 21
Width: 800
VWidth: 0
Flags: HW
HStem: -169 21G<147 169 635 656> -169 21G<147 169 635 656> 242 108<263 536> 695 108<279 303 303 524> 740 20G<144 166 633 653> 740 20G<144 166 633 653>
VStem: 147 108<-71 174 415 663> 548 108<-66 180 410 633 633 657>
LayerCount: 2
Back
Fore
SplineSet
653 760 m 1x2b
 653 541 l 2
 653 535 653 532 653 526 c 0
 653 524 653 522 653 520 c 2
 653 313 l 1
 545 410 l 1
 545 633 l 1
 545 657 l 1
 653 760 l 1x2b
144 313 m 1
 144 531 l 2
 144 537 144 542 144 548 c 0
 144 550 144 550 144 552 c 2
 144 760 l 1
 252 663 l 1
 252 440 l 1
 252 415 l 1
 144 313 l 1
176 803 m 1x33
 394 803 l 2
 400 803 404 803 410 803 c 0
 412 803 413 803 415 803 c 2
 623 803 l 1
 524 695 l 1
 303 695 l 1
 279 695 l 1
 176 803 l 1x33
228 270 m 1
 192 297 l 1
 263 350 l 1
 536 350 l 1
 606 297 l 1
 536 242 l 1
 263 242 l 1
 228 270 l 1
656 -169 m 1xa3
 548 -66 l 1
 548 -42 l 1
 548 180 l 1
 656 278 l 1
 656 70 l 2
 656 68 656 67 656 65 c 0
 656 59 656 55 656 49 c 2
 656 -169 l 1xa3
147 278 m 1
 255 174 l 1
 255 150 l 1
 255 -71 l 1
 147 -169 l 1
 147 37 l 2
 147 39 147 41 147 43 c 0
 147 49 147 53 147 59 c 2
 147 278 l 1
EndSplineSet
EndChar

StartChar: a
Encoding: 97 97 22
Width: 800
VWidth: 0
Flags: HW
HStem: -169 21G<147 169 635 656> -169 21G<147 169 635 656> 242 108<263 536> 695 108<279 303 303 524> 740 20G<144 166 633 653> 740 20G<144 166 633 653>
VStem: 147 108<-71 174 415 663> 548 108<-66 180 410 633 633 657>
LayerCount: 2
Back
Fore
SplineSet
653 760 m 1x2b
 653 541 l 2
 653 535 653 532 653 526 c 0
 653 524 653 522 653 520 c 2
 653 313 l 1
 545 410 l 1
 545 633 l 1
 545 657 l 1
 653 760 l 1x2b
144 313 m 1
 144 531 l 2
 144 537 144 542 144 548 c 0
 144 550 144 550 144 552 c 2
 144 760 l 1
 252 663 l 1
 252 440 l 1
 252 415 l 1
 144 313 l 1
176 803 m 1x33
 394 803 l 2
 400 803 404 803 410 803 c 0
 412 803 413 803 415 803 c 2
 623 803 l 1
 524 695 l 1
 303 695 l 1
 279 695 l 1
 176 803 l 1x33
228 270 m 1
 192 297 l 1
 263 350 l 1
 536 350 l 1
 606 297 l 1
 536 242 l 1
 263 242 l 1
 228 270 l 1
656 -169 m 1xa3
 548 -66 l 1
 548 -42 l 1
 548 180 l 1
 656 278 l 1
 656 70 l 2
 656 68 656 67 656 65 c 0
 656 59 656 55 656 49 c 2
 656 -169 l 1xa3
147 278 m 1
 255 174 l 1
 255 150 l 1
 255 -71 l 1
 147 -169 l 1
 147 37 l 2
 147 39 147 41 147 43 c 0
 147 49 147 53 147 59 c 2
 147 278 l 1
EndSplineSet
EndChar

StartChar: l
Encoding: 108 108 23
Width: 800
VWidth: 0
Flags: HW
HStem: -213 108<295 542> -169 21G<163 184> -169 21G<163 184> 740 20G<160 183> 740 20G<160 183>
VStem: 163 108<-71 174 415 663>
LayerCount: 2
Back
Fore
SplineSet
160 313 m 1x14
 160 531 l 2
 160 537 160 542 160 548 c 0
 160 550 160 550 160 552 c 2
 160 760 l 1
 267 663 l 1
 267 440 l 1
 267 415 l 1
 160 313 l 1x14
163 278 m 1
 270 174 l 1
 270 150 l 1
 270 -71 l 1
 163 -169 l 1x44
 163 37 l 2
 163 39 163 41 163 43 c 0
 163 49 163 53 163 59 c 2
 163 278 l 1
192 -213 m 1x84
 295 -105 l 1
 542 -105 l 1
 640 -213 l 1
 433 -213 l 2
 431 -213 430 -213 428 -213 c 0
 422 -213 418 -213 412 -213 c 2
 192 -213 l 1x84
EndSplineSet
EndChar

StartChar: L
Encoding: 76 76 24
Width: 800
VWidth: 0
Flags: HW
HStem: -213 108<295 542> -169 21G<163 184> -169 21G<163 184> 740 20G<160 183> 740 20G<160 183>
VStem: 163 108<-71 174 415 663>
LayerCount: 2
Back
Fore
SplineSet
160 313 m 1x14
 160 531 l 2
 160 537 160 542 160 548 c 0
 160 550 160 550 160 552 c 2
 160 760 l 1
 267 663 l 1
 267 440 l 1
 267 415 l 1
 160 313 l 1x14
163 278 m 1
 270 174 l 1
 270 150 l 1
 270 -71 l 1
 163 -169 l 1x44
 163 37 l 2
 163 39 163 41 163 43 c 0
 163 49 163 53 163 59 c 2
 163 278 l 1
192 -213 m 1x84
 295 -105 l 1
 542 -105 l 1
 640 -213 l 1
 433 -213 l 2
 431 -213 430 -213 428 -213 c 0
 422 -213 418 -213 412 -213 c 2
 192 -213 l 1x84
EndSplineSet
EndChar

StartChar: two
Encoding: 50 50 25
Width: 800
VWidth: 0
Flags: HW
HStem: -213 108<280 527> -169 21G<147 169> -169 21G<147 169> 242 108<263 536> 695 108<279 303 303 524> 740 20G<633 653> 740 20G<633 653>
VStem: 147 108<-71 174> 545 108<410 633 633 657>
LayerCount: 2
Back
Fore
SplineSet
653 760 m 1x1580
 653 541 l 2
 653 535 653 532 653 526 c 0
 653 524 653 522 653 520 c 2
 653 313 l 1
 545 410 l 1
 545 633 l 1
 545 657 l 1
 653 760 l 1x1580
176 803 m 1x1980
 394 803 l 2
 400 803 404 803 410 803 c 0
 412 803 413 803 415 803 c 2
 623 803 l 1
 524 695 l 1
 303 695 l 1
 279 695 l 1
 176 803 l 1x1980
228 270 m 1
 192 297 l 1
 263 350 l 1
 536 350 l 1
 606 297 l 1
 536 242 l 1
 263 242 l 1
 228 270 l 1
147 278 m 1
 255 174 l 1
 255 150 l 1
 255 -71 l 1
 147 -169 l 1x5180
 147 37 l 2
 147 39 147 41 147 43 c 0
 147 49 147 53 147 59 c 2
 147 278 l 1
177 -213 m 1x9180
 280 -105 l 1
 527 -105 l 1
 624 -213 l 1
 416 -213 l 2
 414 -213 415 -213 413 -213 c 0
 407 -213 401 -213 395 -213 c 2
 177 -213 l 1x9180
EndSplineSet
EndChar

StartChar: five
Encoding: 53 53 26
Width: 800
VWidth: 0
Flags: HW
HStem: -213 108<280 527> -169 21G<635 656> -169 21G<635 656> 242 108<263 536> 695 108<279 303 303 524> 740 20G<144 166> 740 20G<144 166>
VStem: 144 108<415 663> 548 108<-66 180>
LayerCount: 2
Back
Fore
SplineSet
144 313 m 1x1580
 144 531 l 2
 144 537 144 542 144 548 c 0
 144 550 144 550 144 552 c 2
 144 760 l 1
 252 663 l 1
 252 440 l 1
 252 415 l 1
 144 313 l 1x1580
176 803 m 1x1980
 394 803 l 2
 400 803 404 803 410 803 c 0
 412 803 413 803 415 803 c 2
 623 803 l 1
 524 695 l 1
 303 695 l 1
 279 695 l 1
 176 803 l 1x1980
228 270 m 1
 192 297 l 1
 263 350 l 1
 536 350 l 1
 606 297 l 1
 536 242 l 1
 263 242 l 1
 228 270 l 1
656 -169 m 1x5180
 548 -66 l 1
 548 -42 l 1
 548 180 l 1
 656 278 l 1
 656 70 l 2
 656 68 656 67 656 65 c 0
 656 59 656 55 656 49 c 2
 656 -169 l 1x5180
177 -213 m 1x9180
 280 -105 l 1
 527 -105 l 1
 624 -213 l 1
 416 -213 l 2
 414 -213 415 -213 413 -213 c 0
 407 -213 401 -213 395 -213 c 2
 177 -213 l 1x9180
EndSplineSet
EndChar

StartChar: three
Encoding: 51 51 27
Width: 800
VWidth: 0
Flags: HW
HStem: -213 108<264 512> -169 21G<619 640> -169 21G<619 640> 242 108<247 520> 695 108<263 287 287 510> 740 20G<617 637> 740 20G<617 637>
VStem: 533 108<-66 180 410 633 633 657>
LayerCount: 2
Back
Fore
SplineSet
654 760 m 5x15
 654 541 l 6
 654 535 654 532 654 526 c 4
 654 524 654 522 654 520 c 6
 654 313 l 5
 547 410 l 5
 547 633 l 5
 547 657 l 5
 654 760 l 5x15
177 803 m 5x19
 396 803 l 6
 402 803 405 803 411 803 c 4
 413 803 415 803 417 803 c 6
 625 803 l 5
 527 695 l 5
 304 695 l 5
 280 695 l 5
 177 803 l 5x19
230 270 m 5
 194 297 l 5
 264 350 l 5
 537 350 l 5
 607 297 l 5
 537 242 l 5
 264 242 l 5
 230 270 l 5
657 -169 m 5x51
 550 -66 l 5
 550 -42 l 5
 550 180 l 5
 657 278 l 5
 657 70 l 6
 657 68 657 67 657 65 c 4
 657 59 657 55 657 49 c 6
 657 -169 l 5x51
180 -213 m 5x91
 281 -105 l 5
 529 -105 l 5
 626 -213 l 5
 418 -213 l 6
 416 -213 416 -213 414 -213 c 4
 408 -213 404 -213 398 -213 c 6
 180 -213 l 5x91
EndSplineSet
EndChar

StartChar: four
Encoding: 52 52 28
Width: 800
VWidth: 0
Flags: HW
HStem: -169 21G<635 656> -169 21G<635 656> 242 108<263 536> 740 20G<144 166 633 653> 740 20G<144 166 633 653>
VStem: 144 108<415 663> 548 108<-66 180 410 633 633 657>
LayerCount: 2
Back
Fore
SplineSet
653 760 m 5x36
 653 541 l 6
 653 535 653 532 653 526 c 4
 653 524 653 522 653 520 c 6
 653 313 l 5
 545 410 l 5
 545 633 l 5
 545 657 l 5
 653 760 l 5x36
144 313 m 5
 144 531 l 6
 144 537 144 542 144 548 c 4
 144 550 144 550 144 552 c 6
 144 760 l 5
 252 663 l 5
 252 440 l 5
 252 415 l 5
 144 313 l 5
228 270 m 5
 192 297 l 5
 263 350 l 5
 536 350 l 5
 606 297 l 5
 536 242 l 5
 263 242 l 5
 228 270 l 5
656 -169 m 5xa6
 548 -66 l 5
 548 -42 l 5
 548 180 l 5
 656 278 l 5
 656 70 l 6
 656 68 656 67 656 65 c 4
 656 59 656 55 656 49 c 6
 656 -169 l 5xa6
EndSplineSet
EndChar

StartChar: six
Encoding: 54 54 29
Width: 800
VWidth: 0
Flags: HW
HStem: -213 108<280 527> -169 21G<147 169 635 656> -169 21G<147 169 635 656> 242 108<263 536> 695 108<279 303 303 524> 740 20G<144 166> 740 20G<144 166>
VStem: 147 108<-71 174 415 663> 548 108<-66 180>
LayerCount: 2
Back
Fore
SplineSet
144 313 m 1x1580
 144 531 l 2
 144 537 144 542 144 548 c 0
 144 550 144 550 144 552 c 2
 144 760 l 1
 252 663 l 1
 252 440 l 1
 252 415 l 1
 144 313 l 1x1580
176 803 m 1x1980
 394 803 l 2
 400 803 404 803 410 803 c 0
 412 803 413 803 415 803 c 2
 623 803 l 1
 524 695 l 1
 303 695 l 1
 279 695 l 1
 176 803 l 1x1980
228 270 m 1
 192 297 l 1
 263 350 l 1
 536 350 l 1
 606 297 l 1
 536 242 l 1
 263 242 l 1
 228 270 l 1
656 -169 m 1x5180
 548 -66 l 1
 548 -42 l 1
 548 180 l 1
 656 278 l 1
 656 70 l 2
 656 68 656 67 656 65 c 0
 656 59 656 55 656 49 c 2
 656 -169 l 1x5180
147 278 m 1
 255 174 l 1
 255 150 l 1
 255 -71 l 1
 147 -169 l 1
 147 37 l 2
 147 39 147 41 147 43 c 0
 147 49 147 53 147 59 c 2
 147 278 l 1
177 -213 m 1x9180
 280 -105 l 1
 527 -105 l 1
 624 -213 l 1
 416 -213 l 2
 414 -213 415 -213 413 -213 c 0
 407 -213 401 -213 395 -213 c 2
 177 -213 l 1x9180
EndSplineSet
EndChar

StartChar: seven
Encoding: 55 55 30
Width: 800
VWidth: 0
Flags: HW
HStem: -169 21G<619 640> -169 21G<619 640> 695 108<263 287 287 510> 740 20G<617 637> 740 20G<617 637>
VStem: 533 108<-66 180 410 633 633 657>
LayerCount: 2
Back
Fore
SplineSet
657 760 m 5x14
 657 541 l 6
 657 535 657 532 657 526 c 4
 657 524 657 522 657 520 c 6
 657 313 l 5
 550 410 l 5
 550 633 l 5
 550 657 l 5
 657 760 l 5x14
180 803 m 5x24
 399 803 l 6
 405 803 408 803 414 803 c 4
 416 803 418 803 420 803 c 6
 628 803 l 5
 530 695 l 5
 307 695 l 5
 283 695 l 5
 180 803 l 5x24
660 -169 m 5x84
 553 -66 l 5
 553 -42 l 5
 553 180 l 5
 660 278 l 5
 660 70 l 6
 660 68 660 67 660 65 c 4
 660 59 660 55 660 49 c 6
 660 -169 l 5x84
EndSplineSet
EndChar

StartChar: nine
Encoding: 57 57 31
Width: 800
VWidth: 0
Flags: HW
HStem: -169 21G<635 656> -169 21G<635 656> 242 108<263 536> 695 108<279 303 303 524> 740 20G<144 166 633 653> 740 20G<144 166 633 653>
VStem: 144 108<415 663> 548 108<-66 180 410 633 633 657>
LayerCount: 2
Back
Fore
SplineSet
653 760 m 1x2b
 653 541 l 2
 653 535 653 532 653 526 c 0
 653 524 653 522 653 520 c 2
 653 313 l 1
 545 410 l 1
 545 633 l 1
 545 657 l 1
 653 760 l 1x2b
144 313 m 1
 144 531 l 2
 144 537 144 542 144 548 c 0
 144 550 144 550 144 552 c 2
 144 760 l 1
 252 663 l 1
 252 440 l 1
 252 415 l 1
 144 313 l 1
176 803 m 1x33
 394 803 l 2
 400 803 404 803 410 803 c 0
 412 803 413 803 415 803 c 2
 623 803 l 1
 524 695 l 1
 303 695 l 1
 279 695 l 1
 176 803 l 1x33
228 270 m 1
 192 297 l 1
 263 350 l 1
 536 350 l 1
 606 297 l 1
 536 242 l 1
 263 242 l 1
 228 270 l 1
656 -169 m 1xa3
 548 -66 l 1
 548 -42 l 1
 548 180 l 1
 656 278 l 1
 656 70 l 2
 656 68 656 67 656 65 c 0
 656 59 656 55 656 49 c 2
 656 -169 l 1xa3
EndSplineSet
EndChar

StartChar: P
Encoding: 80 80 32
Width: 800
VWidth: 0
Flags: HW
HStem: -169 21G<148 169> -169 21G<148 169> 242 108<263 537> 695 108<279 303 305 526> 740 20G<145 167 634 655> 740 20G<145 167 634 655>
VStem: 148 108<-71 174 415 663> 547 108<410 633 633 657>
LayerCount: 2
Back
Fore
SplineSet
655 760 m 1x2b
 655 541 l 2
 655 535 655 532 655 526 c 0
 655 524 655 522 655 520 c 2
 655 313 l 1
 547 410 l 1
 547 633 l 1
 547 657 l 1
 655 760 l 1x2b
145 313 m 1
 145 531 l 2
 145 537 145 542 145 548 c 0
 145 550 145 550 145 552 c 2
 145 760 l 1
 253 663 l 1
 253 440 l 1
 253 415 l 1
 145 313 l 1
177 803 m 1x33
 395 803 l 2
 401 803 406 803 412 803 c 0
 414 803 413 803 415 803 c 2
 623 803 l 1
 526 695 l 1
 305 695 l 1
 303 695 l 1
 279 695 l 1
 177 803 l 1x33
228 270 m 1
 193 297 l 1
 263 350 l 1
 537 350 l 1
 607 297 l 1
 537 242 l 1
 263 242 l 1
 228 270 l 1
148 278 m 1
 256 174 l 1
 256 150 l 1
 256 -71 l 1
 148 -169 l 1xa3
 148 37 l 2
 148 39 148 41 148 43 c 0
 148 49 148 53 148 59 c 2
 148 278 l 1
EndSplineSet
EndChar

StartChar: p
Encoding: 112 112 33
Width: 800
VWidth: 0
Flags: HW
HStem: -169 21G<148 169> -169 21G<148 169> 242 108<263 537> 695 108<279 303 305 526> 740 20G<145 167 634 655> 740 20G<145 167 634 655>
VStem: 148 108<-71 174 415 663> 547 108<410 633 633 657>
LayerCount: 2
Back
Fore
SplineSet
655 760 m 1x2b
 655 541 l 2
 655 535 655 532 655 526 c 0
 655 524 655 522 655 520 c 2
 655 313 l 1
 547 410 l 1
 547 633 l 1
 547 657 l 1
 655 760 l 1x2b
145 313 m 1
 145 531 l 2
 145 537 145 542 145 548 c 0
 145 550 145 550 145 552 c 2
 145 760 l 1
 253 663 l 1
 253 440 l 1
 253 415 l 1
 145 313 l 1
177 803 m 1x33
 395 803 l 2
 401 803 406 803 412 803 c 0
 414 803 413 803 415 803 c 2
 623 803 l 1
 526 695 l 1
 305 695 l 1
 303 695 l 1
 279 695 l 1
 177 803 l 1x33
228 270 m 1
 193 297 l 1
 263 350 l 1
 537 350 l 1
 607 297 l 1
 537 242 l 1
 263 242 l 1
 228 270 l 1
148 278 m 1
 256 174 l 1
 256 150 l 1
 256 -71 l 1
 148 -169 l 1xa3
 148 37 l 2
 148 39 148 41 148 43 c 0
 148 49 148 53 148 59 c 2
 148 278 l 1
EndSplineSet
EndChar

StartChar: S
Encoding: 83 83 34
Width: 800
VWidth: 0
Flags: HW
HStem: -213 108<280 527> -169 21G<635 656> -169 21G<635 656> 242 108<263 536> 695 108<279 303 303 524> 740 20G<144 166> 740 20G<144 166>
VStem: 144 108<415 663> 548 108<-66 180>
LayerCount: 2
Back
Fore
SplineSet
144 313 m 1x1580
 144 531 l 2
 144 537 144 542 144 548 c 0
 144 550 144 550 144 552 c 2
 144 760 l 1
 252 663 l 1
 252 440 l 1
 252 415 l 1
 144 313 l 1x1580
176 803 m 1x1980
 394 803 l 2
 400 803 404 803 410 803 c 0
 412 803 413 803 415 803 c 2
 623 803 l 1
 524 695 l 1
 303 695 l 1
 279 695 l 1
 176 803 l 1x1980
228 270 m 1
 192 297 l 1
 263 350 l 1
 536 350 l 1
 606 297 l 1
 536 242 l 1
 263 242 l 1
 228 270 l 1
656 -169 m 1x5180
 548 -66 l 1
 548 -42 l 1
 548 180 l 1
 656 278 l 1
 656 70 l 2
 656 68 656 67 656 65 c 0
 656 59 656 55 656 49 c 2
 656 -169 l 1x5180
177 -213 m 1x9180
 280 -105 l 1
 527 -105 l 1
 624 -213 l 1
 416 -213 l 2
 414 -213 415 -213 413 -213 c 0
 407 -213 401 -213 395 -213 c 2
 177 -213 l 1x9180
EndSplineSet
EndChar

StartChar: s
Encoding: 115 115 35
Width: 800
VWidth: 0
Flags: HW
HStem: -213 108<280 527> -169 21G<635 656> -169 21G<635 656> 242 108<263 536> 695 108<279 303 303 524> 740 20G<144 166> 740 20G<144 166>
VStem: 144 108<415 663> 548 108<-66 180>
LayerCount: 2
Back
Fore
SplineSet
144 313 m 1x1580
 144 531 l 2
 144 537 144 542 144 548 c 0
 144 550 144 550 144 552 c 2
 144 760 l 1
 252 663 l 1
 252 440 l 1
 252 415 l 1
 144 313 l 1x1580
176 803 m 1x1980
 394 803 l 2
 400 803 404 803 410 803 c 0
 412 803 413 803 415 803 c 2
 623 803 l 1
 524 695 l 1
 303 695 l 1
 279 695 l 1
 176 803 l 1x1980
228 270 m 1
 192 297 l 1
 263 350 l 1
 536 350 l 1
 606 297 l 1
 536 242 l 1
 263 242 l 1
 228 270 l 1
656 -169 m 1x5180
 548 -66 l 1
 548 -42 l 1
 548 180 l 1
 656 278 l 1
 656 70 l 2
 656 68 656 67 656 65 c 0
 656 59 656 55 656 49 c 2
 656 -169 l 1x5180
177 -213 m 1x9180
 280 -105 l 1
 527 -105 l 1
 624 -213 l 1
 416 -213 l 2
 414 -213 415 -213 413 -213 c 0
 407 -213 401 -213 395 -213 c 2
 177 -213 l 1x9180
EndSplineSet
EndChar

StartChar: U
Encoding: 85 85 36
Width: 800
VWidth: 0
Flags: HW
HStem: -213 108<280 527> -169 21G<147 169 635 656> -169 21G<147 169 635 656> 740 20G<144 166 633 653> 740 20G<144 166 633 653>
VStem: 147 108<-71 174 415 663> 548 108<-66 180 410 633 633 657>
LayerCount: 2
Back
Fore
SplineSet
653 760 m 1x16
 653 541 l 2
 653 535 653 532 653 526 c 0
 653 524 653 522 653 520 c 2
 653 313 l 1
 545 410 l 1
 545 633 l 1
 545 657 l 1
 653 760 l 1x16
144 313 m 1
 144 531 l 2
 144 537 144 542 144 548 c 0
 144 550 144 550 144 552 c 2
 144 760 l 1
 252 663 l 1
 252 440 l 1
 252 415 l 1
 144 313 l 1
656 -169 m 1x46
 548 -66 l 1
 548 -42 l 1
 548 180 l 1
 656 278 l 1
 656 70 l 2
 656 68 656 67 656 65 c 0
 656 59 656 55 656 49 c 2
 656 -169 l 1x46
147 278 m 1
 255 174 l 1
 255 150 l 1
 255 -71 l 1
 147 -169 l 1
 147 37 l 2
 147 39 147 41 147 43 c 0
 147 49 147 53 147 59 c 2
 147 278 l 1
177 -213 m 1x86
 280 -105 l 1
 527 -105 l 1
 624 -213 l 1
 416 -213 l 2
 414 -213 415 -213 413 -213 c 0
 407 -213 401 -213 395 -213 c 2
 177 -213 l 1x86
EndSplineSet
EndChar

StartChar: u
Encoding: 117 117 37
Width: 800
VWidth: 0
Flags: HW
HStem: -213 108<280 527> -169 21G<147 169 635 656> -169 21G<147 169 635 656> 740 20G<144 166 633 653> 740 20G<144 166 633 653>
VStem: 147 108<-71 174 415 663> 548 108<-66 180 410 633 633 657>
LayerCount: 2
Back
Fore
SplineSet
653 760 m 1x16
 653 541 l 2
 653 535 653 532 653 526 c 0
 653 524 653 522 653 520 c 2
 653 313 l 1
 545 410 l 1
 545 633 l 1
 545 657 l 1
 653 760 l 1x16
144 313 m 1
 144 531 l 2
 144 537 144 542 144 548 c 0
 144 550 144 550 144 552 c 2
 144 760 l 1
 252 663 l 1
 252 440 l 1
 252 415 l 1
 144 313 l 1
656 -169 m 1x46
 548 -66 l 1
 548 -42 l 1
 548 180 l 1
 656 278 l 1
 656 70 l 2
 656 68 656 67 656 65 c 0
 656 59 656 55 656 49 c 2
 656 -169 l 1x46
147 278 m 1
 255 174 l 1
 255 150 l 1
 255 -71 l 1
 147 -169 l 1
 147 37 l 2
 147 39 147 41 147 43 c 0
 147 49 147 53 147 59 c 2
 147 278 l 1
177 -213 m 1x86
 280 -105 l 1
 527 -105 l 1
 624 -213 l 1
 416 -213 l 2
 414 -213 415 -213 413 -213 c 0
 407 -213 401 -213 395 -213 c 2
 177 -213 l 1x86
EndSplineSet
EndChar

StartChar: R
Encoding: 82 82 38
Width: 800
VWidth: 0
Flags: HW
HStem: -169 21G<148 169> -169 21G<148 169> 242 108<263 537> 695 108<279 303 305 526> 740 20G<145 167 634 655> 740 20G<145 167 634 655>
VStem: 148 108<-71 174 415 663> 547 108<410 633 633 657>
LayerCount: 2
Back
Fore
SplineSet
479 176 m 5
 633 14 l 5
 622 -130 l 5
 479 20 l 6
 478 21 477 22 476 23 c 4
 473 28 467 30 464 35 c 6
 313 193 l 5
 313 193 l 1029x23
313 193 m 5
 463 193 l 5
 479 176 l 5
 633 14 l 5
 622 -130 l 5
 479 20 l 6
 478 21 477 22 476 23 c 4
 473 28 467 30 464 35 c 6
 313 193 l 5
602 48 m 1025
256 150 m 1
 256 -71 l 1
 148 -169 l 1xa3
 148 37 l 2
 148 39 148 41 148 43 c 0
 148 49 148 53 148 59 c 2
 148 278 l 1
 148 278 l 1025
655 760 m 1x2b
 655 541 l 2
 655 535 655 532 655 526 c 0
 655 524 655 522 655 520 c 2
 655 313 l 1
 547 410 l 1
 547 633 l 1
 547 657 l 1
 655 760 l 1x2b
145 313 m 1
 145 531 l 2
 145 537 145 542 145 548 c 0
 145 550 145 550 145 552 c 2
 145 760 l 1
 253 663 l 1
 253 440 l 1
 253 415 l 1
 145 313 l 1
177 803 m 1x33
 395 803 l 2
 401 803 406 803 412 803 c 0
 414 803 413 803 415 803 c 2
 623 803 l 1
 526 695 l 1
 305 695 l 1
 303 695 l 1
 279 695 l 1
 177 803 l 1x33
228 270 m 1
 193 297 l 1
 263 350 l 1
 537 350 l 1
 607 297 l 1
 537 242 l 1
 263 242 l 1
 228 270 l 1
148 278 m 1
 256 174 l 1
 256 150 l 1
 256 -71 l 1
 148 -169 l 1xa3
 148 37 l 2
 148 39 148 41 148 43 c 0
 148 49 148 53 148 59 c 2
 148 278 l 1
EndSplineSet
EndChar

StartChar: r
Encoding: 114 114 39
Width: 800
VWidth: 0
Flags: HW
HStem: -169 21G<148 169> -169 21G<148 169> 242 108<263 537> 695 108<279 303 305 526> 740 20G<145 167 634 655> 740 20G<145 167 634 655>
VStem: 148 108<-71 174 415 663> 547 108<410 633 633 657>
LayerCount: 2
Back
Fore
SplineSet
479 176 m 5
 633 14 l 5
 622 -130 l 5
 479 20 l 6
 478 21 477 22 476 23 c 4
 473 28 467 30 464 35 c 6
 313 193 l 5
 313 193 l 1029x23
313 193 m 5
 463 193 l 5
 479 176 l 5
 633 14 l 5
 622 -130 l 5
 479 20 l 6
 478 21 477 22 476 23 c 4
 473 28 467 30 464 35 c 6
 313 193 l 5
602 48 m 1025
256 150 m 1
 256 -71 l 1
 148 -169 l 1xa3
 148 37 l 2
 148 39 148 41 148 43 c 0
 148 49 148 53 148 59 c 2
 148 278 l 1
 148 278 l 1025
655 760 m 1x2b
 655 541 l 2
 655 535 655 532 655 526 c 0
 655 524 655 522 655 520 c 2
 655 313 l 1
 547 410 l 1
 547 633 l 1
 547 657 l 1
 655 760 l 1x2b
145 313 m 1
 145 531 l 2
 145 537 145 542 145 548 c 0
 145 550 145 550 145 552 c 2
 145 760 l 1
 253 663 l 1
 253 440 l 1
 253 415 l 1
 145 313 l 1
177 803 m 1x33
 395 803 l 2
 401 803 406 803 412 803 c 0
 414 803 413 803 415 803 c 2
 623 803 l 1
 526 695 l 1
 305 695 l 1
 303 695 l 1
 279 695 l 1
 177 803 l 1x33
228 270 m 1
 193 297 l 1
 263 350 l 1
 537 350 l 1
 607 297 l 1
 537 242 l 1
 263 242 l 1
 228 270 l 1
148 278 m 1
 256 174 l 1
 256 150 l 1
 256 -71 l 1
 148 -169 l 1xa3
 148 37 l 2
 148 39 148 41 148 43 c 0
 148 49 148 53 148 59 c 2
 148 278 l 1
EndSplineSet
EndChar

StartChar: parenleft
Encoding: 40 40 40
Width: 800
VWidth: 0
Flags: HW
HStem: -213 108<395 442> -169 21G<263 284> -169 21G<263 284> 695 108<393 417 419 440> 740 20G<260 283> 740 20G<260 283>
VStem: 263 108<-71 174 415 663>
LayerCount: 2
Back
Fore
SplineSet
260 313 m 1x0a
 260 531 l 2
 260 537 260 542 260 548 c 0
 260 550 260 550 260 552 c 2
 260 760 l 1
 367 663 l 1
 367 440 l 1
 367 415 l 1
 260 313 l 1x0a
291 803 m 1x12
 510 803 l 2
 516 803 520 803 526 803 c 0
 528 803 528 803 530 803 c 2
 537 803 l 1
 440 695 l 1
 419 695 l 1
 417 695 l 1
 393 695 l 1
 291 803 l 1x12
263 278 m 1
 370 174 l 1
 370 150 l 1
 370 -71 l 1
 263 -169 l 1x42
 263 37 l 2
 263 39 263 41 263 43 c 0
 263 49 263 53 263 59 c 2
 263 278 l 1
292 -213 m 1x82
 395 -105 l 1
 442 -105 l 5
 540 -213 l 5
 533 -213 l 2
 531 -213 530 -213 528 -213 c 0
 522 -213 518 -213 512 -213 c 2
 292 -213 l 1x82
EndSplineSet
EndChar

StartChar: parenright
Encoding: 41 41 41
Width: 800
VWidth: 0
Flags: HW
LayerCount: 2
Back
Fore
SplineSet
540 313 m 5
 540 531 l 6
 540 537 540 542 540 548 c 4
 540 550 540 550 540 552 c 6
 540 760 l 5
 433 663 l 5
 433 440 l 5
 433 415 l 5
 540 313 l 5
509 803 m 5
 290 803 l 6
 284 803 280 803 274 803 c 4
 272 803 272 803 270 803 c 6
 263 803 l 5
 360 695 l 5
 381 695 l 5
 383 695 l 5
 407 695 l 5
 509 803 l 5
537 278 m 5
 430 174 l 5
 430 150 l 5
 430 -71 l 5
 537 -169 l 5
 537 37 l 6
 537 39 537 41 537 43 c 4
 537 49 537 53 537 59 c 6
 537 278 l 5
508 -213 m 5
 405 -105 l 5
 358 -105 l 5
 260 -213 l 5
 267 -213 l 6
 269 -213 270 -213 272 -213 c 4
 278 -213 282 -213 288 -213 c 6
 508 -213 l 5
EndSplineSet
EndChar

StartChar: period
Encoding: 46 46 42
Width: 100
VWidth: 0
Flags: HW
HStem: -193 127<0 126>
VStem: 0 127<-193 -65>
LayerCount: 2
Back
Fore
SplineSet
0 -65 m 5
 126 -65 l 5
 126 -193 l 5
 0 -193 l 5
 0 -65 l 5
EndSplineSet
EndChar

StartChar: hyphen
Encoding: 45 45 43
Width: 800
VWidth: 0
Flags: HW
HStem: 242 108<263 537>
LayerCount: 2
Back
Fore
SplineSet
228 270 m 5
 193 297 l 5
 263 350 l 5
 537 350 l 5
 607 297 l 5
 537 242 l 5
 263 242 l 5
 228 270 l 5
EndSplineSet
EndChar

StartChar: braceleft
Encoding: 123 123 44
Width: 800
VWidth: 0
Flags: HW
HStem: -213 108<470 516> -169 21G<337 359> -169 21G<337 359> 695 108<469 493 493 514> 740 20G<335 357> 740 20G<335 357>
VStem: 337 108<-71 174 415 663>
LayerCount: 2
Back
Fore
SplineSet
186 273 m 5x02
 293 170 l 5
 293 388 l 6
 293 394 293 400 293 406 c 4
 293 408 293 408 293 410 c 6
 293 417 l 5
 186 320 l 5
 186 273 l 5x02
335 313 m 1
 335 531 l 2
 335 537 335 542 335 548 c 0
 335 550 335 550 335 552 c 2
 335 760 l 1x0a
 442 663 l 1
 442 440 l 1
 442 415 l 1
 335 313 l 1
365 803 m 1x12
 585 803 l 2
 591 803 594 803 600 803 c 0
 602 803 604 803 606 803 c 2
 613 803 l 1
 514 695 l 1
 493 695 l 1
 469 695 l 1
 365 803 l 1x12
337 278 m 1
 444 174 l 1
 444 150 l 1
 444 -71 l 1
 337 -169 l 1x42
 337 37 l 2
 337 39 337 41 337 43 c 0
 337 49 337 53 337 59 c 2
 337 278 l 1
366 -213 m 1x82
 470 -105 l 1
 516 -105 l 1
 614 -213 l 1
 607 -213 l 2
 605 -213 604 -213 602 -213 c 0
 596 -213 592 -213 586 -213 c 2
 366 -213 l 1x82
EndSplineSet
EndChar

StartChar: braceright
Encoding: 125 125 45
Width: 800
VWidth: 0
Flags: HW
VStem: 507 108<273 320>
LayerCount: 2
Back
Fore
SplineSet
614 273 m 5
 507 170 l 5
 507 388 l 6
 507 394 507 400 507 406 c 4
 507 408 507 408 507 410 c 6
 507 417 l 5
 614 320 l 5
 614 273 l 5
465 313 m 1
 465 531 l 2
 465 537 465 542 465 548 c 0
 465 550 465 550 465 552 c 2
 465 760 l 1
 358 663 l 1
 358 440 l 1
 358 415 l 1
 465 313 l 1
435 803 m 1
 215 803 l 2
 209 803 206 803 200 803 c 0
 198 803 196 803 194 803 c 2
 187 803 l 1
 286 695 l 1
 307 695 l 1
 331 695 l 1
 435 803 l 1
463 278 m 1
 356 174 l 1
 356 150 l 1
 356 -71 l 1
 463 -169 l 1
 463 37 l 2
 463 39 463 41 463 43 c 0
 463 49 463 53 463 59 c 2
 463 278 l 1
434 -213 m 1
 330 -105 l 1
 284 -105 l 1
 186 -213 l 1
 193 -213 l 2
 195 -213 196 -213 198 -213 c 0
 204 -213 208 -213 214 -213 c 2
 434 -213 l 1
EndSplineSet
EndChar

StartChar: bracketright
Encoding: 93 93 46
Width: 800
VWidth: 0
Flags: HW
LayerCount: 2
Back
Fore
SplineSet
540 313 m 5
 540 531 l 6
 540 537 540 542 540 548 c 4
 540 550 540 550 540 552 c 6
 540 760 l 5
 433 663 l 5
 433 440 l 5
 433 415 l 5
 540 313 l 5
509 803 m 5
 290 803 l 6
 284 803 280 803 274 803 c 4
 272 803 272 803 270 803 c 6
 263 803 l 5
 360 695 l 5
 381 695 l 5
 383 695 l 5
 407 695 l 5
 509 803 l 5
537 278 m 5
 430 174 l 5
 430 150 l 5
 430 -71 l 5
 537 -169 l 5
 537 37 l 6
 537 39 537 41 537 43 c 4
 537 49 537 53 537 59 c 6
 537 278 l 5
508 -213 m 5
 405 -105 l 5
 358 -105 l 5
 260 -213 l 5
 267 -213 l 6
 269 -213 270 -213 272 -213 c 4
 278 -213 282 -213 288 -213 c 6
 508 -213 l 5
EndSplineSet
EndChar

StartChar: bracketleft
Encoding: 91 91 47
Width: 800
VWidth: 0
Flags: HW
HStem: -213 108<395 442> -169 21G<263 284> -169 21G<263 284> 695 108<393 417 419 440> 740 20G<260 283> 740 20G<260 283>
VStem: 263 108<-71 174 415 663>
LayerCount: 2
Back
Fore
SplineSet
260 313 m 1x0a
 260 531 l 2
 260 537 260 542 260 548 c 0
 260 550 260 550 260 552 c 2
 260 760 l 1
 367 663 l 1
 367 440 l 1
 367 415 l 1
 260 313 l 1x0a
291 803 m 1x12
 510 803 l 2
 516 803 520 803 526 803 c 0
 528 803 528 803 530 803 c 2
 537 803 l 1
 440 695 l 1
 419 695 l 1
 417 695 l 1
 393 695 l 1
 291 803 l 1x12
263 278 m 1
 370 174 l 1
 370 150 l 1
 370 -71 l 1
 263 -169 l 1x42
 263 37 l 2
 263 39 263 41 263 43 c 0
 263 49 263 53 263 59 c 2
 263 278 l 1
292 -213 m 1x82
 395 -105 l 1
 442 -105 l 5
 540 -213 l 5
 533 -213 l 2
 531 -213 530 -213 528 -213 c 0
 522 -213 518 -213 512 -213 c 2
 292 -213 l 1x82
EndSplineSet
EndChar

StartChar: K
Encoding: 75 75 48
Width: 800
VWidth: 0
Flags: W
HStem: -169 21G<158 180> -169 21G<158 180> 740 20G<156 178> 740 20G<156 178>
VStem: 158 108<-71 174 415 663>
LayerCount: 2
Back
Fore
SplineSet
474 558 m 6
 479 563 483 565 486 570 c 4
 487 571 487 572 488 573 c 6
 634 723 l 1029
323 400 m 5
 472 400 l 5
 530.90625 457.760742188 585.729492188 519.604492188 643 579 c 5
 634 723 l 5
 488 573 l 6
 487 572 487 571 486 570 c 4
 483 565 479 563 474 558 c 6
 323 400 l 5
474 35 m 2
 479 30 483 28 486 23 c 0
 487 22 487 21 488 20 c 2
 634 -130 l 1025
323 193 m 1
 472 193 l 1
 530.90602028 135.239353614 585.729269125 73.3959357916 643 14 c 1
 634 -130 l 1
 488 20 l 2
 487 21 487 22 486 23 c 0
 483 28 479 30 474 35 c 2
 323 193 l 1
265 150 m 1
 265 -71 l 1
 158 -169 l 1x88
 158 37 l 2
 158 39 158 41 158 43 c 0
 158 49 158 53 158 59 c 2
 158 278 l 1
 158 278 l 1025
156 313 m 1
 156 531 l 2
 156 537 156 542 156 548 c 0
 156 550 156 550 156 552 c 2
 156 760 l 1x28
 263 663 l 1
 263 440 l 1
 263 415 l 1
 156 313 l 1
238 270 m 1
 205 297 l 1
 273 350 l 1
 278 350 l 1
 347 297 l 1
 278 242 l 1
 273 242 l 1
 238 270 l 1
158 278 m 1
 265 174 l 1
 265 150 l 1
 265 -71 l 1
 158 -169 l 1x88
 158 37 l 2
 158 39 158 41 158 43 c 0
 158 49 158 53 158 59 c 2
 158 278 l 1
EndSplineSet
EndChar

StartChar: k
Encoding: 107 107 49
Width: 800
VWidth: 0
Flags: HW
HStem: -169 21G<158 180> -169 21G<158 180> 740 20G<156 178> 740 20G<156 178>
VStem: 158 108<-71 174 415 663>
LayerCount: 2
Back
Fore
SplineSet
474 558 m 6
 479 563 483 565 486 570 c 4
 487 571 487 572 488 573 c 6
 634 723 l 1029
323 400 m 5
 472 400 l 5
 530.90625 457.760742188 585.729492188 519.604492188 643 579 c 5
 634 723 l 5
 488 573 l 6
 487 572 487 571 486 570 c 4
 483 565 479 563 474 558 c 6
 323 400 l 5
474 35 m 2
 479 30 483 28 486 23 c 0
 487 22 487 21 488 20 c 2
 634 -130 l 1025
323 193 m 1
 472 193 l 1
 530.90602028 135.239353614 585.729269125 73.3959357916 643 14 c 1
 634 -130 l 1
 488 20 l 2
 487 21 487 22 486 23 c 0
 483 28 479 30 474 35 c 2
 323 193 l 1
265 150 m 1
 265 -71 l 1
 158 -169 l 1x88
 158 37 l 2
 158 39 158 41 158 43 c 0
 158 49 158 53 158 59 c 2
 158 278 l 1
 158 278 l 1025
156 313 m 1
 156 531 l 2
 156 537 156 542 156 548 c 0
 156 550 156 550 156 552 c 2
 156 760 l 1x28
 263 663 l 1
 263 440 l 1
 263 415 l 1
 156 313 l 1
238 270 m 1
 205 297 l 1
 273 350 l 1
 278 350 l 1
 347 297 l 1
 278 242 l 1
 273 242 l 1
 238 270 l 1
158 278 m 1
 265 174 l 1
 265 150 l 1
 265 -71 l 1
 158 -169 l 1x88
 158 37 l 2
 158 39 158 41 158 43 c 0
 158 49 158 53 158 59 c 2
 158 278 l 1
EndSplineSet
EndChar

StartChar: j
Encoding: 106 106 50
Width: 800
VWidth: 0
Flags: HW
HStem: -200 108<353 399> -169 21G<524 545> -169 21G<524 545> 740 20G<522 543> 740 20G<522 543>
VStem: 437 108<-66 180 410 633 633 657>
LayerCount: 2
Back
Fore
SplineSet
399 -92 m 5x84
 502 -200 l 5
 284 -200 l 6
 278 -200 273 -200 267 -200 c 4
 265 -200 265 -200 263 -200 c 6
 255 -200 l 5
 353 -92 l 5
 399 -92 l 5x84
543 760 m 1x14
 543 541 l 2
 543 535 543 532 543 526 c 0
 543 524 543 522 543 520 c 2
 543 313 l 1
 436 410 l 1
 436 633 l 1
 436 657 l 1
 543 760 l 1x14
545 -169 m 1x44
 437 -66 l 1
 437 -42 l 1
 437 180 l 1
 545 278 l 1
 545 70 l 2
 545 68 545 67 545 65 c 0
 545 59 545 55 545 49 c 2
 545 -169 l 1x44
EndSplineSet
EndChar

StartChar: J
Encoding: 74 74 51
Width: 800
VWidth: 0
Flags: HW
HStem: -200 108<353 399> -169 21G<524 545> -169 21G<524 545> 740 20G<522 543> 740 20G<522 543>
VStem: 437 108<-66 180 410 633 633 657>
LayerCount: 2
Back
Fore
SplineSet
399 -92 m 5x84
 502 -200 l 5
 284 -200 l 6
 278 -200 273 -200 267 -200 c 4
 265 -200 265 -200 263 -200 c 6
 255 -200 l 5
 353 -92 l 5
 399 -92 l 5x84
543 760 m 1x14
 543 541 l 2
 543 535 543 532 543 526 c 0
 543 524 543 522 543 520 c 2
 543 313 l 1
 436 410 l 1
 436 633 l 1
 436 657 l 1
 543 760 l 1x14
545 -169 m 1x44
 437 -66 l 1
 437 -42 l 1
 437 180 l 1
 545 278 l 1
 545 70 l 2
 545 68 545 67 545 65 c 0
 545 59 545 55 545 49 c 2
 545 -169 l 1x44
EndSplineSet
EndChar

StartChar: brokenbar
Encoding: 166 166 52
Width: 800
VWidth: 0
Flags: HW
HStem: -169 21G<435 455> -169 21G<435 455> 740 20G<433 453> 740 20G<433 453>
VStem: 347 108<-66 180 410 633 633 657>
LayerCount: 2
Back
Fore
SplineSet
453 760 m 1x28
 453 541 l 2
 453 535 453 532 453 526 c 0
 453 524 453 522 453 520 c 2
 453 313 l 1
 345 410 l 1
 345 633 l 1
 345 657 l 1
 453 760 l 1x28
455 -169 m 1x88
 347 -66 l 1
 347 -42 l 1
 347 180 l 1
 455 278 l 1
 455 70 l 2
 455 68 455 67 455 65 c 0
 455 59 455 55 455 49 c 2
 455 -169 l 1x88
EndSplineSet
EndChar

StartChar: z
Encoding: 122 122 53
Width: 800
VWidth: 0
Flags: HW
HStem: -152 108<280 527> 656 108<279 303 303 524>
LayerCount: 2
Back
Fore
SplineSet
620 486 m 1
 620 667 l 1
 176 110 l 1
 176 -74 l 1
 620 486 l 1
176 763 m 1
 394 763 l 2
 400 763 404 763 410 763 c 0
 412 763 413 763 415 763 c 2
 623 763 l 1
 524 656 l 1
 303 656 l 1
 279 656 l 1
 176 763 l 1
177 -152 m 5
 280 -44 l 5
 527 -44 l 5
 624 -152 l 5
 416 -152 l 6
 414 -152 415 -152 413 -152 c 4
 407 -152 401 -152 395 -152 c 6
 177 -152 l 5
EndSplineSet
EndChar

StartChar: Eth
Encoding: 208 208 54
Width: 800
VWidth: 0
Flags: HW
HStem: -213 108<280 527> -169 21G<147 169 635 656> -169 21G<147 169 635 656> 695 108<279 303 303 524> 740 20G<144 166 633 653> 740 20G<144 166 633 653>
VStem: 147 108<-71 174 415 663> 548 108<-66 180 410 633 633 657>
LayerCount: 2
Back
Fore
SplineSet
653 760 m 1x0b
 653 541 l 2
 653 535 653 532 653 526 c 0
 653 524 653 522 653 520 c 2
 653 313 l 1
 545 410 l 1
 545 633 l 1
 545 657 l 1
 653 760 l 1x0b
144 313 m 1
 144 531 l 2
 144 537 144 542 144 548 c 0
 144 550 144 550 144 552 c 2
 144 760 l 1
 252 663 l 1
 252 440 l 1
 252 415 l 1
 144 313 l 1
176 803 m 1x13
 394 803 l 2
 400 803 404 803 410 803 c 0
 412 803 413 803 415 803 c 2
 623 803 l 1
 524 695 l 1
 303 695 l 1
 279 695 l 1
 176 803 l 1x13
656 -169 m 1x43
 548 -66 l 1
 548 -42 l 1
 548 180 l 1
 656 278 l 1
 656 70 l 2
 656 68 656 67 656 65 c 0
 656 59 656 55 656 49 c 2
 656 -169 l 1x43
147 278 m 1
 255 174 l 1
 255 150 l 1
 255 -71 l 1
 147 -169 l 1
 147 37 l 2
 147 39 147 41 147 43 c 0
 147 49 147 53 147 59 c 2
 147 278 l 1
177 -213 m 1x83
 280 -105 l 1
 527 -105 l 1
 624 -213 l 1
 416 -213 l 2
 414 -213 415 -213 413 -213 c 0
 407 -213 401 -213 395 -213 c 2
 177 -213 l 1x83
EndSplineSet
EndChar

StartChar: Ograve
Encoding: 210 210 55
Width: 800
VWidth: 0
Flags: HW
HStem: -213 108<280 527> -169 21G<147 169 635 656> -169 21G<147 169 635 656> 695 108<279 303 303 394> 740 20G<144 166 633 653> 740 20G<144 166 633 653>
VStem: 147 108<-71 174 415 663> 548 108<-66 180 410 633 633 657>
LayerCount: 2
Back
Fore
SplineSet
414 959 m 5x03
 305 895 l 5
 428 683 l 5
 537 745 l 5
 414 959 l 5x03
653 760 m 1x0b
 653 541 l 2
 653 535 653 532 653 526 c 0
 653 524 653 522 653 520 c 2
 653 313 l 1
 545 410 l 1
 545 633 l 1
 545 657 l 1
 653 760 l 1x0b
144 313 m 1
 144 531 l 2
 144 537 144 542 144 548 c 0
 144 550 144 550 144 552 c 2
 144 760 l 1
 252 663 l 1
 252 440 l 1
 252 415 l 1
 144 313 l 1
176 803 m 1x13
 394 803 l 2
 400 803 404 803 410 803 c 0
 412 803 413 803 415 803 c 2
 623 803 l 1
 524 695 l 1
 303 695 l 1
 279 695 l 1
 176 803 l 1x13
656 -169 m 1x43
 548 -66 l 1
 548 -42 l 1
 548 180 l 1
 656 278 l 1
 656 70 l 2
 656 68 656 67 656 65 c 0
 656 59 656 55 656 49 c 2
 656 -169 l 1x43
147 278 m 1
 255 174 l 1
 255 150 l 1
 255 -71 l 1
 147 -169 l 1
 147 37 l 2
 147 39 147 41 147 43 c 0
 147 49 147 53 147 59 c 2
 147 278 l 1
177 -213 m 1x83
 280 -105 l 1
 527 -105 l 1
 624 -213 l 1
 416 -213 l 2
 414 -213 415 -213 413 -213 c 0
 407 -213 401 -213 395 -213 c 2
 177 -213 l 1x83
EndSplineSet
EndChar

StartChar: Oacute
Encoding: 211 211 56
Width: 800
VWidth: 0
Flags: HW
HStem: -213 108<280 527> -169 21G<147 169 635 656> -169 21G<147 169 635 656> 695 108<279 303 303 305 394 524> 740 20G<144 166 633 653> 740 20G<144 166 633 653>
VStem: 147 108<-71 174 415 663> 548 108<-66 180 410 633 633 657>
LayerCount: 2
Back
Fore
SplineSet
428 959 m 5x03
 537 895 l 5
 414 683 l 5
 305 745 l 5
 428 959 l 5x03
653 760 m 1x0b
 653 541 l 2
 653 535 653 532 653 526 c 0
 653 524 653 522 653 520 c 2
 653 313 l 1
 545 410 l 1
 545 633 l 1
 545 657 l 1
 653 760 l 1x0b
144 313 m 1
 144 531 l 2
 144 537 144 542 144 548 c 0
 144 550 144 550 144 552 c 2
 144 760 l 1
 252 663 l 1
 252 440 l 1
 252 415 l 1
 144 313 l 1
176 803 m 1x13
 394 803 l 2
 400 803 404 803 410 803 c 0
 412 803 413 803 415 803 c 2
 623 803 l 1
 524 695 l 1
 303 695 l 1
 279 695 l 1
 176 803 l 1x13
656 -169 m 1x43
 548 -66 l 1
 548 -42 l 1
 548 180 l 1
 656 278 l 1
 656 70 l 2
 656 68 656 67 656 65 c 0
 656 59 656 55 656 49 c 2
 656 -169 l 1x43
147 278 m 1
 255 174 l 1
 255 150 l 1
 255 -71 l 1
 147 -169 l 1
 147 37 l 2
 147 39 147 41 147 43 c 0
 147 49 147 53 147 59 c 2
 147 278 l 1
177 -213 m 1x83
 280 -105 l 1
 527 -105 l 1
 624 -213 l 1
 416 -213 l 2
 414 -213 415 -213 413 -213 c 0
 407 -213 401 -213 395 -213 c 2
 177 -213 l 1x83
EndSplineSet
EndChar

StartChar: Ocircumflex
Encoding: 212 212 57
Width: 800
VWidth: 0
Flags: HW
HStem: -213 108<280 527> -169 21G<147 169 635 656> -169 21G<147 169 635 656> 695 108<279 303 303 524> 740 20G<144 166 633 653> 740 20G<144 166 633 653>
VStem: 147 108<-71 174 415 663> 548 108<-66 180 410 633 633 657>
LayerCount: 2
Back
Fore
SplineSet
379 948 m 5x03
 276 840 l 5
 494 840 l 6
 500 840 504 840 510 840 c 4
 512 840 513 840 515 840 c 6
 523 840 l 5
 424 948 l 5
 379 948 l 5x03
653 760 m 1x0b
 653 541 l 2
 653 535 653 532 653 526 c 0
 653 524 653 522 653 520 c 2
 653 313 l 1
 545 410 l 1
 545 633 l 1
 545 657 l 1
 653 760 l 1x0b
144 313 m 1
 144 531 l 2
 144 537 144 542 144 548 c 0
 144 550 144 550 144 552 c 2
 144 760 l 1
 252 663 l 1
 252 440 l 1
 252 415 l 1
 144 313 l 1
176 803 m 1x13
 394 803 l 2
 400 803 404 803 410 803 c 0
 412 803 413 803 415 803 c 2
 623 803 l 1
 524 695 l 1
 303 695 l 1
 279 695 l 1
 176 803 l 1x13
656 -169 m 1x43
 548 -66 l 1
 548 -42 l 1
 548 180 l 1
 656 278 l 1
 656 70 l 2
 656 68 656 67 656 65 c 0
 656 59 656 55 656 49 c 2
 656 -169 l 1x43
147 278 m 1
 255 174 l 1
 255 150 l 1
 255 -71 l 1
 147 -169 l 1
 147 37 l 2
 147 39 147 41 147 43 c 0
 147 49 147 53 147 59 c 2
 147 278 l 1
177 -213 m 1x83
 280 -105 l 1
 527 -105 l 1
 624 -213 l 1
 416 -213 l 2
 414 -213 415 -213 413 -213 c 0
 407 -213 401 -213 395 -213 c 2
 177 -213 l 1x83
EndSplineSet
EndChar

StartChar: Otilde
Encoding: 213 213 58
Width: 800
VWidth: 0
Flags: HW
HStem: -213 108<280 527> -169 21G<147 169 635 656> -169 21G<147 169 635 656> 695 108<279 303 303 524> 740 20G<144 166 633 653> 740 20G<144 166 633 653> 842 108<263 536>
VStem: 147 108<-71 174 415 663> 548 108<-66 180 410 633 633 657>
LayerCount: 2
Back
Fore
SplineSet
228 870 m 5x0380
 192 897 l 5
 263 950 l 5
 536 950 l 5
 606 897 l 5
 536 842 l 5
 263 842 l 5
 228 870 l 5x0380
653 760 m 1x0b80
 653 541 l 2
 653 535 653 532 653 526 c 0
 653 524 653 522 653 520 c 2
 653 313 l 1
 545 410 l 1
 545 633 l 1
 545 657 l 1
 653 760 l 1x0b80
144 313 m 1
 144 531 l 2
 144 537 144 542 144 548 c 0
 144 550 144 550 144 552 c 2
 144 760 l 1
 252 663 l 1
 252 440 l 1
 252 415 l 1
 144 313 l 1
176 803 m 1x1380
 394 803 l 2
 400 803 404 803 410 803 c 0
 412 803 413 803 415 803 c 2
 623 803 l 1
 524 695 l 1
 303 695 l 1
 279 695 l 1
 176 803 l 1x1380
656 -169 m 1x4380
 548 -66 l 1
 548 -42 l 1
 548 180 l 1
 656 278 l 1
 656 70 l 2
 656 68 656 67 656 65 c 0
 656 59 656 55 656 49 c 2
 656 -169 l 1x4380
147 278 m 1
 255 174 l 1
 255 150 l 1
 255 -71 l 1
 147 -169 l 1
 147 37 l 2
 147 39 147 41 147 43 c 0
 147 49 147 53 147 59 c 2
 147 278 l 1
177 -213 m 1x8380
 280 -105 l 1
 527 -105 l 1
 624 -213 l 1
 416 -213 l 2
 414 -213 415 -213 413 -213 c 0
 407 -213 401 -213 395 -213 c 2
 177 -213 l 1x8380
EndSplineSet
EndChar

StartChar: Odieresis
Encoding: 214 214 59
Width: 800
VWidth: 0
Flags: HW
HStem: -213 108<280 527> -169 21G<147 169 635 656> -169 21G<147 169 635 656> 695 108<279 303 303 524> 740 20G<144 166 633 653> 740 20G<144 166 633 653> 852 63<305 371 424 491>
VStem: 147 108<-71 174 415 663> 305 65<852 914> 424 65<852 914> 548 108<-66 180 410 633 633 657>
LayerCount: 2
Back
Fore
SplineSet
424 914 m 5x03e0
 491 914 l 5
 491 852 l 5
 424 852 l 5
 424 914 l 5x03e0
305 914 m 5
 371 914 l 5
 371 852 l 5
 305 852 l 5
 305 914 l 5
653 760 m 1x0be0
 653 541 l 2
 653 535 653 532 653 526 c 0
 653 524 653 522 653 520 c 2
 653 313 l 1
 545 410 l 1
 545 633 l 1
 545 657 l 1
 653 760 l 1x0be0
144 313 m 1
 144 531 l 2
 144 537 144 542 144 548 c 0
 144 550 144 550 144 552 c 2
 144 760 l 1
 252 663 l 1
 252 440 l 1
 252 415 l 1
 144 313 l 1
176 803 m 1x13e0
 394 803 l 2
 400 803 404 803 410 803 c 0
 412 803 413 803 415 803 c 2
 623 803 l 1
 524 695 l 1
 303 695 l 1
 279 695 l 1
 176 803 l 1x13e0
656 -169 m 1x43e0
 548 -66 l 1
 548 -42 l 1
 548 180 l 1
 656 278 l 1
 656 70 l 2
 656 68 656 67 656 65 c 0
 656 59 656 55 656 49 c 2
 656 -169 l 1x43e0
147 278 m 1
 255 174 l 1
 255 150 l 1
 255 -71 l 1
 147 -169 l 1
 147 37 l 2
 147 39 147 41 147 43 c 0
 147 49 147 53 147 59 c 2
 147 278 l 1
177 -213 m 1x83e0
 280 -105 l 1
 527 -105 l 1
 624 -213 l 1
 416 -213 l 2
 414 -213 415 -213 413 -213 c 0
 407 -213 401 -213 395 -213 c 2
 177 -213 l 1x83e0
EndSplineSet
EndChar

StartChar: otilde
Encoding: 245 245 60
Width: 800
VWidth: 0
Flags: HW
HStem: -213 108<280 527> -169 21G<147 169 635 656> -169 21G<147 169 635 656> 695 108<279 303 303 524> 740 20G<144 166 633 653> 740 20G<144 166 633 653> 842 108<263 536>
VStem: 147 108<-71 174 415 663> 548 108<-66 180 410 633 633 657>
LayerCount: 2
Back
Fore
SplineSet
228 870 m 5x0380
 192 897 l 5
 263 950 l 5
 536 950 l 5
 606 897 l 5
 536 842 l 5
 263 842 l 5
 228 870 l 5x0380
653 760 m 1x0b80
 653 541 l 2
 653 535 653 532 653 526 c 0
 653 524 653 522 653 520 c 2
 653 313 l 1
 545 410 l 1
 545 633 l 1
 545 657 l 1
 653 760 l 1x0b80
144 313 m 1
 144 531 l 2
 144 537 144 542 144 548 c 0
 144 550 144 550 144 552 c 2
 144 760 l 1
 252 663 l 1
 252 440 l 1
 252 415 l 1
 144 313 l 1
176 803 m 1x1380
 394 803 l 2
 400 803 404 803 410 803 c 0
 412 803 413 803 415 803 c 2
 623 803 l 1
 524 695 l 1
 303 695 l 1
 279 695 l 1
 176 803 l 1x1380
656 -169 m 1x4380
 548 -66 l 1
 548 -42 l 1
 548 180 l 1
 656 278 l 1
 656 70 l 2
 656 68 656 67 656 65 c 0
 656 59 656 55 656 49 c 2
 656 -169 l 1x4380
147 278 m 1
 255 174 l 1
 255 150 l 1
 255 -71 l 1
 147 -169 l 1
 147 37 l 2
 147 39 147 41 147 43 c 0
 147 49 147 53 147 59 c 2
 147 278 l 1
177 -213 m 1x8380
 280 -105 l 1
 527 -105 l 1
 624 -213 l 1
 416 -213 l 2
 414 -213 415 -213 413 -213 c 0
 407 -213 401 -213 395 -213 c 2
 177 -213 l 1x8380
EndSplineSet
EndChar

StartChar: odieresis
Encoding: 246 246 61
Width: 800
VWidth: 0
Flags: HW
HStem: -213 108<280 527> -169 21G<147 169 635 656> -169 21G<147 169 635 656> 695 108<279 303 303 524> 740 20G<144 166 633 653> 740 20G<144 166 633 653> 852 63<305 371 424 491>
VStem: 147 108<-71 174 415 663> 305 65<852 914> 424 65<852 914> 548 108<-66 180 410 633 633 657>
LayerCount: 2
Back
Fore
SplineSet
424 914 m 5x03e0
 491 914 l 5
 491 852 l 5
 424 852 l 5
 424 914 l 5x03e0
305 914 m 5
 371 914 l 5
 371 852 l 5
 305 852 l 5
 305 914 l 5
653 760 m 1x0be0
 653 541 l 2
 653 535 653 532 653 526 c 0
 653 524 653 522 653 520 c 2
 653 313 l 1
 545 410 l 1
 545 633 l 1
 545 657 l 1
 653 760 l 1x0be0
144 313 m 1
 144 531 l 2
 144 537 144 542 144 548 c 0
 144 550 144 550 144 552 c 2
 144 760 l 1
 252 663 l 1
 252 440 l 1
 252 415 l 1
 144 313 l 1
176 803 m 1x13e0
 394 803 l 2
 400 803 404 803 410 803 c 0
 412 803 413 803 415 803 c 2
 623 803 l 1
 524 695 l 1
 303 695 l 1
 279 695 l 1
 176 803 l 1x13e0
656 -169 m 1x43e0
 548 -66 l 1
 548 -42 l 1
 548 180 l 1
 656 278 l 1
 656 70 l 2
 656 68 656 67 656 65 c 0
 656 59 656 55 656 49 c 2
 656 -169 l 1x43e0
147 278 m 1
 255 174 l 1
 255 150 l 1
 255 -71 l 1
 147 -169 l 1
 147 37 l 2
 147 39 147 41 147 43 c 0
 147 49 147 53 147 59 c 2
 147 278 l 1
177 -213 m 1x83e0
 280 -105 l 1
 527 -105 l 1
 624 -213 l 1
 416 -213 l 2
 414 -213 415 -213 413 -213 c 0
 407 -213 401 -213 395 -213 c 2
 177 -213 l 1x83e0
EndSplineSet
EndChar

StartChar: ocircumflex
Encoding: 244 244 62
Width: 800
VWidth: 0
Flags: HW
HStem: -213 108<280 527> -169 21G<147 169 635 656> -169 21G<147 169 635 656> 695 108<279 303 303 524> 740 20G<144 166 633 653> 740 20G<144 166 633 653>
VStem: 147 108<-71 174 415 663> 548 108<-66 180 410 633 633 657>
LayerCount: 2
Back
Fore
SplineSet
379 948 m 5x03
 276 840 l 5
 494 840 l 6
 500 840 504 840 510 840 c 4
 512 840 513 840 515 840 c 6
 523 840 l 5
 424 948 l 5
 379 948 l 5x03
653 760 m 1x0b
 653 541 l 2
 653 535 653 532 653 526 c 0
 653 524 653 522 653 520 c 2
 653 313 l 1
 545 410 l 1
 545 633 l 1
 545 657 l 1
 653 760 l 1x0b
144 313 m 1
 144 531 l 2
 144 537 144 542 144 548 c 0
 144 550 144 550 144 552 c 2
 144 760 l 1
 252 663 l 1
 252 440 l 1
 252 415 l 1
 144 313 l 1
176 803 m 1x13
 394 803 l 2
 400 803 404 803 410 803 c 0
 412 803 413 803 415 803 c 2
 623 803 l 1
 524 695 l 1
 303 695 l 1
 279 695 l 1
 176 803 l 1x13
656 -169 m 1x43
 548 -66 l 1
 548 -42 l 1
 548 180 l 1
 656 278 l 1
 656 70 l 2
 656 68 656 67 656 65 c 0
 656 59 656 55 656 49 c 2
 656 -169 l 1x43
147 278 m 1
 255 174 l 1
 255 150 l 1
 255 -71 l 1
 147 -169 l 1
 147 37 l 2
 147 39 147 41 147 43 c 0
 147 49 147 53 147 59 c 2
 147 278 l 1
177 -213 m 1x83
 280 -105 l 1
 527 -105 l 1
 624 -213 l 1
 416 -213 l 2
 414 -213 415 -213 413 -213 c 0
 407 -213 401 -213 395 -213 c 2
 177 -213 l 1x83
EndSplineSet
EndChar

StartChar: oacute
Encoding: 243 243 63
Width: 800
VWidth: 0
Flags: HW
HStem: -213 108<280 527> -169 21G<147 169 635 656> -169 21G<147 169 635 656> 695 108<279 303 303 305 394 524> 740 20G<144 166 633 653> 740 20G<144 166 633 653>
VStem: 147 108<-71 174 415 663> 548 108<-66 180 410 633 633 657>
LayerCount: 2
Back
Fore
SplineSet
428 959 m 5x03
 537 895 l 5
 414 683 l 5
 305 745 l 5
 428 959 l 5x03
653 760 m 1x0b
 653 541 l 2
 653 535 653 532 653 526 c 0
 653 524 653 522 653 520 c 2
 653 313 l 1
 545 410 l 1
 545 633 l 1
 545 657 l 1
 653 760 l 1x0b
144 313 m 1
 144 531 l 2
 144 537 144 542 144 548 c 0
 144 550 144 550 144 552 c 2
 144 760 l 1
 252 663 l 1
 252 440 l 1
 252 415 l 1
 144 313 l 1
176 803 m 1x13
 394 803 l 2
 400 803 404 803 410 803 c 0
 412 803 413 803 415 803 c 2
 623 803 l 1
 524 695 l 1
 303 695 l 1
 279 695 l 1
 176 803 l 1x13
656 -169 m 1x43
 548 -66 l 1
 548 -42 l 1
 548 180 l 1
 656 278 l 1
 656 70 l 2
 656 68 656 67 656 65 c 0
 656 59 656 55 656 49 c 2
 656 -169 l 1x43
147 278 m 1
 255 174 l 1
 255 150 l 1
 255 -71 l 1
 147 -169 l 1
 147 37 l 2
 147 39 147 41 147 43 c 0
 147 49 147 53 147 59 c 2
 147 278 l 1
177 -213 m 1x83
 280 -105 l 1
 527 -105 l 1
 624 -213 l 1
 416 -213 l 2
 414 -213 415 -213 413 -213 c 0
 407 -213 401 -213 395 -213 c 2
 177 -213 l 1x83
EndSplineSet
EndChar

StartChar: ograve
Encoding: 242 242 64
Width: 800
VWidth: 0
Flags: HW
HStem: -213 108<280 527> -169 21G<147 169 635 656> -169 21G<147 169 635 656> 695 108<279 303 303 394> 740 20G<144 166 633 653> 740 20G<144 166 633 653>
VStem: 147 108<-71 174 415 663> 548 108<-66 180 410 633 633 657>
LayerCount: 2
Back
Fore
SplineSet
414 959 m 5x03
 305 895 l 5
 428 683 l 5
 537 745 l 5
 414 959 l 5x03
653 760 m 1x0b
 653 541 l 2
 653 535 653 532 653 526 c 0
 653 524 653 522 653 520 c 2
 653 313 l 1
 545 410 l 1
 545 633 l 1
 545 657 l 1
 653 760 l 1x0b
144 313 m 1
 144 531 l 2
 144 537 144 542 144 548 c 0
 144 550 144 550 144 552 c 2
 144 760 l 1
 252 663 l 1
 252 440 l 1
 252 415 l 1
 144 313 l 1
176 803 m 1x13
 394 803 l 2
 400 803 404 803 410 803 c 0
 412 803 413 803 415 803 c 2
 623 803 l 1
 524 695 l 1
 303 695 l 1
 279 695 l 1
 176 803 l 1x13
656 -169 m 1x43
 548 -66 l 1
 548 -42 l 1
 548 180 l 1
 656 278 l 1
 656 70 l 2
 656 68 656 67 656 65 c 0
 656 59 656 55 656 49 c 2
 656 -169 l 1x43
147 278 m 1
 255 174 l 1
 255 150 l 1
 255 -71 l 1
 147 -169 l 1
 147 37 l 2
 147 39 147 41 147 43 c 0
 147 49 147 53 147 59 c 2
 147 278 l 1
177 -213 m 1x83
 280 -105 l 1
 527 -105 l 1
 624 -213 l 1
 416 -213 l 2
 414 -213 415 -213 413 -213 c 0
 407 -213 401 -213 395 -213 c 2
 177 -213 l 1x83
EndSplineSet
EndChar

StartChar: eth
Encoding: 240 240 65
Width: 800
VWidth: 0
Flags: HW
HStem: -213 108<280 527> -169 21G<147 169 635 656> -169 21G<147 169 635 656> 695 108<279 303 303 524> 740 20G<144 166 633 653> 740 20G<144 166 633 653> 842 108<263 536>
VStem: 147 108<-71 174 415 663> 548 108<-66 180 410 633 633 657>
LayerCount: 2
Back
Fore
SplineSet
228 870 m 5x0380
 192 897 l 5
 263 950 l 5
 536 950 l 5
 606 897 l 5
 536 842 l 5
 263 842 l 5
 228 870 l 5x0380
653 760 m 1x0b80
 653 541 l 2
 653 535 653 532 653 526 c 0
 653 524 653 522 653 520 c 2
 653 313 l 1
 545 410 l 1
 545 633 l 1
 545 657 l 1
 653 760 l 1x0b80
144 313 m 1
 144 531 l 2
 144 537 144 542 144 548 c 0
 144 550 144 550 144 552 c 2
 144 760 l 1
 252 663 l 1
 252 440 l 1
 252 415 l 1
 144 313 l 1
176 803 m 1x1380
 394 803 l 2
 400 803 404 803 410 803 c 0
 412 803 413 803 415 803 c 2
 623 803 l 1
 524 695 l 1
 303 695 l 1
 279 695 l 1
 176 803 l 1x1380
656 -169 m 1x4380
 548 -66 l 1
 548 -42 l 1
 548 180 l 1
 656 278 l 1
 656 70 l 2
 656 68 656 67 656 65 c 0
 656 59 656 55 656 49 c 2
 656 -169 l 1x4380
147 278 m 1
 255 174 l 1
 255 150 l 1
 255 -71 l 1
 147 -169 l 1
 147 37 l 2
 147 39 147 41 147 43 c 0
 147 49 147 53 147 59 c 2
 147 278 l 1
177 -213 m 1x8380
 280 -105 l 1
 527 -105 l 1
 624 -213 l 1
 416 -213 l 2
 414 -213 415 -213 413 -213 c 0
 407 -213 401 -213 395 -213 c 2
 177 -213 l 1x8380
EndSplineSet
EndChar

StartChar: ugrave
Encoding: 249 249 66
Width: 800
VWidth: 0
Flags: HW
HStem: -213 108<280 527> -169 21G<147 169 635 656> -169 21G<147 169 635 656> 740 20G<144 166 633 653> 740 20G<144 166 633 653>
VStem: 147 108<-71 174 415 663> 548 108<-66 180 410 633 633 657>
LayerCount: 2
Back
Fore
SplineSet
414 959 m 5x06
 305 895 l 5
 428 683 l 5
 537 745 l 5
 414 959 l 5x06
653 760 m 1x16
 653 541 l 2
 653 535 653 532 653 526 c 0
 653 524 653 522 653 520 c 2
 653 313 l 1
 545 410 l 1
 545 633 l 1
 545 657 l 1
 653 760 l 1x16
144 313 m 1
 144 531 l 2
 144 537 144 542 144 548 c 0
 144 550 144 550 144 552 c 2
 144 760 l 1
 252 663 l 1
 252 440 l 1
 252 415 l 1
 144 313 l 1
656 -169 m 1x46
 548 -66 l 1
 548 -42 l 1
 548 180 l 1
 656 278 l 1
 656 70 l 2
 656 68 656 67 656 65 c 0
 656 59 656 55 656 49 c 2
 656 -169 l 1x46
147 278 m 1
 255 174 l 1
 255 150 l 1
 255 -71 l 1
 147 -169 l 1
 147 37 l 2
 147 39 147 41 147 43 c 0
 147 49 147 53 147 59 c 2
 147 278 l 1
177 -213 m 1x86
 280 -105 l 1
 527 -105 l 1
 624 -213 l 1
 416 -213 l 2
 414 -213 415 -213 413 -213 c 0
 407 -213 401 -213 395 -213 c 2
 177 -213 l 1x86
EndSplineSet
EndChar

StartChar: uacute
Encoding: 250 250 67
Width: 800
VWidth: 0
Flags: HW
HStem: -213 108<280 527> -169 21G<147 169 635 656> -169 21G<147 169 635 656> 740 20G<144 166 633 653> 740 20G<144 166 633 653>
VStem: 147 108<-71 174 415 663> 548 108<-66 180 410 633 633 657>
LayerCount: 2
Back
Fore
SplineSet
428 959 m 5x06
 537 895 l 5
 414 683 l 5
 305 745 l 5
 428 959 l 5x06
653 760 m 1x16
 653 541 l 2
 653 535 653 532 653 526 c 0
 653 524 653 522 653 520 c 2
 653 313 l 1
 545 410 l 1
 545 633 l 1
 545 657 l 1
 653 760 l 1x16
144 313 m 1
 144 531 l 2
 144 537 144 542 144 548 c 0
 144 550 144 550 144 552 c 2
 144 760 l 1
 252 663 l 1
 252 440 l 1
 252 415 l 1
 144 313 l 1
656 -169 m 1x46
 548 -66 l 1
 548 -42 l 1
 548 180 l 1
 656 278 l 1
 656 70 l 2
 656 68 656 67 656 65 c 0
 656 59 656 55 656 49 c 2
 656 -169 l 1x46
147 278 m 1
 255 174 l 1
 255 150 l 1
 255 -71 l 1
 147 -169 l 1
 147 37 l 2
 147 39 147 41 147 43 c 0
 147 49 147 53 147 59 c 2
 147 278 l 1
177 -213 m 1x86
 280 -105 l 1
 527 -105 l 1
 624 -213 l 1
 416 -213 l 2
 414 -213 415 -213 413 -213 c 0
 407 -213 401 -213 395 -213 c 2
 177 -213 l 1x86
EndSplineSet
EndChar

StartChar: ucircumflex
Encoding: 251 251 68
Width: 800
VWidth: 0
Flags: HW
HStem: -213 108<280 527> -169 21G<147 169 635 656> -169 21G<147 169 635 656> 740 20G<144 166 633 653> 740 20G<144 166 633 653>
VStem: 147 108<-71 174 415 663> 548 108<-66 180 410 633 633 657>
LayerCount: 2
Back
Fore
SplineSet
379 837 m 5x06
 276 730 l 5
 494 730 l 6
 500 730 504 730 510 730 c 4
 512 730 513 730 515 730 c 6
 523 730 l 5
 424 837 l 5
 379 837 l 5x06
653 760 m 1x16
 653 541 l 2
 653 535 653 532 653 526 c 0
 653 524 653 522 653 520 c 2
 653 313 l 1
 545 410 l 1
 545 633 l 1
 545 657 l 1
 653 760 l 1x16
144 313 m 1
 144 531 l 2
 144 537 144 542 144 548 c 0
 144 550 144 550 144 552 c 2
 144 760 l 1
 252 663 l 1
 252 440 l 1
 252 415 l 1
 144 313 l 1
656 -169 m 1x46
 548 -66 l 1
 548 -42 l 1
 548 180 l 1
 656 278 l 1
 656 70 l 2
 656 68 656 67 656 65 c 0
 656 59 656 55 656 49 c 2
 656 -169 l 1x46
147 278 m 1
 255 174 l 1
 255 150 l 1
 255 -71 l 1
 147 -169 l 1
 147 37 l 2
 147 39 147 41 147 43 c 0
 147 49 147 53 147 59 c 2
 147 278 l 1
177 -213 m 1x86
 280 -105 l 1
 527 -105 l 1
 624 -213 l 1
 416 -213 l 2
 414 -213 415 -213 413 -213 c 0
 407 -213 401 -213 395 -213 c 2
 177 -213 l 1x86
EndSplineSet
EndChar

StartChar: udieresis
Encoding: 252 252 69
Width: 800
VWidth: 0
Flags: HW
HStem: -213 108<280 527> -169 21G<147 169 635 656> -169 21G<147 169 635 656> 740 20G<144 166 633 653> 740 20G<144 166 633 653> 852 63<305 371 424 491>
VStem: 147 108<-71 174 415 663> 305 65<852 914> 424 65<852 914> 548 108<-66 180 410 633 633 657>
LayerCount: 2
Back
Fore
SplineSet
424 914 m 5x07c0
 491 914 l 5
 491 852 l 5
 424 852 l 5
 424 914 l 5x07c0
305 914 m 5
 371 914 l 5
 371 852 l 5
 305 852 l 5
 305 914 l 5
653 760 m 1x17c0
 653 541 l 2
 653 535 653 532 653 526 c 0
 653 524 653 522 653 520 c 2
 653 313 l 1
 545 410 l 1
 545 633 l 1
 545 657 l 1
 653 760 l 1x17c0
144 313 m 1
 144 531 l 2
 144 537 144 542 144 548 c 0
 144 550 144 550 144 552 c 2
 144 760 l 1
 252 663 l 1
 252 440 l 1
 252 415 l 1
 144 313 l 1
656 -169 m 1x47c0
 548 -66 l 1
 548 -42 l 1
 548 180 l 1
 656 278 l 1
 656 70 l 2
 656 68 656 67 656 65 c 0
 656 59 656 55 656 49 c 2
 656 -169 l 1x47c0
147 278 m 1
 255 174 l 1
 255 150 l 1
 255 -71 l 1
 147 -169 l 1
 147 37 l 2
 147 39 147 41 147 43 c 0
 147 49 147 53 147 59 c 2
 147 278 l 1
177 -213 m 1x87c0
 280 -105 l 1
 527 -105 l 1
 624 -213 l 1
 416 -213 l 2
 414 -213 415 -213 413 -213 c 0
 407 -213 401 -213 395 -213 c 2
 177 -213 l 1x87c0
EndSplineSet
EndChar

StartChar: Udieresis
Encoding: 220 220 70
Width: 800
VWidth: 0
Flags: HW
HStem: -213 108<280 527> -169 21G<147 169 635 656> -169 21G<147 169 635 656> 740 20G<144 166 633 653> 740 20G<144 166 633 653> 852 63<305 371 424 491>
VStem: 147 108<-71 174 415 663> 305 65<852 914> 424 65<852 914> 548 108<-66 180 410 633 633 657>
LayerCount: 2
Back
Fore
SplineSet
424 914 m 5x07c0
 491 914 l 5
 491 852 l 5
 424 852 l 5
 424 914 l 5x07c0
305 914 m 5
 371 914 l 5
 371 852 l 5
 305 852 l 5
 305 914 l 5
653 760 m 1x17c0
 653 541 l 2
 653 535 653 532 653 526 c 0
 653 524 653 522 653 520 c 2
 653 313 l 1
 545 410 l 1
 545 633 l 1
 545 657 l 1
 653 760 l 1x17c0
144 313 m 1
 144 531 l 2
 144 537 144 542 144 548 c 0
 144 550 144 550 144 552 c 2
 144 760 l 1
 252 663 l 1
 252 440 l 1
 252 415 l 1
 144 313 l 1
656 -169 m 1x47c0
 548 -66 l 1
 548 -42 l 1
 548 180 l 1
 656 278 l 1
 656 70 l 2
 656 68 656 67 656 65 c 0
 656 59 656 55 656 49 c 2
 656 -169 l 1x47c0
147 278 m 1
 255 174 l 1
 255 150 l 1
 255 -71 l 1
 147 -169 l 1
 147 37 l 2
 147 39 147 41 147 43 c 0
 147 49 147 53 147 59 c 2
 147 278 l 1
177 -213 m 1x87c0
 280 -105 l 1
 527 -105 l 1
 624 -213 l 1
 416 -213 l 2
 414 -213 415 -213 413 -213 c 0
 407 -213 401 -213 395 -213 c 2
 177 -213 l 1x87c0
EndSplineSet
EndChar

StartChar: Ucircumflex
Encoding: 219 219 71
Width: 800
VWidth: 0
Flags: HW
HStem: -213 108<280 527> -169 21G<147 169 635 656> -169 21G<147 169 635 656> 740 20G<144 166 633 653> 740 20G<144 166 633 653>
VStem: 147 108<-71 174 415 663> 548 108<-66 180 410 633 633 657>
LayerCount: 2
Back
Fore
SplineSet
379 948 m 5x06
 276 840 l 5
 494 840 l 6
 500 840 504 840 510 840 c 4
 512 840 513 840 515 840 c 6
 523 840 l 5
 424 948 l 5
 379 948 l 5x06
653 760 m 1x16
 653 541 l 2
 653 535 653 532 653 526 c 0
 653 524 653 522 653 520 c 2
 653 313 l 1
 545 410 l 1
 545 633 l 1
 545 657 l 1
 653 760 l 1x16
144 313 m 1
 144 531 l 2
 144 537 144 542 144 548 c 0
 144 550 144 550 144 552 c 2
 144 760 l 1
 252 663 l 1
 252 440 l 1
 252 415 l 1
 144 313 l 1
656 -169 m 1x46
 548 -66 l 1
 548 -42 l 1
 548 180 l 1
 656 278 l 1
 656 70 l 2
 656 68 656 67 656 65 c 0
 656 59 656 55 656 49 c 2
 656 -169 l 1x46
147 278 m 1
 255 174 l 1
 255 150 l 1
 255 -71 l 1
 147 -169 l 1
 147 37 l 2
 147 39 147 41 147 43 c 0
 147 49 147 53 147 59 c 2
 147 278 l 1
177 -213 m 1x86
 280 -105 l 1
 527 -105 l 1
 624 -213 l 1
 416 -213 l 2
 414 -213 415 -213 413 -213 c 0
 407 -213 401 -213 395 -213 c 2
 177 -213 l 1x86
EndSplineSet
EndChar

StartChar: Ugrave
Encoding: 217 217 72
Width: 800
VWidth: 0
Flags: HW
HStem: -213 108<280 527> -169 21G<147 169 635 656> -169 21G<147 169 635 656> 740 20G<144 166 633 653> 740 20G<144 166 633 653>
VStem: 147 108<-71 174 415 663> 548 108<-66 180 410 633 633 657>
LayerCount: 2
Back
Fore
SplineSet
414 959 m 5x06
 305 895 l 5
 428 683 l 5
 537 745 l 5
 414 959 l 5x06
653 760 m 1x16
 653 541 l 2
 653 535 653 532 653 526 c 0
 653 524 653 522 653 520 c 2
 653 313 l 1
 545 410 l 1
 545 633 l 1
 545 657 l 1
 653 760 l 1x16
144 313 m 1
 144 531 l 2
 144 537 144 542 144 548 c 0
 144 550 144 550 144 552 c 2
 144 760 l 1
 252 663 l 1
 252 440 l 1
 252 415 l 1
 144 313 l 1
656 -169 m 1x46
 548 -66 l 1
 548 -42 l 1
 548 180 l 1
 656 278 l 1
 656 70 l 2
 656 68 656 67 656 65 c 0
 656 59 656 55 656 49 c 2
 656 -169 l 1x46
147 278 m 1
 255 174 l 1
 255 150 l 1
 255 -71 l 1
 147 -169 l 1
 147 37 l 2
 147 39 147 41 147 43 c 0
 147 49 147 53 147 59 c 2
 147 278 l 1
177 -213 m 1x86
 280 -105 l 1
 527 -105 l 1
 624 -213 l 1
 416 -213 l 2
 414 -213 415 -213 413 -213 c 0
 407 -213 401 -213 395 -213 c 2
 177 -213 l 1x86
EndSplineSet
EndChar

StartChar: Uacute
Encoding: 218 218 73
Width: 800
VWidth: 0
Flags: HW
HStem: -213 108<280 527> -169 21G<147 169 635 656> -169 21G<147 169 635 656> 740 20G<144 166 633 653> 740 20G<144 166 633 653>
VStem: 147 108<-71 174 415 663> 548 108<-66 180 410 633 633 657>
LayerCount: 2
Back
Fore
SplineSet
428 959 m 5x06
 537 895 l 5
 414 683 l 5
 305 745 l 5
 428 959 l 5x06
653 760 m 1x16
 653 541 l 2
 653 535 653 532 653 526 c 0
 653 524 653 522 653 520 c 2
 653 313 l 1
 545 410 l 1
 545 633 l 1
 545 657 l 1
 653 760 l 1x16
144 313 m 1
 144 531 l 2
 144 537 144 542 144 548 c 0
 144 550 144 550 144 552 c 2
 144 760 l 1
 252 663 l 1
 252 440 l 1
 252 415 l 1
 144 313 l 1
656 -169 m 1x46
 548 -66 l 1
 548 -42 l 1
 548 180 l 1
 656 278 l 1
 656 70 l 2
 656 68 656 67 656 65 c 0
 656 59 656 55 656 49 c 2
 656 -169 l 1x46
147 278 m 1
 255 174 l 1
 255 150 l 1
 255 -71 l 1
 147 -169 l 1
 147 37 l 2
 147 39 147 41 147 43 c 0
 147 49 147 53 147 59 c 2
 147 278 l 1
177 -213 m 1x86
 280 -105 l 1
 527 -105 l 1
 624 -213 l 1
 416 -213 l 2
 414 -213 415 -213 413 -213 c 0
 407 -213 401 -213 395 -213 c 2
 177 -213 l 1x86
EndSplineSet
EndChar

StartChar: igrave
Encoding: 236 236 74
Width: 800
VWidth: 0
Flags: HW
HStem: -169 21G<555 576> -169 21G<555 576> 740 20G<552 573> 740 20G<552 573>
VStem: 467 108<-66 180 410 633 633 657>
LayerCount: 2
Back
Fore
SplineSet
335 959 m 5x08
 224 895 l 5
 348 683 l 5
 458 745 l 5
 335 959 l 5x08
573 760 m 1x28
 573 541 l 2
 573 535 573 532 573 526 c 0
 573 524 573 522 573 520 c 2
 573 313 l 1
 465 410 l 1
 465 633 l 1
 465 657 l 1
 573 760 l 1x28
576 -169 m 1x88
 467 -66 l 1
 467 -42 l 1
 467 180 l 1
 576 278 l 1
 576 70 l 2
 576 68 576 67 576 65 c 0
 576 59 576 55 576 49 c 2
 576 -169 l 1x88
EndSplineSet
EndChar

StartChar: iacute
Encoding: 237 237 75
Width: 800
VWidth: 0
Flags: HW
HStem: -169 21G<555 576> -169 21G<555 576> 740 20G<552 573> 740 20G<552 573>
VStem: 467 108<-66 180 410 633 633 657>
LayerCount: 2
Back
Fore
SplineSet
348 959 m 5x08
 458 895 l 5
 335 683 l 5
 224 745 l 5
 348 959 l 5x08
573 760 m 1x28
 573 541 l 2
 573 535 573 532 573 526 c 0
 573 524 573 522 573 520 c 2
 573 313 l 1
 465 410 l 1
 465 633 l 1
 465 657 l 1
 573 760 l 1x28
576 -169 m 1x88
 467 -66 l 1
 467 -42 l 1
 467 180 l 1
 576 278 l 1
 576 70 l 2
 576 68 576 67 576 65 c 0
 576 59 576 55 576 49 c 2
 576 -169 l 1x88
EndSplineSet
EndChar

StartChar: icircumflex
Encoding: 238 238 76
Width: 800
VWidth: 0
Flags: HW
HStem: -169 21G<426 447> -169 21G<426 447> 740 20G<423 444> 740 20G<423 444>
VStem: 338 108<-66 180 410 633 633 657>
LayerCount: 2
Back
Fore
SplineSet
379 908 m 5x08
 277 800 l 5
 495 800 l 6
 501 800 506 800 512 800 c 4
 514 800 513 800 515 800 c 6
 523 800 l 5
 426 908 l 5
 379 908 l 5x08
444 760 m 1x28
 444 541 l 2
 444 535 444 532 444 526 c 0
 444 524 444 522 444 520 c 2
 444 313 l 1
 337 410 l 1
 337 633 l 1
 337 657 l 1
 444 760 l 1x28
447 -169 m 1x88
 338 -66 l 1
 338 -42 l 1
 338 180 l 1
 447 278 l 1
 447 70 l 2
 447 68 447 67 447 65 c 0
 447 59 447 55 447 49 c 2
 447 -169 l 1x88
EndSplineSet
EndChar

StartChar: idieresis
Encoding: 239 239 77
Width: 800
VWidth: 0
Flags: HW
HStem: -169 21G<416 437> -169 21G<416 437> 740 20G<414 436> 740 20G<414 436> 833 63<307 373 427 493>
VStem: 307 65<833 894> 330 108<-66 180 410 633 633 657> 427 65<833 894>
LayerCount: 2
Back
Fore
SplineSet
427 894 m 5x09
 493 894 l 5
 493 833 l 5
 427 833 l 5
 427 894 l 5x09
307 894 m 5x0c
 373 894 l 5
 373 833 l 5
 307 833 l 5
 307 894 l 5x0c
436 760 m 1x28
 436 541 l 2
 436 535 436 532 436 526 c 0
 436 524 436 522 436 520 c 2
 436 313 l 1
 328 410 l 1
 328 633 l 1
 328 657 l 1
 436 760 l 1x28
437 -169 m 1x8a
 330 -66 l 1
 330 -42 l 1
 330 180 l 1
 437 278 l 1
 437 70 l 2
 437 68 437 67 437 65 c 0
 437 59 437 55 437 49 c 2
 437 -169 l 1x8a
EndSplineSet
EndChar

StartChar: Igrave
Encoding: 204 204 78
Width: 800
VWidth: 0
Flags: HW
HStem: -169 21G<555 576> -169 21G<555 576> 740 20G<552 573> 740 20G<552 573>
VStem: 467 108<-66 180 410 633 633 657>
LayerCount: 2
Back
Fore
SplineSet
335 959 m 5x08
 224 895 l 5
 348 683 l 5
 458 745 l 5
 335 959 l 5x08
573 760 m 1x28
 573 541 l 2
 573 535 573 532 573 526 c 0
 573 524 573 522 573 520 c 2
 573 313 l 1
 465 410 l 1
 465 633 l 1
 465 657 l 1
 573 760 l 1x28
576 -169 m 1x88
 467 -66 l 1
 467 -42 l 1
 467 180 l 1
 576 278 l 1
 576 70 l 2
 576 68 576 67 576 65 c 0
 576 59 576 55 576 49 c 2
 576 -169 l 1x88
EndSplineSet
EndChar

StartChar: Iacute
Encoding: 205 205 79
Width: 800
VWidth: 0
Flags: HW
HStem: -169 21G<555 576> -169 21G<555 576> 740 20G<552 573> 740 20G<552 573>
VStem: 467 108<-66 180 410 633 633 657>
LayerCount: 2
Back
Fore
SplineSet
348 959 m 5x08
 458 895 l 5
 335 683 l 5
 224 745 l 5
 348 959 l 5x08
573 760 m 1x28
 573 541 l 2
 573 535 573 532 573 526 c 0
 573 524 573 522 573 520 c 2
 573 313 l 1
 465 410 l 1
 465 633 l 1
 465 657 l 1
 573 760 l 1x28
576 -169 m 1x88
 467 -66 l 1
 467 -42 l 1
 467 180 l 1
 576 278 l 1
 576 70 l 2
 576 68 576 67 576 65 c 0
 576 59 576 55 576 49 c 2
 576 -169 l 1x88
EndSplineSet
EndChar

StartChar: Icircumflex
Encoding: 206 206 80
Width: 800
VWidth: 0
Flags: HW
HStem: -169 21G<415 437> -169 21G<415 437> 740 20G<413 435> 740 20G<413 435>
VStem: 329 108<-66 180 410 633 633 657>
LayerCount: 2
Back
Fore
SplineSet
379 908 m 5x08
 277 800 l 5
 495 800 l 6
 501 800 506 800 512 800 c 4
 514 800 513 800 515 800 c 6
 523 800 l 5
 426 908 l 5
 379 908 l 5x08
435 760 m 1x28
 435 541 l 2
 435 535 435 532 435 526 c 0
 435 524 435 522 435 520 c 2
 435 313 l 1
 327 410 l 1
 327 633 l 1
 327 657 l 1
 435 760 l 1x28
437 -169 m 1x88
 329 -66 l 1
 329 -42 l 1
 329 180 l 1
 437 278 l 1
 437 70 l 2
 437 68 437 67 437 65 c 0
 437 59 437 55 437 49 c 2
 437 -169 l 1x88
EndSplineSet
EndChar

StartChar: Idieresis
Encoding: 207 207 81
Width: 800
VWidth: 0
Flags: HW
HStem: -169 21G<416 437> -169 21G<416 437> 740 20G<414 436> 740 20G<414 436> 852 63<307 373 427 493>
VStem: 307 65<852 914> 330 108<-66 180 410 633 633 657> 427 65<852 914>
LayerCount: 2
Back
Fore
SplineSet
427 914 m 5x09
 493 914 l 5
 493 852 l 5
 427 852 l 5
 427 914 l 5x09
307 914 m 5x0c
 373 914 l 5
 373 852 l 5
 307 852 l 5
 307 914 l 5x0c
436 760 m 1x28
 436 541 l 2
 436 535 436 532 436 526 c 0
 436 524 436 522 436 520 c 2
 436 313 l 1
 328 410 l 1
 328 633 l 1
 328 657 l 1
 436 760 l 1x28
437 -169 m 1x8a
 330 -66 l 1
 330 -42 l 1
 330 180 l 1
 437 278 l 1
 437 70 l 2
 437 68 437 67 437 65 c 0
 437 59 437 55 437 49 c 2
 437 -169 l 1x8a
EndSplineSet
EndChar

StartChar: Edieresis
Encoding: 203 203 82
Width: 800
VWidth: 0
Flags: HW
HStem: -213 108<295 542> -169 21G<163 184> -169 21G<163 184> 242 108<278 551> 695 108<293 317 319 540> 740 20G<160 183> 740 20G<160 183> 852 63<320 387 440 507>
VStem: 163 108<-71 174 415 663> 320 65<852 914> 440 65<852 914>
LayerCount: 2
Back
Fore
SplineSet
440 914 m 5x11e0
 507 914 l 5
 507 852 l 5
 440 852 l 5
 440 914 l 5x11e0
320 914 m 5
 387 914 l 5
 387 852 l 5
 320 852 l 5
 320 914 l 5
160 313 m 1
 160 531 l 2
 160 537 160 542 160 548 c 0
 160 550 160 550 160 552 c 2
 160 760 l 1x15e0
 267 663 l 1
 267 440 l 1
 267 415 l 1
 160 313 l 1
191 803 m 1x19e0
 410 803 l 2
 416 803 420 803 426 803 c 0
 428 803 428 803 430 803 c 2
 637 803 l 1
 540 695 l 1
 319 695 l 1
 317 695 l 1
 293 695 l 1
 191 803 l 1x19e0
242 270 m 1
 208 297 l 1
 278 350 l 1
 551 350 l 1
 621 297 l 1
 551 242 l 1
 278 242 l 1
 242 270 l 1
163 278 m 1
 270 174 l 1
 270 150 l 1
 270 -71 l 1
 163 -169 l 1x51e0
 163 37 l 2
 163 39 163 41 163 43 c 0
 163 49 163 53 163 59 c 2
 163 278 l 1
192 -213 m 1x91e0
 295 -105 l 1
 542 -105 l 1
 640 -213 l 1
 433 -213 l 2
 431 -213 430 -213 428 -213 c 0
 422 -213 418 -213 412 -213 c 2
 192 -213 l 1x91e0
EndSplineSet
EndChar

StartChar: egrave
Encoding: 232 232 83
Width: 800
VWidth: 0
Flags: HW
HStem: -213 108<295 542> -169 21G<163 184> -169 21G<163 184> 242 108<278 551> 695 108<293 317 319 410> 740 20G<160 183> 740 20G<160 183>
VStem: 163 108<-71 174 415 663>
LayerCount: 2
Back
Fore
SplineSet
430 959 m 5x11
 320 895 l 5
 443 683 l 5
 553 745 l 5
 430 959 l 5x11
160 313 m 1
 160 531 l 2
 160 537 160 542 160 548 c 0
 160 550 160 550 160 552 c 2
 160 760 l 1x15
 267 663 l 1
 267 440 l 1
 267 415 l 1
 160 313 l 1
191 803 m 1x19
 410 803 l 2
 416 803 420 803 426 803 c 0
 428 803 428 803 430 803 c 2
 637 803 l 1
 540 695 l 1
 319 695 l 1
 317 695 l 1
 293 695 l 1
 191 803 l 1x19
242 270 m 1
 208 297 l 1
 278 350 l 1
 551 350 l 1
 621 297 l 1
 551 242 l 1
 278 242 l 1
 242 270 l 1
163 278 m 1
 270 174 l 1
 270 150 l 1
 270 -71 l 1
 163 -169 l 1x51
 163 37 l 2
 163 39 163 41 163 43 c 0
 163 49 163 53 163 59 c 2
 163 278 l 1
192 -213 m 1x91
 295 -105 l 1
 542 -105 l 1
 640 -213 l 1
 433 -213 l 2
 431 -213 430 -213 428 -213 c 0
 422 -213 418 -213 412 -213 c 2
 192 -213 l 1x91
EndSplineSet
EndChar

StartChar: eacute
Encoding: 233 233 84
Width: 800
VWidth: 0
Flags: HW
HStem: -213 108<295 542> -169 21G<163 184> -169 21G<163 184> 242 108<278 551> 695 108<293 317 319 320 410 540> 740 20G<160 183> 740 20G<160 183>
VStem: 163 108<-71 174 415 663>
LayerCount: 2
Back
Fore
SplineSet
443 959 m 5x11
 553 895 l 5
 430 683 l 5
 320 745 l 5
 443 959 l 5x11
160 313 m 1
 160 531 l 2
 160 537 160 542 160 548 c 0
 160 550 160 550 160 552 c 2
 160 760 l 1x15
 267 663 l 1
 267 440 l 1
 267 415 l 1
 160 313 l 1
191 803 m 1x19
 410 803 l 2
 416 803 420 803 426 803 c 0
 428 803 428 803 430 803 c 2
 637 803 l 1
 540 695 l 1
 319 695 l 1
 317 695 l 1
 293 695 l 1
 191 803 l 1x19
242 270 m 1
 208 297 l 1
 278 350 l 1
 551 350 l 1
 621 297 l 1
 551 242 l 1
 278 242 l 1
 242 270 l 1
163 278 m 1
 270 174 l 1
 270 150 l 1
 270 -71 l 1
 163 -169 l 1x51
 163 37 l 2
 163 39 163 41 163 43 c 0
 163 49 163 53 163 59 c 2
 163 278 l 1
192 -213 m 1x91
 295 -105 l 1
 542 -105 l 1
 640 -213 l 1
 433 -213 l 2
 431 -213 430 -213 428 -213 c 0
 422 -213 418 -213 412 -213 c 2
 192 -213 l 1x91
EndSplineSet
EndChar

StartChar: ecircumflex
Encoding: 234 234 85
Width: 800
VWidth: 0
Flags: HW
HStem: -213 108<295 542> -169 21G<163 184> -169 21G<163 184> 242 108<278 551> 695 108<293 317 319 540> 740 20G<160 183> 740 20G<160 183>
VStem: 163 108<-71 174 415 663>
LayerCount: 2
Back
Fore
SplineSet
393 958 m 5x11
 291 850 l 5
 510 850 l 6
 516 850 520 850 526 850 c 4
 528 850 528 850 530 850 c 6
 537 850 l 5
 440 958 l 5
 393 958 l 5x11
160 313 m 1
 160 531 l 2
 160 537 160 542 160 548 c 0
 160 550 160 550 160 552 c 2
 160 760 l 1x15
 267 663 l 1
 267 440 l 1
 267 415 l 1
 160 313 l 1
191 803 m 1x19
 410 803 l 2
 416 803 420 803 426 803 c 0
 428 803 428 803 430 803 c 2
 637 803 l 1
 540 695 l 1
 319 695 l 1
 317 695 l 1
 293 695 l 1
 191 803 l 1x19
242 270 m 1
 208 297 l 1
 278 350 l 1
 551 350 l 1
 621 297 l 1
 551 242 l 1
 278 242 l 1
 242 270 l 1
163 278 m 1
 270 174 l 1
 270 150 l 1
 270 -71 l 1
 163 -169 l 1x51
 163 37 l 2
 163 39 163 41 163 43 c 0
 163 49 163 53 163 59 c 2
 163 278 l 1
192 -213 m 1x91
 295 -105 l 1
 542 -105 l 1
 640 -213 l 1
 433 -213 l 2
 431 -213 430 -213 428 -213 c 0
 422 -213 418 -213 412 -213 c 2
 192 -213 l 1x91
EndSplineSet
EndChar

StartChar: edieresis
Encoding: 235 235 86
Width: 800
VWidth: 0
Flags: HW
HStem: -213 108<295 542> -169 21G<163 184> -169 21G<163 184> 242 108<278 551> 695 108<293 317 319 540> 740 20G<160 183> 740 20G<160 183> 852 63<320 387 440 507>
VStem: 163 108<-71 174 415 663> 320 65<852 914> 440 65<852 914>
LayerCount: 2
Back
Fore
SplineSet
440 914 m 5x11e0
 507 914 l 5
 507 852 l 5
 440 852 l 5
 440 914 l 5x11e0
320 914 m 5
 387 914 l 5
 387 852 l 5
 320 852 l 5
 320 914 l 5
160 313 m 1
 160 531 l 2
 160 537 160 542 160 548 c 0
 160 550 160 550 160 552 c 2
 160 760 l 1x15e0
 267 663 l 1
 267 440 l 1
 267 415 l 1
 160 313 l 1
191 803 m 1x19e0
 410 803 l 2
 416 803 420 803 426 803 c 0
 428 803 428 803 430 803 c 2
 637 803 l 1
 540 695 l 1
 319 695 l 1
 317 695 l 1
 293 695 l 1
 191 803 l 1x19e0
242 270 m 1
 208 297 l 1
 278 350 l 1
 551 350 l 1
 621 297 l 1
 551 242 l 1
 278 242 l 1
 242 270 l 1
163 278 m 1
 270 174 l 1
 270 150 l 1
 270 -71 l 1
 163 -169 l 1x51e0
 163 37 l 2
 163 39 163 41 163 43 c 0
 163 49 163 53 163 59 c 2
 163 278 l 1
192 -213 m 1x91e0
 295 -105 l 1
 542 -105 l 1
 640 -213 l 1
 433 -213 l 2
 431 -213 430 -213 428 -213 c 0
 422 -213 418 -213 412 -213 c 2
 192 -213 l 1x91e0
EndSplineSet
EndChar

StartChar: agrave
Encoding: 224 224 87
Width: 800
VWidth: 0
Flags: HW
HStem: -169 21G<147 169 635 656> -169 21G<147 169 635 656> 242 108<263 536> 695 108<279 303 303 394> 740 20G<144 166 633 653> 740 20G<144 166 633 653>
VStem: 147 108<-71 174 415 663> 548 108<-66 180 410 633 633 657>
LayerCount: 2
Back
Fore
SplineSet
414 959 m 5x23
 305 895 l 5
 428 683 l 5
 537 745 l 5
 414 959 l 5x23
653 760 m 1x2b
 653 541 l 2
 653 535 653 532 653 526 c 0
 653 524 653 522 653 520 c 2
 653 313 l 1
 545 410 l 1
 545 633 l 1
 545 657 l 1
 653 760 l 1x2b
144 313 m 1
 144 531 l 2
 144 537 144 542 144 548 c 0
 144 550 144 550 144 552 c 2
 144 760 l 1
 252 663 l 1
 252 440 l 1
 252 415 l 1
 144 313 l 1
176 803 m 1x33
 394 803 l 2
 400 803 404 803 410 803 c 0
 412 803 413 803 415 803 c 2
 623 803 l 1
 524 695 l 1
 303 695 l 1
 279 695 l 1
 176 803 l 1x33
228 270 m 1
 192 297 l 1
 263 350 l 1
 536 350 l 1
 606 297 l 1
 536 242 l 1
 263 242 l 1
 228 270 l 1
656 -169 m 1xa3
 548 -66 l 1
 548 -42 l 1
 548 180 l 1
 656 278 l 1
 656 70 l 2
 656 68 656 67 656 65 c 0
 656 59 656 55 656 49 c 2
 656 -169 l 1xa3
147 278 m 1
 255 174 l 1
 255 150 l 1
 255 -71 l 1
 147 -169 l 1
 147 37 l 2
 147 39 147 41 147 43 c 0
 147 49 147 53 147 59 c 2
 147 278 l 1
EndSplineSet
EndChar

StartChar: aacute
Encoding: 225 225 88
Width: 800
VWidth: 0
Flags: HW
HStem: -169 21G<147 169 635 656> -169 21G<147 169 635 656> 242 108<263 536> 695 108<279 303 303 305 394 524> 740 20G<144 166 633 653> 740 20G<144 166 633 653>
VStem: 147 108<-71 174 415 663> 548 108<-66 180 410 633 633 657>
LayerCount: 2
Back
Fore
SplineSet
428 959 m 5x23
 537 895 l 5
 414 683 l 5
 305 745 l 5
 428 959 l 5x23
653 760 m 1x2b
 653 541 l 2
 653 535 653 532 653 526 c 0
 653 524 653 522 653 520 c 2
 653 313 l 1
 545 410 l 1
 545 633 l 1
 545 657 l 1
 653 760 l 1x2b
144 313 m 1
 144 531 l 2
 144 537 144 542 144 548 c 0
 144 550 144 550 144 552 c 2
 144 760 l 1
 252 663 l 1
 252 440 l 1
 252 415 l 1
 144 313 l 1
176 803 m 1x33
 394 803 l 2
 400 803 404 803 410 803 c 0
 412 803 413 803 415 803 c 2
 623 803 l 1
 524 695 l 1
 303 695 l 1
 279 695 l 1
 176 803 l 1x33
228 270 m 1
 192 297 l 1
 263 350 l 1
 536 350 l 1
 606 297 l 1
 536 242 l 1
 263 242 l 1
 228 270 l 1
656 -169 m 1xa3
 548 -66 l 1
 548 -42 l 1
 548 180 l 1
 656 278 l 1
 656 70 l 2
 656 68 656 67 656 65 c 0
 656 59 656 55 656 49 c 2
 656 -169 l 1xa3
147 278 m 1
 255 174 l 1
 255 150 l 1
 255 -71 l 1
 147 -169 l 1
 147 37 l 2
 147 39 147 41 147 43 c 0
 147 49 147 53 147 59 c 2
 147 278 l 1
EndSplineSet
EndChar

StartChar: acircumflex
Encoding: 226 226 89
Width: 800
VWidth: 0
Flags: HW
HStem: -169 21G<147 169 635 656> -169 21G<147 169 635 656> 242 108<263 536> 695 108<279 303 303 524> 740 20G<144 166 633 653> 740 20G<144 166 633 653>
VStem: 147 108<-71 174 415 663> 548 108<-66 180 410 633 633 657>
LayerCount: 2
Back
Fore
SplineSet
379 948 m 5x23
 276 840 l 5
 494 840 l 6
 500 840 504 840 510 840 c 4
 512 840 513 840 515 840 c 6
 523 840 l 5
 424 948 l 5
 379 948 l 5x23
653 760 m 1x2b
 653 541 l 2
 653 535 653 532 653 526 c 0
 653 524 653 522 653 520 c 2
 653 313 l 1
 545 410 l 1
 545 633 l 1
 545 657 l 1
 653 760 l 1x2b
144 313 m 1
 144 531 l 2
 144 537 144 542 144 548 c 0
 144 550 144 550 144 552 c 2
 144 760 l 1
 252 663 l 1
 252 440 l 1
 252 415 l 1
 144 313 l 1
176 803 m 1x33
 394 803 l 2
 400 803 404 803 410 803 c 0
 412 803 413 803 415 803 c 2
 623 803 l 1
 524 695 l 1
 303 695 l 1
 279 695 l 1
 176 803 l 1x33
228 270 m 1
 192 297 l 1
 263 350 l 1
 536 350 l 1
 606 297 l 1
 536 242 l 1
 263 242 l 1
 228 270 l 1
656 -169 m 1xa3
 548 -66 l 1
 548 -42 l 1
 548 180 l 1
 656 278 l 1
 656 70 l 2
 656 68 656 67 656 65 c 0
 656 59 656 55 656 49 c 2
 656 -169 l 1xa3
147 278 m 1
 255 174 l 1
 255 150 l 1
 255 -71 l 1
 147 -169 l 1
 147 37 l 2
 147 39 147 41 147 43 c 0
 147 49 147 53 147 59 c 2
 147 278 l 1
EndSplineSet
EndChar

StartChar: atilde
Encoding: 227 227 90
Width: 800
VWidth: 0
Flags: HW
HStem: -169 21G<147 169 635 656> -169 21G<147 169 635 656> 242 108<263 536> 695 108<279 303 303 524> 740 20G<144 166 633 653> 740 20G<144 166 633 653> 842 108<263 536>
VStem: 147 108<-71 174 415 663> 548 108<-66 180 410 633 633 657>
LayerCount: 2
Back
Fore
SplineSet
228 870 m 5x2380
 192 897 l 5
 263 950 l 5
 536 950 l 5
 606 897 l 5
 536 842 l 5
 263 842 l 5
 228 870 l 5x2380
653 760 m 1x2b80
 653 541 l 2
 653 535 653 532 653 526 c 0
 653 524 653 522 653 520 c 2
 653 313 l 1
 545 410 l 1
 545 633 l 1
 545 657 l 1
 653 760 l 1x2b80
144 313 m 1
 144 531 l 2
 144 537 144 542 144 548 c 0
 144 550 144 550 144 552 c 2
 144 760 l 1
 252 663 l 1
 252 440 l 1
 252 415 l 1
 144 313 l 1
176 803 m 1x3380
 394 803 l 2
 400 803 404 803 410 803 c 0
 412 803 413 803 415 803 c 2
 623 803 l 1
 524 695 l 1
 303 695 l 1
 279 695 l 1
 176 803 l 1x3380
228 270 m 1
 192 297 l 1
 263 350 l 1
 536 350 l 1
 606 297 l 1
 536 242 l 1
 263 242 l 1
 228 270 l 1
656 -169 m 1xa380
 548 -66 l 1
 548 -42 l 1
 548 180 l 1
 656 278 l 1
 656 70 l 2
 656 68 656 67 656 65 c 0
 656 59 656 55 656 49 c 2
 656 -169 l 1xa380
147 278 m 1
 255 174 l 1
 255 150 l 1
 255 -71 l 1
 147 -169 l 1
 147 37 l 2
 147 39 147 41 147 43 c 0
 147 49 147 53 147 59 c 2
 147 278 l 1
EndSplineSet
EndChar

StartChar: aring
Encoding: 229 229 91
Width: 800
VWidth: 0
Flags: HW
HStem: -169 21G<147 169 635 656> -169 21G<147 169 635 656> 242 108<263 536> 695 108<279 303 303 524> 740 20G<144 166 633 653> 740 20G<144 166 633 653> 847 127<358 485>
VStem: 147 108<-71 174 415 663> 358 127<847 974> 548 108<-66 180 410 633 633 657>
LayerCount: 2
Back
Fore
SplineSet
358 974 m 5x23c0
 485 974 l 5
 485 847 l 5
 358 847 l 5
 358 974 l 5x23c0
653 760 m 1x2bc0
 653 541 l 2
 653 535 653 532 653 526 c 0
 653 524 653 522 653 520 c 2
 653 313 l 1
 545 410 l 1
 545 633 l 1
 545 657 l 1
 653 760 l 1x2bc0
144 313 m 1
 144 531 l 2
 144 537 144 542 144 548 c 0
 144 550 144 550 144 552 c 2
 144 760 l 1
 252 663 l 1
 252 440 l 1
 252 415 l 1
 144 313 l 1
176 803 m 1x33c0
 394 803 l 2
 400 803 404 803 410 803 c 0
 412 803 413 803 415 803 c 2
 623 803 l 1
 524 695 l 1
 303 695 l 1
 279 695 l 1
 176 803 l 1x33c0
228 270 m 1
 192 297 l 1
 263 350 l 1
 536 350 l 1
 606 297 l 1
 536 242 l 1
 263 242 l 1
 228 270 l 1
656 -169 m 1xa3c0
 548 -66 l 1
 548 -42 l 1
 548 180 l 1
 656 278 l 1
 656 70 l 2
 656 68 656 67 656 65 c 0
 656 59 656 55 656 49 c 2
 656 -169 l 1xa3c0
147 278 m 1
 255 174 l 1
 255 150 l 1
 255 -71 l 1
 147 -169 l 1
 147 37 l 2
 147 39 147 41 147 43 c 0
 147 49 147 53 147 59 c 2
 147 278 l 1
EndSplineSet
EndChar

StartChar: adieresis
Encoding: 228 228 92
Width: 800
VWidth: 0
Flags: HW
HStem: -169 21G<147 169 635 656> -169 21G<147 169 635 656> 242 108<263 536> 695 108<279 303 303 524> 740 20G<144 166 633 653> 740 20G<144 166 633 653> 852 63<305 371 424 491>
VStem: 147 108<-71 174 415 663> 305 65<852 914> 424 65<852 914> 548 108<-66 180 410 633 633 657>
LayerCount: 2
Back
Fore
SplineSet
424 914 m 5x23e0
 491 914 l 5
 491 852 l 5
 424 852 l 5
 424 914 l 5x23e0
305 914 m 5
 371 914 l 5
 371 852 l 5
 305 852 l 5
 305 914 l 5
653 760 m 1x2be0
 653 541 l 2
 653 535 653 532 653 526 c 0
 653 524 653 522 653 520 c 2
 653 313 l 1
 545 410 l 1
 545 633 l 1
 545 657 l 1
 653 760 l 1x2be0
144 313 m 1
 144 531 l 2
 144 537 144 542 144 548 c 0
 144 550 144 550 144 552 c 2
 144 760 l 1
 252 663 l 1
 252 440 l 1
 252 415 l 1
 144 313 l 1
176 803 m 1x33e0
 394 803 l 2
 400 803 404 803 410 803 c 0
 412 803 413 803 415 803 c 2
 623 803 l 1
 524 695 l 1
 303 695 l 1
 279 695 l 1
 176 803 l 1x33e0
228 270 m 1
 192 297 l 1
 263 350 l 1
 536 350 l 1
 606 297 l 1
 536 242 l 1
 263 242 l 1
 228 270 l 1
656 -169 m 1xa3e0
 548 -66 l 1
 548 -42 l 1
 548 180 l 1
 656 278 l 1
 656 70 l 2
 656 68 656 67 656 65 c 0
 656 59 656 55 656 49 c 2
 656 -169 l 1xa3e0
147 278 m 1
 255 174 l 1
 255 150 l 1
 255 -71 l 1
 147 -169 l 1
 147 37 l 2
 147 39 147 41 147 43 c 0
 147 49 147 53 147 59 c 2
 147 278 l 1
EndSplineSet
EndChar

StartChar: Egrave
Encoding: 200 200 93
Width: 800
VWidth: 0
Flags: HW
HStem: -213 108<295 542> -169 21G<163 184> -169 21G<163 184> 242 108<278 551> 695 108<293 317 319 410> 740 20G<160 183> 740 20G<160 183>
VStem: 163 108<-71 174 415 663>
LayerCount: 2
Back
Fore
SplineSet
430 959 m 5x11
 320 895 l 5
 443 683 l 5
 553 745 l 5
 430 959 l 5x11
160 313 m 1
 160 531 l 2
 160 537 160 542 160 548 c 0
 160 550 160 550 160 552 c 2
 160 760 l 1x15
 267 663 l 1
 267 440 l 1
 267 415 l 1
 160 313 l 1
191 803 m 1x19
 410 803 l 2
 416 803 420 803 426 803 c 0
 428 803 428 803 430 803 c 2
 637 803 l 1
 540 695 l 1
 319 695 l 1
 317 695 l 1
 293 695 l 1
 191 803 l 1x19
242 270 m 1
 208 297 l 1
 278 350 l 1
 551 350 l 1
 621 297 l 1
 551 242 l 1
 278 242 l 1
 242 270 l 1
163 278 m 1
 270 174 l 1
 270 150 l 1
 270 -71 l 1
 163 -169 l 1x51
 163 37 l 2
 163 39 163 41 163 43 c 0
 163 49 163 53 163 59 c 2
 163 278 l 1
192 -213 m 1x91
 295 -105 l 1
 542 -105 l 1
 640 -213 l 1
 433 -213 l 2
 431 -213 430 -213 428 -213 c 0
 422 -213 418 -213 412 -213 c 2
 192 -213 l 1x91
EndSplineSet
EndChar

StartChar: Eacute
Encoding: 201 201 94
Width: 800
VWidth: 0
Flags: HW
HStem: -213 108<295 542> -169 21G<163 184> -169 21G<163 184> 242 108<278 551> 695 108<293 317 319 320 410 540> 740 20G<160 183> 740 20G<160 183>
VStem: 163 108<-71 174 415 663>
LayerCount: 2
Back
Fore
SplineSet
443 959 m 5x11
 553 895 l 5
 430 683 l 5
 320 745 l 5
 443 959 l 5x11
160 313 m 1
 160 531 l 2
 160 537 160 542 160 548 c 0
 160 550 160 550 160 552 c 2
 160 760 l 1x15
 267 663 l 1
 267 440 l 1
 267 415 l 1
 160 313 l 1
191 803 m 1x19
 410 803 l 2
 416 803 420 803 426 803 c 0
 428 803 428 803 430 803 c 2
 637 803 l 1
 540 695 l 1
 319 695 l 1
 317 695 l 1
 293 695 l 1
 191 803 l 1x19
242 270 m 1
 208 297 l 1
 278 350 l 1
 551 350 l 1
 621 297 l 1
 551 242 l 1
 278 242 l 1
 242 270 l 1
163 278 m 1
 270 174 l 1
 270 150 l 1
 270 -71 l 1
 163 -169 l 1x51
 163 37 l 2
 163 39 163 41 163 43 c 0
 163 49 163 53 163 59 c 2
 163 278 l 1
192 -213 m 1x91
 295 -105 l 1
 542 -105 l 1
 640 -213 l 1
 433 -213 l 2
 431 -213 430 -213 428 -213 c 0
 422 -213 418 -213 412 -213 c 2
 192 -213 l 1x91
EndSplineSet
EndChar

StartChar: Ecircumflex
Encoding: 202 202 95
Width: 800
VWidth: 0
Flags: HW
HStem: -213 108<295 542> -169 21G<163 184> -169 21G<163 184> 242 108<278 551> 695 108<293 317 319 540> 740 20G<160 183> 740 20G<160 183>
VStem: 163 108<-71 174 415 663>
LayerCount: 2
Back
Fore
SplineSet
393 948 m 5x11
 291 840 l 5
 510 840 l 6
 516 840 520 840 526 840 c 4
 528 840 528 840 530 840 c 6
 537 840 l 5
 440 948 l 5
 393 948 l 5x11
160 313 m 1
 160 531 l 2
 160 537 160 542 160 548 c 0
 160 550 160 550 160 552 c 2
 160 760 l 1x15
 267 663 l 1
 267 440 l 1
 267 415 l 1
 160 313 l 1
191 803 m 1x19
 410 803 l 2
 416 803 420 803 426 803 c 0
 428 803 428 803 430 803 c 2
 637 803 l 1
 540 695 l 1
 319 695 l 1
 317 695 l 1
 293 695 l 1
 191 803 l 1x19
242 270 m 1
 208 297 l 1
 278 350 l 1
 551 350 l 1
 621 297 l 1
 551 242 l 1
 278 242 l 1
 242 270 l 1
163 278 m 1
 270 174 l 1
 270 150 l 1
 270 -71 l 1
 163 -169 l 1x51
 163 37 l 2
 163 39 163 41 163 43 c 0
 163 49 163 53 163 59 c 2
 163 278 l 1
192 -213 m 1x91
 295 -105 l 1
 542 -105 l 1
 640 -213 l 1
 433 -213 l 2
 431 -213 430 -213 428 -213 c 0
 422 -213 418 -213 412 -213 c 2
 192 -213 l 1x91
EndSplineSet
EndChar

StartChar: Agrave
Encoding: 192 192 96
Width: 800
VWidth: 0
Flags: HW
HStem: -169 21G<147 169 635 656> -169 21G<147 169 635 656> 242 108<263 536> 695 108<279 303 303 394> 740 20G<144 166 633 653> 740 20G<144 166 633 653>
VStem: 147 108<-71 174 415 663> 548 108<-66 180 410 633 633 657>
LayerCount: 2
Back
Fore
SplineSet
414 959 m 5x23
 305 895 l 5
 428 683 l 5
 537 745 l 5
 414 959 l 5x23
653 760 m 1x2b
 653 541 l 2
 653 535 653 532 653 526 c 0
 653 524 653 522 653 520 c 2
 653 313 l 1
 545 410 l 1
 545 633 l 1
 545 657 l 1
 653 760 l 1x2b
144 313 m 1
 144 531 l 2
 144 537 144 542 144 548 c 0
 144 550 144 550 144 552 c 2
 144 760 l 1
 252 663 l 1
 252 440 l 1
 252 415 l 1
 144 313 l 1
176 803 m 1x33
 394 803 l 2
 400 803 404 803 410 803 c 0
 412 803 413 803 415 803 c 2
 623 803 l 1
 524 695 l 1
 303 695 l 1
 279 695 l 1
 176 803 l 1x33
228 270 m 1
 192 297 l 1
 263 350 l 1
 536 350 l 1
 606 297 l 1
 536 242 l 1
 263 242 l 1
 228 270 l 1
656 -169 m 1xa3
 548 -66 l 1
 548 -42 l 1
 548 180 l 1
 656 278 l 1
 656 70 l 2
 656 68 656 67 656 65 c 0
 656 59 656 55 656 49 c 2
 656 -169 l 1xa3
147 278 m 1
 255 174 l 1
 255 150 l 1
 255 -71 l 1
 147 -169 l 1
 147 37 l 2
 147 39 147 41 147 43 c 0
 147 49 147 53 147 59 c 2
 147 278 l 1
EndSplineSet
EndChar

StartChar: Aacute
Encoding: 193 193 97
Width: 800
VWidth: 0
Flags: HW
HStem: -169 21G<147 169 635 656> -169 21G<147 169 635 656> 242 108<263 536> 695 108<279 303 303 305 394 524> 740 20G<144 166 633 653> 740 20G<144 166 633 653>
VStem: 147 108<-71 174 415 663> 548 108<-66 180 410 633 633 657>
LayerCount: 2
Back
Fore
SplineSet
428 959 m 5x23
 537 895 l 5
 414 683 l 5
 305 745 l 5
 428 959 l 5x23
653 760 m 1x2b
 653 541 l 2
 653 535 653 532 653 526 c 0
 653 524 653 522 653 520 c 2
 653 313 l 1
 545 410 l 1
 545 633 l 1
 545 657 l 1
 653 760 l 1x2b
144 313 m 1
 144 531 l 2
 144 537 144 542 144 548 c 0
 144 550 144 550 144 552 c 2
 144 760 l 1
 252 663 l 1
 252 440 l 1
 252 415 l 1
 144 313 l 1
176 803 m 1x33
 394 803 l 2
 400 803 404 803 410 803 c 0
 412 803 413 803 415 803 c 2
 623 803 l 1
 524 695 l 1
 303 695 l 1
 279 695 l 1
 176 803 l 1x33
228 270 m 1
 192 297 l 1
 263 350 l 1
 536 350 l 1
 606 297 l 1
 536 242 l 1
 263 242 l 1
 228 270 l 1
656 -169 m 1xa3
 548 -66 l 1
 548 -42 l 1
 548 180 l 1
 656 278 l 1
 656 70 l 2
 656 68 656 67 656 65 c 0
 656 59 656 55 656 49 c 2
 656 -169 l 1xa3
147 278 m 1
 255 174 l 1
 255 150 l 1
 255 -71 l 1
 147 -169 l 1
 147 37 l 2
 147 39 147 41 147 43 c 0
 147 49 147 53 147 59 c 2
 147 278 l 1
EndSplineSet
EndChar

StartChar: Acircumflex
Encoding: 194 194 98
Width: 800
VWidth: 0
Flags: HW
HStem: -169 21G<147 169 635 656> -169 21G<147 169 635 656> 242 108<263 536> 695 108<279 303 303 524> 740 20G<144 166 633 653> 740 20G<144 166 633 653>
VStem: 147 108<-71 174 415 663> 548 108<-66 180 410 633 633 657>
LayerCount: 2
Back
Fore
SplineSet
379 948 m 5x23
 276 840 l 5
 494 840 l 6
 500 840 504 840 510 840 c 4
 512 840 513 840 515 840 c 6
 523 840 l 5
 424 948 l 5
 379 948 l 5x23
653 760 m 1x2b
 653 541 l 2
 653 535 653 532 653 526 c 0
 653 524 653 522 653 520 c 2
 653 313 l 1
 545 410 l 1
 545 633 l 1
 545 657 l 1
 653 760 l 1x2b
144 313 m 1
 144 531 l 2
 144 537 144 542 144 548 c 0
 144 550 144 550 144 552 c 2
 144 760 l 1
 252 663 l 1
 252 440 l 1
 252 415 l 1
 144 313 l 1
176 803 m 1x33
 394 803 l 2
 400 803 404 803 410 803 c 0
 412 803 413 803 415 803 c 2
 623 803 l 1
 524 695 l 1
 303 695 l 1
 279 695 l 1
 176 803 l 1x33
228 270 m 1
 192 297 l 1
 263 350 l 1
 536 350 l 1
 606 297 l 1
 536 242 l 1
 263 242 l 1
 228 270 l 1
656 -169 m 1xa3
 548 -66 l 1
 548 -42 l 1
 548 180 l 1
 656 278 l 1
 656 70 l 2
 656 68 656 67 656 65 c 0
 656 59 656 55 656 49 c 2
 656 -169 l 1xa3
147 278 m 1
 255 174 l 1
 255 150 l 1
 255 -71 l 1
 147 -169 l 1
 147 37 l 2
 147 39 147 41 147 43 c 0
 147 49 147 53 147 59 c 2
 147 278 l 1
EndSplineSet
EndChar

StartChar: Atilde
Encoding: 195 195 99
Width: 800
VWidth: 0
Flags: HW
HStem: -169 21G<147 169 635 656> -169 21G<147 169 635 656> 242 108<263 536> 695 108<279 303 303 524> 740 20G<144 166 633 653> 740 20G<144 166 633 653> 842 108<263 536>
VStem: 147 108<-71 174 415 663> 548 108<-66 180 410 633 633 657>
LayerCount: 2
Back
Fore
SplineSet
228 870 m 5x2380
 192 897 l 5
 263 950 l 5
 536 950 l 5
 606 897 l 5
 536 842 l 5
 263 842 l 5
 228 870 l 5x2380
653 760 m 1x2b80
 653 541 l 2
 653 535 653 532 653 526 c 0
 653 524 653 522 653 520 c 2
 653 313 l 1
 545 410 l 1
 545 633 l 1
 545 657 l 1
 653 760 l 1x2b80
144 313 m 1
 144 531 l 2
 144 537 144 542 144 548 c 0
 144 550 144 550 144 552 c 2
 144 760 l 1
 252 663 l 1
 252 440 l 1
 252 415 l 1
 144 313 l 1
176 803 m 1x3380
 394 803 l 2
 400 803 404 803 410 803 c 0
 412 803 413 803 415 803 c 2
 623 803 l 1
 524 695 l 1
 303 695 l 1
 279 695 l 1
 176 803 l 1x3380
228 270 m 1
 192 297 l 1
 263 350 l 1
 536 350 l 1
 606 297 l 1
 536 242 l 1
 263 242 l 1
 228 270 l 1
656 -169 m 1xa380
 548 -66 l 1
 548 -42 l 1
 548 180 l 1
 656 278 l 1
 656 70 l 2
 656 68 656 67 656 65 c 0
 656 59 656 55 656 49 c 2
 656 -169 l 1xa380
147 278 m 1
 255 174 l 1
 255 150 l 1
 255 -71 l 1
 147 -169 l 1
 147 37 l 2
 147 39 147 41 147 43 c 0
 147 49 147 53 147 59 c 2
 147 278 l 1
EndSplineSet
EndChar

StartChar: Adieresis
Encoding: 196 196 100
Width: 800
VWidth: 0
Flags: HW
HStem: -169 21G<147 169 635 656> -169 21G<147 169 635 656> 242 108<263 536> 695 108<279 303 303 524> 740 20G<144 166 633 653> 740 20G<144 166 633 653> 852 63<305 371 424 491>
VStem: 147 108<-71 174 415 663> 305 65<852 914> 424 65<852 914> 548 108<-66 180 410 633 633 657>
LayerCount: 2
Back
SplineSet
830.625976562 760.124023438 m 1
 830.625976562 760.063476562 l 1
 830.625976562 541.1875 l 2
 830.625976562 535.561523438 830.5625 530.8125 830.5625 525.25 c 0
 830.5625 523.5 830.5625 522 830.5625 520.25 c 2
 830.5625 312.4375 l 1
 722.813476562 410.436523438 l 1
 722.813476562 632.375 l 1
 722.875 632.436523438 l 1
 722.875 656.875 l 1
 830.625976562 760.124023438 l 1
321.499023438 312.5 m 1
 321.499023438 312.5625 l 1
 321.499023438 531.4375 l 2
 321.499023438 537.0625 321.563476562 541.811523438 321.563476562 547.375976562 c 0
 321.563476562 549.125976562 321.563476562 550.625 321.563476562 552.375976562 c 2
 321.563476562 760.124023438 l 1
 429.311523438 662.124023438 l 1
 429.311523438 440.1875 l 1
 429.250976562 440.1875 l 1
 429.250976562 415.75 l 1
 321.499023438 312.5 l 1
352.25 803.0625 m 1
 352.3125 803.0625 l 1
 571.1875 803.0625 l 2
 576.8125 803.0625 581.5625 803 587.124023438 803 c 0
 588.875 803 590.374023438 803 592.124023438 803 c 2
 799.936523438 803 l 1
 701.9375 695.25 l 1
 480 695.25 l 1
 479.9375 695.3125 l 1
 455.500976562 695.3125 l 1
 352.25 803.0625 l 1
404.375976562 269.6875 m 1
 369.5 296.625 l 1
 439.25 350.500976562 l 1
 712.875 350.500976562 l 1
 782.625 296.625 l 1
 712.875 242.75 l 1
 439.25 242.75 l 1
 404.375976562 269.6875 l 1
832.500976562 -169.438476562 m 1
 724.749023438 -66.1875 l 1
 724.749023438 -41.75 l 1
 724.688476562 -41.75 l 1
 724.688476562 180.188476562 l 1
 832.436523438 278.1875 l 1
 832.436523438 70.375 l 2
 832.436523438 68.625 832.436523438 67.125 832.436523438 65.375 c 0
 832.436523438 59.8125 832.500976562 55.0634765625 832.500976562 49.4375 c 2
 832.500976562 -169.438476562 l 1
323.374023438 278.1875 m 1
 431.125 174.9375 l 1
 431.125 150.500976562 l 1
 431.186523438 150.500976562 l 1
 431.186523438 -71.4375 l 1
 323.4375 -169.438476562 l 1
 323.4375 38.3134765625 l 2
 323.4375 40.0625 323.4375 41.5625 323.4375 43.3125 c 0
 323.4375 48.875 323.374023438 53.6259765625 323.374023438 59.25 c 2
 323.374023438 278.125 l 1
 323.374023438 278.1875 l 1
EndSplineSet
Fore
SplineSet
424 914 m 5x23e0
 491 914 l 5
 491 852 l 5
 424 852 l 5
 424 914 l 5x23e0
305 914 m 5
 371 914 l 5
 371 852 l 5
 305 852 l 5
 305 914 l 5
653 760 m 1x2be0
 653 541 l 2
 653 535 653 532 653 526 c 0
 653 524 653 522 653 520 c 2
 653 313 l 1
 545 410 l 1
 545 633 l 1
 545 657 l 1
 653 760 l 1x2be0
144 313 m 1
 144 531 l 2
 144 537 144 542 144 548 c 0
 144 550 144 550 144 552 c 2
 144 760 l 1
 252 663 l 1
 252 440 l 1
 252 415 l 1
 144 313 l 1
176 803 m 1x33e0
 394 803 l 2
 400 803 404 803 410 803 c 0
 412 803 413 803 415 803 c 2
 623 803 l 1
 524 695 l 1
 303 695 l 1
 279 695 l 1
 176 803 l 1x33e0
228 270 m 1
 192 297 l 1
 263 350 l 1
 536 350 l 1
 606 297 l 1
 536 242 l 1
 263 242 l 1
 228 270 l 1
656 -169 m 1xa3e0
 548 -66 l 1
 548 -42 l 1
 548 180 l 1
 656 278 l 1
 656 70 l 2
 656 68 656 67 656 65 c 0
 656 59 656 55 656 49 c 2
 656 -169 l 1xa3e0
147 278 m 1
 255 174 l 1
 255 150 l 1
 255 -71 l 1
 147 -169 l 1
 147 37 l 2
 147 39 147 41 147 43 c 0
 147 49 147 53 147 59 c 2
 147 278 l 1
EndSplineSet
EndChar

StartChar: Aring
Encoding: 197 197 101
Width: 800
VWidth: 0
Flags: HW
HStem: -169 21G<147 169 635 656> -169 21G<147 169 635 656> 242 108<263 536> 695 108<279 303 303 524> 740 20G<144 166 633 653> 740 20G<144 166 633 653> 847 127<358 485>
VStem: 147 108<-71 174 415 663> 358 127<847 974> 548 108<-66 180 410 633 633 657>
LayerCount: 2
Back
Fore
SplineSet
358 974 m 5x23c0
 485 974 l 5
 485 847 l 5
 358 847 l 5
 358 974 l 5x23c0
653 760 m 1x2bc0
 653 541 l 2
 653 535 653 532 653 526 c 0
 653 524 653 522 653 520 c 2
 653 313 l 1
 545 410 l 1
 545 633 l 1
 545 657 l 1
 653 760 l 1x2bc0
144 313 m 1
 144 531 l 2
 144 537 144 542 144 548 c 0
 144 550 144 550 144 552 c 2
 144 760 l 1
 252 663 l 1
 252 440 l 1
 252 415 l 1
 144 313 l 1
176 803 m 1x33c0
 394 803 l 2
 400 803 404 803 410 803 c 0
 412 803 413 803 415 803 c 2
 623 803 l 1
 524 695 l 1
 303 695 l 1
 279 695 l 1
 176 803 l 1x33c0
228 270 m 1
 192 297 l 1
 263 350 l 1
 536 350 l 1
 606 297 l 1
 536 242 l 1
 263 242 l 1
 228 270 l 1
656 -169 m 1xa3c0
 548 -66 l 1
 548 -42 l 1
 548 180 l 1
 656 278 l 1
 656 70 l 2
 656 68 656 67 656 65 c 0
 656 59 656 55 656 49 c 2
 656 -169 l 1xa3c0
147 278 m 1
 255 174 l 1
 255 150 l 1
 255 -71 l 1
 147 -169 l 1
 147 37 l 2
 147 39 147 41 147 43 c 0
 147 49 147 53 147 59 c 2
 147 278 l 1
EndSplineSet
EndChar

StartChar: asciicircum
Encoding: 94 94 102
Width: 800
VWidth: 0
Flags: HW
LayerCount: 2
Back
Fore
SplineSet
379 778 m 5
 277 670 l 5
 495 670 l 6
 501 670 506 670 512 670 c 4
 514 670 513 670 515 670 c 6
 523 670 l 5
 426 778 l 5
 379 778 l 5
EndSplineSet
EndChar

StartChar: bar
Encoding: 124 124 103
Width: 800
VWidth: 0
Flags: HW
HStem: 740 20G<434 455> 740 20G<434 455>
VStem: 345 108<-60 633 633 657>
LayerCount: 2
Back
Fore
SplineSet
455 760 m 5xa0
 455 541 l 6
 455 535 453 532 453 526 c 4
 453 524 453 522 453 520 c 6
 453 -158 l 5
 345 -60 l 5
 345 633 l 5
 347 633 l 5
 347 657 l 5
 455 760 l 5xa0
EndSplineSet
EndChar

StartChar: comma
Encoding: 44 44 104
Width: 100
VWidth: 0
Flags: HW
HStem: -34 127<0 127>
VStem: 0 127<-34 94>
LayerCount: 2
Back
Fore
SplineSet
128 -67 m 5
 5 -118 7 -441 1 -67 c 4
 128 -67 l 5
0 94 m 5
 127 94 l 5
 127 -34 l 5
 0 -34 l 5
 0 94 l 5
EndSplineSet
EndChar

StartChar: backslash
Encoding: 92 92 105
Width: 800
VWidth: 0
Flags: HW
HStem: 767 20G<228 237> 767 20G<228 237>
LayerCount: 2
Back
Fore
SplineSet
228 536 m 1x40
 228 787 l 1
 572 110 l 1
 572 -144 l 1
 228 536 l 1x40
EndSplineSet
EndChar

StartChar: slash
Encoding: 47 47 106
Width: 800
VWidth: 0
Flags: HW
LayerCount: 2
Back
Fore
SplineSet
572 536 m 1
 572 787 l 1
 228 110 l 1
 228 -144 l 1
 572 536 l 1
EndSplineSet
EndChar

StartChar: divide
Encoding: 247 247 107
Width: 800
VWidth: 0
Flags: HW
HStem: 137 66<367 435> 242 108<263 537> 387 66<367 435>
VStem: 367 66<137 205 387 455>
LayerCount: 2
Back
Fore
SplineSet
367 455 m 1
 435 455 l 1
 435 387 l 1
 367 387 l 1
 367 455 l 1
367 205 m 1
 435 205 l 1
 435 137 l 5
 367 137 l 5
 367 205 l 1
228 270 m 1
 193 297 l 1
 263 350 l 1
 537 350 l 1
 607 297 l 1
 537 242 l 1
 263 242 l 1
 228 270 l 1
EndSplineSet
EndChar

StartChar: asciitilde
Encoding: 126 126 108
Width: 800
VWidth: 0
Flags: HW
HStem: 242 108<263 537>
LayerCount: 2
Back
Fore
SplineSet
228 270 m 5
 193 297 l 5
 263 350 l 5
 537 350 l 5
 607 297 l 5
 537 242 l 5
 263 242 l 5
 228 270 l 5
EndSplineSet
EndChar

StartChar: x
Encoding: 120 120 109
Width: 800
VWidth: 0
Flags: HW
HStem: 728 20G<103 119.78>
LayerCount: 2
Back
Fore
SplineSet
697 565 m 1
 697 748 l 1
 103 40 l 5
 103 -144 l 5
 697 565 l 1
103 565 m 5
 103 748 l 5
 697 40 l 1
 697 -144 l 1
 103 565 l 5
EndSplineSet
EndChar

StartChar: y
Encoding: 121 121 110
Width: 800
VWidth: 0
Flags: HW
HStem: 758 20G<178 197> 758 20G<178 197>
LayerCount: 2
Back
Fore
SplineSet
622 595 m 1x40
 622 778 l 1
 178 50 l 5
 178 -135 l 5
 622 595 l 1x40
178 586 m 1
 178 778 l 1
 422 510 l 1
 422 326 l 1
 178 586 l 1
EndSplineSet
EndChar

StartChar: question
Encoding: 63 63 111
Width: 800
VWidth: 0
Flags: HW
HStem: 242 108<383 521> 695 108<264 288 288 510> 740 20G<617 638> 740 20G<617 638>
VStem: 265 108<38 174> 531 108<410 633 633 657>
LayerCount: 2
Back
Fore
SplineSet
284 -160 m 5x8c
 248 -134 l 5
 317 -80 l 5
 321 -80 l 5
 391 -134 l 5
 321 -187 l 5
 317 -187 l 5
 284 -160 l 5x8c
638 760 m 1xac
 638 541 l 2
 638 535 638 532 638 526 c 0
 638 524 638 522 638 520 c 2
 638 313 l 1
 531 410 l 1
 531 633 l 1
 531 657 l 1
 638 760 l 1xac
162 803 m 1xcc
 380 803 l 2
 386 803 389 803 395 803 c 0
 397 803 399 803 401 803 c 2
 609 803 l 1
 510 695 l 1
 288 695 l 1
 264 695 l 1
 162 803 l 1xcc
347 270 m 1
 313 297 l 1
 383 350 l 1
 521 350 l 1
 591 297 l 1
 521 242 l 1
 383 242 l 1
 347 270 l 1
265 278 m 1
 373 174 l 1
 373 150 l 1
 373 38 l 5
 265 -59 l 5
 265 37 l 2
 265 39 265 41 265 43 c 0
 265 49 265 53 265 59 c 2
 265 278 l 1
EndSplineSet
EndChar

StartChar: questiondown
Encoding: 191 191 112
Width: 800
VWidth: 0
Flags: HW
HStem: -187 108<290 512 512 536> 265 108<279 417> 784 20G<452 508> 784 20G<452 508>
VStem: 162 108<-41 -16 -16 206> 427 108<441 578>
LayerCount: 2
Back
Fore
SplineSet
516 777 m 5xec
 552 749 l 5
 483 695 l 5
 479 695 l 5
 409 749 l 5
 479 803 l 5
 483 803 l 5
 516 777 l 5xec
162 -144 m 5
 162 74 l 6
 162 80 162 85 162 91 c 4
 162 93 162 93 162 95 c 6
 162 303 l 5
 269 206 l 5
 269 -16 l 5
 269 -41 l 5
 162 -144 l 5
638 -187 m 5
 420 -187 l 6
 414 -187 411 -187 405 -187 c 4
 403 -187 401 -187 399 -187 c 6
 191 -187 l 5
 290 -79 l 5
 512 -79 l 5
 512 -80 l 5
 536 -80 l 5
 638 -187 l 5
453 347 m 5
 487 319 l 5
 417 265 l 5
 279 265 l 5
 209 319 l 5
 279 373 l 5
 417 373 l 5
 453 347 l 5
535 337 m 5
 427 441 l 5
 427 465 l 5
 427 578 l 5
 535 676 l 5
 535 578 l 6
 535 576 535 574 535 572 c 4
 535 566 535 563 535 557 c 6
 535 337 l 5
EndSplineSet
EndChar

StartChar: oslash
Encoding: 248 248 113
Width: 800
VWidth: 0
Flags: HW
HStem: -213 108<283 529> -169 21G<149 170 637 658> -169 21G<149 170 637 658> 695 108<281 305 306 527> 740 20G<147 169 635 656> 740 20G<147 169 635 656>
VStem: 149 108<415 663> 550 108<-66 180 541 633 633 657>
LayerCount: 2
Back
Fore
SplineSet
692 486 m 1x03
 692 667 l 1
 108 110 l 5
 108 -74 l 5
 692 486 l 1x03
656 760 m 1x0b
 656 541 l 2
 656 535 656 532 656 526 c 0
 656 524 656 522 656 520 c 2
 656 313 l 1
 548 410 l 1
 548 633 l 1
 548 657 l 1
 656 760 l 1x0b
147 313 m 1
 147 531 l 2
 147 537 147 542 147 548 c 0
 147 550 147 550 147 552 c 2
 147 760 l 1
 255 663 l 1
 255 440 l 1
 255 415 l 1
 147 313 l 1
178 803 m 1x13
 397 803 l 2
 403 803 407 803 413 803 c 0
 415 803 414 803 416 803 c 2
 624 803 l 1
 527 695 l 1
 306 695 l 1
 305 695 l 1
 281 695 l 1
 178 803 l 1x13
658 -169 m 1x43
 550 -66 l 1
 550 -42 l 1
 550 180 l 1
 658 278 l 1
 658 70 l 2
 658 68 658 67 658 65 c 0
 658 59 658 55 658 49 c 2
 658 -169 l 1x43
149 278 m 1
 257 174 l 1
 257 150 l 1
 257 -71 l 1
 149 -169 l 1
 149 37 l 2
 149 39 149 41 149 43 c 0
 149 49 149 53 149 59 c 2
 149 278 l 1
179 -213 m 1x83
 283 -105 l 1
 529 -105 l 1
 627 -213 l 1
 419 -213 l 2
 417 -213 416 -213 414 -213 c 0
 408 -213 404 -213 398 -213 c 2
 179 -213 l 1x83
EndSplineSet
EndChar

StartChar: Oslash
Encoding: 216 216 114
Width: 800
VWidth: 0
Flags: HW
HStem: -213 108<283 529> -169 21G<149 170 637 658> -169 21G<149 170 637 658> 695 108<281 305 306 527> 740 20G<147 169 635 656> 740 20G<147 169 635 656>
VStem: 149 108<415 663> 550 108<-66 180 541 633 633 657>
LayerCount: 2
Back
Fore
SplineSet
692 486 m 1x03
 692 667 l 1
 108 110 l 5
 108 -74 l 5
 692 486 l 1x03
656 760 m 1x0b
 656 541 l 2
 656 535 656 532 656 526 c 0
 656 524 656 522 656 520 c 2
 656 313 l 1
 548 410 l 1
 548 633 l 1
 548 657 l 1
 656 760 l 1x0b
147 313 m 1
 147 531 l 2
 147 537 147 542 147 548 c 0
 147 550 147 550 147 552 c 2
 147 760 l 1
 255 663 l 1
 255 440 l 1
 255 415 l 1
 147 313 l 1
178 803 m 1x13
 397 803 l 2
 403 803 407 803 413 803 c 0
 415 803 414 803 416 803 c 2
 624 803 l 1
 527 695 l 1
 306 695 l 1
 305 695 l 1
 281 695 l 1
 178 803 l 1x13
658 -169 m 1x43
 550 -66 l 1
 550 -42 l 1
 550 180 l 1
 658 278 l 1
 658 70 l 2
 658 68 658 67 658 65 c 0
 658 59 658 55 658 49 c 2
 658 -169 l 1x43
149 278 m 1
 257 174 l 1
 257 150 l 1
 257 -71 l 1
 149 -169 l 1
 149 37 l 2
 149 39 149 41 149 43 c 0
 149 49 149 53 149 59 c 2
 149 278 l 1
179 -213 m 1x83
 283 -105 l 1
 529 -105 l 1
 627 -213 l 1
 419 -213 l 2
 417 -213 416 -213 414 -213 c 0
 408 -213 404 -213 398 -213 c 2
 179 -213 l 1x83
EndSplineSet
EndChar

StartChar: multiply
Encoding: 215 215 115
Width: 800
VWidth: 0
Flags: HW
LayerCount: 2
Back
Fore
SplineSet
622 486 m 5
 622 667 l 5
 178 110 l 5
 178 -74 l 5
 622 486 l 5
178 486 m 1
 178 667 l 1
 622 110 l 1
 622 -74 l 1
 178 486 l 1
EndSplineSet
EndChar

StartChar: yacute
Encoding: 253 253 116
Width: 800
VWidth: 0
Flags: HW
HStem: 758 20G<178 197> 758 20G<178 197>
LayerCount: 2
Back
Fore
SplineSet
430 959 m 5x00
 540 895 l 5
 416 683 l 5
 307 745 l 5
 430 959 l 5x00
622 595 m 1
 622 778 l 1x40
 178 50 l 1
 178 -135 l 1
 622 595 l 1
178 586 m 1
 178 778 l 1
 422 510 l 1
 422 326 l 1
 178 586 l 1
EndSplineSet
EndChar

StartChar: ydieresis
Encoding: 255 255 117
Width: 800
VWidth: 0
Flags: HW
HStem: 758 20G<178 197> 758 20G<178 197> 852 63<307 373 427 493>
VStem: 307 65<852 914> 427 65<852 914>
LayerCount: 2
Back
Fore
SplineSet
427 914 m 5x38
 493 914 l 5
 493 852 l 5
 427 852 l 5
 427 914 l 5x38
307 914 m 5
 373 914 l 5
 373 852 l 5
 307 852 l 5
 307 914 l 5
622 595 m 1
 622 778 l 1x78
 178 50 l 1
 178 -135 l 1
 622 595 l 1
178 586 m 1
 178 778 l 1
 422 510 l 1
 422 326 l 1
 178 586 l 1
EndSplineSet
EndChar

StartChar: Yacute
Encoding: 221 221 118
Width: 800
VWidth: 0
Flags: HW
HStem: 758 20G<178 197> 758 20G<178 197>
LayerCount: 2
Back
Fore
SplineSet
430 959 m 5x00
 540 895 l 5
 416 683 l 5
 307 745 l 5
 430 959 l 5x00
622 595 m 1
 622 778 l 1x40
 178 50 l 1
 178 -135 l 1
 622 595 l 1
178 586 m 1
 178 778 l 1
 422 510 l 1
 422 326 l 1
 178 586 l 1
EndSplineSet
EndChar

StartChar: exclamdown
Encoding: 161 161 119
Width: 800
VWidth: 0
Flags: HW
HStem: -169 21G<435 455> -169 21G<435 455> 740 20G<433 453> 740 20G<433 453>
VStem: 347 108<-66 180 410 633 633 657>
LayerCount: 2
Back
Fore
SplineSet
453 760 m 1x28
 453 541 l 2
 453 535 453 532 453 526 c 0
 453 524 453 522 453 520 c 2
 453 313 l 1
 345 410 l 1
 345 633 l 1
 345 657 l 1
 453 760 l 1x28
455 -169 m 1x88
 347 -66 l 1
 347 -42 l 1
 347 180 l 1
 455 278 l 1
 455 70 l 2
 455 68 455 67 455 65 c 0
 455 59 455 55 455 49 c 2
 455 -169 l 1x88
EndSplineSet
EndChar

StartChar: X
Encoding: 88 88 120
Width: 800
VWidth: 0
Flags: HW
HStem: 728 20G<103 120>
LayerCount: 2
Back
Fore
SplineSet
697 565 m 1
 697 748 l 1
 103 40 l 5
 103 -144 l 5
 697 565 l 1
103 565 m 5
 103 748 l 5
 697 40 l 1
 697 -144 l 1
 103 565 l 5
EndSplineSet
EndChar

StartChar: Y
Encoding: 89 89 121
Width: 800
VWidth: 0
Flags: HW
HStem: 758 20G<178 197> 758 20G<178 197>
LayerCount: 2
Back
Fore
SplineSet
622 595 m 1x40
 622 778 l 1
 178 50 l 5
 178 -135 l 5
 622 595 l 1x40
178 586 m 1
 178 778 l 1
 422 510 l 1
 422 326 l 1
 178 586 l 1
EndSplineSet
EndChar

StartChar: Z
Encoding: 90 90 122
Width: 800
VWidth: 0
Flags: HW
HStem: -152 108<280 527> 656 108<279 303 303 524>
LayerCount: 2
Back
Fore
SplineSet
620 486 m 1
 620 667 l 1
 176 110 l 1
 176 -74 l 1
 620 486 l 1
176 763 m 1
 394 763 l 2
 400 763 404 763 410 763 c 0
 412 763 413 763 415 763 c 2
 623 763 l 1
 524 656 l 1
 303 656 l 1
 279 656 l 1
 176 763 l 1
177 -152 m 5
 280 -44 l 5
 527 -44 l 5
 624 -152 l 5
 416 -152 l 6
 414 -152 415 -152 413 -152 c 4
 407 -152 401 -152 395 -152 c 6
 177 -152 l 5
EndSplineSet
EndChar

StartChar: Q
Encoding: 81 81 123
Width: 800
VWidth: 0
Flags: HW
HStem: -213 108<280 527> -169 21G<147 169 635 656> -169 21G<147 169 635 656> 695 108<279 303 303 524> 740 20G<144 166 633 653> 740 20G<144 166 633 653>
VStem: 147 108<-71 174 415 663> 548 108<-66 180 410 633 633 657>
LayerCount: 2
Back
Fore
SplineSet
476 -63 m 5x03
 327 -59 l 5
 481 95 l 6
 486 100 487 102 492 107 c 4
 493 108 494 111 495 112 c 6
 501 116 l 5
 509 -29 l 5
 476 -63 l 5x03
653 760 m 1x0b
 653 541 l 2
 653 535 653 532 653 526 c 0
 653 524 653 522 653 520 c 2
 653 313 l 1
 545 410 l 1
 545 633 l 1
 545 657 l 1
 653 760 l 1x0b
144 313 m 1
 144 531 l 2
 144 537 144 542 144 548 c 0
 144 550 144 550 144 552 c 2
 144 760 l 1
 252 663 l 1
 252 440 l 1
 252 415 l 1
 144 313 l 1
176 803 m 1x13
 394 803 l 2
 400 803 404 803 410 803 c 0
 412 803 413 803 415 803 c 2
 623 803 l 1
 524 695 l 1
 303 695 l 1
 279 695 l 1
 176 803 l 1x13
656 -169 m 1x43
 548 -66 l 1
 548 -42 l 1
 548 180 l 1
 656 278 l 1
 656 70 l 2
 656 68 656 67 656 65 c 0
 656 59 656 55 656 49 c 2
 656 -169 l 1x43
147 278 m 1
 255 174 l 1
 255 150 l 1
 255 -71 l 1
 147 -169 l 1
 147 37 l 2
 147 39 147 41 147 43 c 0
 147 49 147 53 147 59 c 2
 147 278 l 1
177 -213 m 1x83
 280 -105 l 1
 527 -105 l 1
 624 -213 l 1
 416 -213 l 2
 414 -213 415 -213 413 -213 c 0
 407 -213 401 -213 395 -213 c 2
 177 -213 l 1x83
EndSplineSet
EndChar

StartChar: q
Encoding: 113 113 124
Width: 800
VWidth: 0
Flags: HW
HStem: -213 108<280 527> -169 21G<147 169 635 656> -169 21G<147 169 635 656> 695 108<279 303 303 524> 740 20G<144 166 633 653> 740 20G<144 166 633 653>
VStem: 147 108<-71 174 415 663> 548 108<-66 180 410 633 633 657>
LayerCount: 2
Back
Fore
SplineSet
476 -63 m 5x03
 327 -59 l 5
 481 95 l 6
 486 100 487 102 492 107 c 4
 493 108 494 111 495 112 c 6
 501 116 l 5
 509 -29 l 5
 476 -63 l 5x03
653 760 m 1x0b
 653 541 l 2
 653 535 653 532 653 526 c 0
 653 524 653 522 653 520 c 2
 653 313 l 1
 545 410 l 1
 545 633 l 1
 545 657 l 1
 653 760 l 1x0b
144 313 m 1
 144 531 l 2
 144 537 144 542 144 548 c 0
 144 550 144 550 144 552 c 2
 144 760 l 1
 252 663 l 1
 252 440 l 1
 252 415 l 1
 144 313 l 1
176 803 m 1x13
 394 803 l 2
 400 803 404 803 410 803 c 0
 412 803 413 803 415 803 c 2
 623 803 l 1
 524 695 l 1
 303 695 l 1
 279 695 l 1
 176 803 l 1x13
656 -169 m 1x43
 548 -66 l 1
 548 -42 l 1
 548 180 l 1
 656 278 l 1
 656 70 l 2
 656 68 656 67 656 65 c 0
 656 59 656 55 656 49 c 2
 656 -169 l 1x43
147 278 m 1
 255 174 l 1
 255 150 l 1
 255 -71 l 1
 147 -169 l 1
 147 37 l 2
 147 39 147 41 147 43 c 0
 147 49 147 53 147 59 c 2
 147 278 l 1
177 -213 m 1x83
 280 -105 l 1
 527 -105 l 1
 624 -213 l 1
 416 -213 l 2
 414 -213 415 -213 413 -213 c 0
 407 -213 401 -213 395 -213 c 2
 177 -213 l 1x83
EndSplineSet
EndChar

StartChar: germandbls
Encoding: 223 223 125
Width: 800
VWidth: 0
Flags: HW
HStem: -213 108<280 527> -169 21G<147 169 635 656> -169 21G<147 169 635 656> 242 108<263 536> 695 108<279 303 303 524> 740 20G<144 166 633 653> 740 20G<144 166 633 653>
VStem: 147 108<-71 174 415 663> 548 108<-66 180 410 633 633 657>
LayerCount: 2
Back
Fore
SplineSet
653 760 m 1x1580
 653 541 l 2
 653 535 653 532 653 526 c 0
 653 524 653 522 653 520 c 2
 653 313 l 1
 545 410 l 1
 545 633 l 1
 545 657 l 1
 653 760 l 1x1580
144 313 m 1
 144 531 l 2
 144 537 144 542 144 548 c 0
 144 550 144 550 144 552 c 2
 144 760 l 1
 252 663 l 1
 252 440 l 1
 252 415 l 1
 144 313 l 1
176 803 m 1x1980
 394 803 l 2
 400 803 404 803 410 803 c 0
 412 803 413 803 415 803 c 2
 623 803 l 1
 524 695 l 1
 303 695 l 1
 279 695 l 1
 176 803 l 1x1980
228 270 m 5
 192 297 l 5
 263 350 l 5
 536 350 l 5
 606 297 l 5
 536 242 l 5
 263 242 l 5
 228 270 l 5
656 -169 m 5x5180
 548 -66 l 5
 548 -42 l 5
 548 180 l 5
 656 278 l 5
 656 70 l 6
 656 68 656 67 656 65 c 4
 656 59 656 55 656 49 c 6
 656 -169 l 5x5180
147 278 m 1
 255 174 l 1
 255 150 l 1
 255 -71 l 1
 147 -169 l 1
 147 37 l 2
 147 39 147 41 147 43 c 0
 147 49 147 53 147 59 c 2
 147 278 l 1
177 -213 m 5x9180
 280 -105 l 5
 527 -105 l 5
 624 -213 l 5
 416 -213 l 6
 414 -213 415 -213 413 -213 c 4
 407 -213 401 -213 395 -213 c 6
 177 -213 l 5x9180
EndSplineSet
EndChar

StartChar: guillemotright
Encoding: 187 187 126
Width: 800
VWidth: 0
Flags: HW
LayerCount: 2
Back
Fore
SplineSet
534 385 m 5
 426 487 l 5
 426 269 l 6
 426 263 427 259 427 253 c 4
 427 251 427 250 427 248 c 6
 427 240 l 5
 535 337 l 5
 534 385 l 5
373 385 m 5
 265 487 l 5
 265 269 l 6
 265 263 266 259 266 253 c 4
 266 251 266 250 266 248 c 6
 266 240 l 5
 374 337 l 5
 373 385 l 5
EndSplineSet
EndChar

StartChar: onequarter
Encoding: 188 188 127
Width: 800
VWidth: 0
Flags: HW
HStem: 40 33<498 580>
VStem: 185 33<477 551 620 687 687 693> 463 33<91 165> 584 33<-53 21 90 157 157 163>
LayerCount: 2
Back
Fore
SplineSet
615 194 m 5
 615 129 l 6
 615 127 615 126 615 124 c 4
 615 123 l 6
 615 60 l 5
 584 90 l 5
 584 157 l 5
 584 163 l 5
 615 194 l 5
463 60 m 5
 463 127 l 6
 463 129 463 129 463 131 c 4
 463 133 l 6
 463 194 l 5
 495 165 l 5
 495 99 l 5
 495 91 l 5
 463 60 l 5
487 48 m 5
 478 56 l 5
 498 72 l 5
 580 72 l 5
 601 56 l 5
 580 40 l 5
 498 40 l 5
 487 48 l 5
616 -85 m 5
 585 -53 l 5
 585 -45 l 5
 584 -45 l 5
 584 21 l 5
 616 50 l 5
 616 -13 l 6
 616 -15 616 -17 616 -19 c 6
 616 -85 l 5
216 724 m 1
 216 659 l 2
 216 657 215 657 215 655 c 0
 215 653 l 2
 215 590 l 1
 184 620 l 1
 184 687 l 1
 184 693 l 1
 216 724 l 1
216 445 m 1
 185 477 l 1
 185 485 l 1
 185 551 l 1
 216 580 l 1
 216 517 l 2
 216 516 l 0
 216 514 216 514 216 512 c 2
 216 445 l 1
549 536 m 1
 550 787 l 1
 206 110 l 1
 206 -144 l 1
 549 536 l 1
EndSplineSet
EndChar

StartChar: guillemotleft
Encoding: 171 171 128
Width: 800
VWidth: 0
Flags: HW
LayerCount: 2
Back
Fore
SplineSet
266 343 m 5
 374 240 l 5
 374 459 l 6
 374 465 373 470 373 476 c 4
 373 478 373 478 373 480 c 6
 373 487 l 5
 265 390 l 5
 266 343 l 5
427 343 m 5
 535 240 l 5
 535 459 l 6
 535 465 534 470 534 476 c 4
 534 478 534 478 534 480 c 6
 534 487 l 5
 426 390 l 5
 427 343 l 5
EndSplineSet
EndChar

StartChar: uni00AD
Encoding: 173 173 129
Width: 800
VWidth: 0
Flags: HW
HStem: 242 108<313 487>
VStem: 243 313
LayerCount: 2
Back
Fore
SplineSet
278 270 m 5
 243 297 l 5
 313 350 l 5
 487 350 l 1
 557 297 l 1
 487 242 l 1
 313 242 l 5
 278 270 l 5
EndSplineSet
EndChar

StartChar: semicolon
Encoding: 59 59 130
Width: 800
VWidth: 0
Flags: HW
HStem: 213 116<337 463> 466 127<336 463>
VStem: 336 127<213 329 466 594> 336 2<202 213>
LayerCount: 2
Back
Fore
SplineSet
336 594 m 1xe0
 463 594 l 1
 463 466 l 1
 336 466 l 1
 336 594 l 1xe0
336 329 m 1
 463 329 l 1
 463 213 l 1xe0
 337 213 l 2
 337 210 337 205 337 202 c 2
 336 202 l 1xd0
 336 329 l 1
337 202 m 5xd0
 343 -138 344 130 447 202 c 5
 337 202 l 5xd0
447 202 m 2
 453 205 457 210 463 212 c 1
 463 202 l 1xe0
 447 202 l 2
463 213 m 1
 463 212 l 2
 464 212 463 213 464 213 c 2
 463 213 l 1
EndSplineSet
EndChar

StartChar: colon
Encoding: 58 58 131
Width: 800
VWidth: 0
Flags: HW
HStem: 163 127<337 463> 457 127<337 463>
VStem: 337 127<163 288 457 585>
LayerCount: 2
Back
Fore
SplineSet
337 585 m 5
 463 585 l 5
 463 457 l 5
 337 457 l 5
 337 585 l 5
337 288 m 5
 463 288 l 5
 463 163 l 5
 337 163 l 5
 337 288 l 5
EndSplineSet
EndChar

StartChar: V
Encoding: 86 86 132
Width: 800
VWidth: 0
Flags: HW
HStem: 767 20G<8 17> 767 20G<8 17>
LayerCount: 2
Back
Fore
SplineSet
8 536 m 5x40
 8 787 l 1
 352 110 l 1
 352 -144 l 5
 8 536 l 5x40
792 536 m 1
 792 787 l 1
 448 110 l 1
 448 -144 l 1
 792 536 l 1
EndSplineSet
EndChar

StartChar: v
Encoding: 118 118 133
Width: 800
VWidth: 0
Flags: HW
HStem: 767 20G<8 17> 767 20G<8 17>
LayerCount: 2
Back
Fore
SplineSet
8 536 m 5x40
 8 787 l 1
 352 110 l 1
 352 -144 l 5
 8 536 l 5x40
792 536 m 1
 792 787 l 1
 448 110 l 1
 448 -144 l 1
 792 536 l 1
EndSplineSet
EndChar

StartChar: M
Encoding: 77 77 134
Width: 800
VWidth: 0
Flags: HW
HStem: -169 21G<101 122 688 710> -169 21G<101 122 688 710> 751 20G<88 173> 751 20G<88 173>
VStem: 101 108<-71 174 415 542> 602 108<-66 180 410 513 513 537>
LayerCount: 2
Back
Fore
SplineSet
417 534 m 5x1c
 412 490 l 5
 499 498 l 5
 700 685 l 5
 714 771 l 5
 627 763 l 5
 426 578 l 5
 417 534 l 5x1c
708 640 m 5
 708 541 l 2
 708 535 708 532 708 526 c 0
 708 524 708 522 708 520 c 2
 708 313 l 1
 600 410 l 1
 600 513 l 5
 600 537 l 5
 708 640 l 5
99 313 m 1
 99 531 l 2
 99 537 99 542 99 548 c 0
 99 550 99 550 99 552 c 2
 99 640 l 5
 207 542 l 5
 207 440 l 1
 207 415 l 1
 99 313 l 1
383 534 m 5
 388 490 l 5
 301 498 l 5
 100 685 l 5
 86 771 l 5
 173 763 l 5
 374 578 l 5
 383 534 l 5
710 -169 m 1x8c
 602 -66 l 1
 602 -42 l 1
 602 180 l 1
 710 278 l 1
 710 70 l 2
 710 68 710 67 710 65 c 0
 710 59 710 55 710 49 c 2
 710 -169 l 1x8c
101 278 m 1
 209 174 l 1
 209 150 l 1
 209 -71 l 1
 101 -169 l 1
 101 37 l 2
 101 39 101 41 101 43 c 0
 101 49 101 53 101 59 c 2
 101 278 l 1
EndSplineSet
EndChar

StartChar: m
Encoding: 109 109 135
Width: 800
VWidth: 0
Flags: HW
HStem: -169 21G<101 122 688 710> -169 21G<101 122 688 710> 751 20G<88 173> 751 20G<88 173>
VStem: 101 108<-71 174 415 542> 602 108<-66 180 410 513 513 537>
LayerCount: 2
Back
Fore
SplineSet
417 534 m 5x1c
 412 490 l 5
 499 498 l 5
 700 685 l 5
 714 771 l 5
 627 763 l 5
 426 578 l 5
 417 534 l 5x1c
708 640 m 5
 708 541 l 2
 708 535 708 532 708 526 c 0
 708 524 708 522 708 520 c 2
 708 313 l 1
 600 410 l 1
 600 513 l 5
 600 537 l 5
 708 640 l 5
99 313 m 1
 99 531 l 2
 99 537 99 542 99 548 c 0
 99 550 99 550 99 552 c 2
 99 640 l 5
 207 542 l 5
 207 440 l 1
 207 415 l 1
 99 313 l 1
383 534 m 5
 388 490 l 5
 301 498 l 5
 100 685 l 5
 86 771 l 5
 173 763 l 5
 374 578 l 5
 383 534 l 5
710 -169 m 1x8c
 602 -66 l 1
 602 -42 l 1
 602 180 l 1
 710 278 l 1
 710 70 l 2
 710 68 710 67 710 65 c 0
 710 59 710 55 710 49 c 2
 710 -169 l 1x8c
101 278 m 1
 209 174 l 1
 209 150 l 1
 209 -71 l 1
 101 -169 l 1
 101 37 l 2
 101 39 101 41 101 43 c 0
 101 49 101 53 101 59 c 2
 101 278 l 1
EndSplineSet
EndChar

StartChar: W
Encoding: 87 87 136
Width: 800
VWidth: 0
Flags: HW
HStem: -169 21G<627 712> -169 21G<627 712> 751 20G<90 112 678 699> 751 20G<90 112 678 699>
VStem: 90 108<64 88 88 191 421 667> 593 108<59 186 427 673>
LayerCount: 2
Back
Fore
SplineSet
383 67 m 5x4c
 388 112 l 5
 301 103 l 5
 100 -83 l 5
 86 -169 l 5
 173 -162 l 5
 374 24 l 5
 383 67 l 5x4c
92 -38 m 5
 92 60 l 2
 92 66 92 71 92 77 c 0
 92 79 92 79 92 81 c 2
 92 288 l 1
 200 191 l 1
 200 88 l 5
 200 64 l 5
 92 -38 l 5
701 288 m 1
 701 70 l 2
 701 64 701 61 701 55 c 0
 701 53 701 51 701 49 c 2
 701 -38 l 5
 593 59 l 5
 593 162 l 1
 593 186 l 1
 701 288 l 1
417 67 m 5
 412 112 l 5
 499 103 l 5
 700 -83 l 5
 714 -169 l 5
 627 -162 l 5
 426 24 l 5
 417 67 l 5
90 771 m 1x2c
 198 667 l 1
 198 643 l 1
 198 421 l 1
 90 323 l 1
 90 531 l 2
 90 533 90 534 90 536 c 0
 90 542 90 546 90 552 c 2
 90 771 l 1x2c
699 323 m 1
 591 427 l 1
 591 451 l 1
 591 673 l 1
 699 771 l 1
 699 563 l 2
 699 561 699 560 699 558 c 0
 699 552 699 548 699 542 c 2
 699 323 l 1
EndSplineSet
EndChar

StartChar: Ccedilla
Encoding: 199 199 137
Width: 800
VWidth: 0
Flags: HW
HStem: -213 108<295 320 428 542> -169 21G<163 184> -169 21G<163 184> 695 108<293 317 319 540> 740 20G<160 183> 740 20G<160 183>
VStem: 163 108<-71 174 415 663>
LayerCount: 2
Back
Fore
SplineSet
443 69 m 5x02
 553 6 l 5
 430 -208 l 5
 320 -144 l 5
 443 69 l 5x02
160 313 m 1
 160 531 l 2
 160 537 160 542 160 548 c 0
 160 550 160 550 160 552 c 2
 160 760 l 1x0a
 267 663 l 1
 267 440 l 1
 267 415 l 1
 160 313 l 1
191 803 m 1x12
 410 803 l 2
 416 803 420 803 426 803 c 0
 428 803 428 803 430 803 c 2
 637 803 l 1
 540 695 l 1
 319 695 l 1
 317 695 l 1
 293 695 l 1
 191 803 l 1x12
163 278 m 1
 270 174 l 1
 270 150 l 1
 270 -71 l 1
 163 -169 l 1x42
 163 37 l 2
 163 39 163 41 163 43 c 0
 163 49 163 53 163 59 c 2
 163 278 l 1
192 -213 m 1x82
 295 -105 l 1
 542 -105 l 1
 640 -213 l 1
 433 -213 l 2
 431 -213 430 -213 428 -213 c 0
 422 -213 418 -213 412 -213 c 2
 192 -213 l 1x82
EndSplineSet
EndChar

StartChar: AE
Encoding: 198 198 138
Width: 800
VWidth: 0
Flags: HW
HStem: -213 108<490 737> -169 21G<356 378> -169 21G<356 378> 102 108<152 245> 242 108<472 745> 695 108<487 513 513 735> 740 20G<355 377> 740 20G<355 377>
VStem: 356 108<-71 174 415 663>
LayerCount: 2
Back
Fore
SplineSet
116 130 m 5x1880
 83 157 l 5
 152 210 l 5
 245 210 l 5
 315 157 l 5
 245 102 l 5
 152 102 l 5
 116 130 l 5x1880
310 556 m 1
 310 808 l 1
 -35 40 l 1
 -35 -214 l 1
 310 556 l 1
355 313 m 1
 355 531 l 2
 355 537 355 542 355 548 c 0
 355 550 355 550 355 552 c 2
 355 760 l 1x1a80
 463 663 l 1
 463 440 l 1
 463 415 l 1
 355 313 l 1
385 803 m 1x1c80
 603 803 l 2
 609 803 614 803 620 803 c 0
 622 803 622 803 624 803 c 2
 833 803 l 1
 735 695 l 1
 513 695 l 1
 487 695 l 1
 385 803 l 1x1c80
437 270 m 1
 402 297 l 1
 472 350 l 1
 745 350 l 1
 815 297 l 1
 745 242 l 1
 472 242 l 1
 437 270 l 1
356 278 m 1
 463 174 l 1
 463 150 l 1
 463 -71 l 1
 356 -169 l 1x5880
 356 37 l 2
 356 39 356 41 356 43 c 0
 356 49 356 53 356 59 c 2
 356 278 l 1
387 -213 m 1x9880
 490 -105 l 1
 737 -105 l 1
 835 -213 l 1
 627 -213 l 2
 625 -213 623 -213 621 -213 c 0
 615 -213 612 -213 606 -213 c 2
 387 -213 l 1x9880
EndSplineSet
EndChar

StartChar: w
Encoding: 119 119 139
Width: 800
VWidth: 0
Flags: HW
HStem: -169 21G<627 712> -169 21G<627 712> 751 20G<90 112 678 699> 751 20G<90 112 678 699>
VStem: 90 108<64 88 88 191 421 667> 593 108<59 186 427 673>
LayerCount: 2
Back
Fore
SplineSet
383 67 m 5x4c
 388 112 l 5
 301 103 l 5
 100 -83 l 5
 86 -169 l 5
 173 -162 l 5
 374 24 l 5
 383 67 l 5x4c
92 -38 m 5
 92 60 l 2
 92 66 92 71 92 77 c 0
 92 79 92 79 92 81 c 2
 92 288 l 1
 200 191 l 1
 200 88 l 5
 200 64 l 5
 92 -38 l 5
701 288 m 1
 701 70 l 2
 701 64 701 61 701 55 c 0
 701 53 701 51 701 49 c 2
 701 -38 l 5
 593 59 l 5
 593 162 l 1
 593 186 l 1
 701 288 l 1
417 67 m 5
 412 112 l 5
 499 103 l 5
 700 -83 l 5
 714 -169 l 5
 627 -162 l 5
 426 24 l 5
 417 67 l 5
90 771 m 1x2c
 198 667 l 1
 198 643 l 1
 198 421 l 1
 90 323 l 1
 90 531 l 2
 90 533 90 534 90 536 c 0
 90 542 90 546 90 552 c 2
 90 771 l 1x2c
699 323 m 1
 591 427 l 1
 591 451 l 1
 591 673 l 1
 699 771 l 1
 699 563 l 2
 699 561 699 560 699 558 c 0
 699 552 699 548 699 542 c 2
 699 323 l 1
EndSplineSet
EndChar

StartChar: n
Encoding: 110 110 140
Width: 800
VWidth: 0
Flags: HW
LayerCount: 2
Back
Fore
SplineSet
256 516 m 5
 256 719 l 5
 540 241 l 5
 540 37 l 5
 256 516 l 5
703 -119 m 5
 703 100 l 6
 703 106 703 110 703 116 c 4
 703 118 703 119 703 121 c 6
 703 329 l 5
 595 231 l 5
 595 9 l 5
 595 -15 l 5
 703 -119 l 5
94 329 m 5
 94 110 l 6
 94 104 94 100 94 94 c 4
 94 92 94 90 94 88 c 6
 94 -119 l 5
 202 -21 l 5
 202 201 l 5
 202 226 l 5
 94 329 l 5
706 812 m 5
 598 708 l 5
 598 684 l 5
 598 462 l 5
 706 363 l 5
 706 571 l 6
 706 573 706 574 706 576 c 4
 706 582 706 586 706 592 c 6
 706 812 l 5
97 363 m 5
 205 466 l 5
 205 491 l 5
 205 713 l 5
 97 812 l 5
 97 603 l 6
 97 601 97 600 97 598 c 4
 97 592 97 589 97 583 c 6
 97 363 l 5
EndSplineSet
EndChar

StartChar: N
Encoding: 78 78 141
Width: 800
VWidth: 0
Flags: HW
LayerCount: 2
Back
Fore
SplineSet
256 516 m 5
 256 719 l 5
 540 241 l 5
 540 37 l 5
 256 516 l 5
703 -119 m 5
 703 100 l 6
 703 106 703 110 703 116 c 4
 703 118 703 119 703 121 c 6
 703 329 l 5
 595 231 l 5
 595 9 l 5
 595 -15 l 5
 703 -119 l 5
94 329 m 5
 94 110 l 6
 94 104 94 100 94 94 c 4
 94 92 94 90 94 88 c 6
 94 -119 l 5
 202 -21 l 5
 202 201 l 5
 202 226 l 5
 94 329 l 5
706 812 m 5
 598 708 l 5
 598 684 l 5
 598 462 l 5
 706 363 l 5
 706 571 l 6
 706 573 706 574 706 576 c 4
 706 582 706 586 706 592 c 6
 706 812 l 5
97 363 m 5
 205 466 l 5
 205 491 l 5
 205 713 l 5
 97 812 l 5
 97 603 l 6
 97 601 97 600 97 598 c 4
 97 592 97 589 97 583 c 6
 97 363 l 5
EndSplineSet
EndChar

StartChar: underscore
Encoding: 95 95 142
Width: 800
VWidth: 0
Flags: HW
HStem: -198 108<93 707>
LayerCount: 2
Back
Fore
SplineSet
58 -170 m 1
 23 -143 l 1
 93 -90 l 1
 707 -90 l 5
 777 -143 l 5
 707 -198 l 5
 93 -198 l 1
 58 -170 l 1
EndSplineSet
EndChar

StartChar: asterisk
Encoding: 42 42 143
Width: 800
VWidth: 0
Flags: HW
HStem: 151 92<263 309> 163 81<287 341> 350 92<491 537> 350 81<459 513>
VStem: 255 92<160 206> 265 81<184 237>
LayerCount: 2
Back
Fore
SplineSet
540 399 m 1x20
 545 442 l 1x20
 459 431 l 1
 453 427 l 1
 453 350 l 5x10
 530 350 l 1
 535 356 l 1
 540 399 l 1x20
228 270 m 1
 193 297 l 1
 263 350 l 1
 270 350 l 1
 265 356 l 1x94
 260 399 l 1
 255 442 l 1x28
 341 431 l 1
 347 427 l 1
 347 434 l 1
 373 467 l 1
 400 503 l 1
 453 434 l 1
 453 427 l 1
 400 373 l 5
 422 350 l 5
 453 350 l 5x14
 453 319 l 5
 477 297 l 5
 530 350 l 1
 537 350 l 1
 607 297 l 1
 537 242 l 1
 530 242 l 1x64
 535 237 l 1
 545 151 l 1x84
 459 163 l 1
 453 166 l 1
 453 160 l 1
 400 90 l 1
 347 160 l 1
 347 166 l 1x48
 400 220 l 1
 378 242 l 1
 347 242 l 1x44
 347 274 l 1
 323 297 l 1
 270 242 l 1
 263 242 l 1x84
 228 270 l 1
270 242 m 1
 265 237 l 1x84
 255 151 l 1x88
 341 163 l 1
 347 166 l 1x48
 347 242 l 1x44
 270 242 l 1
EndSplineSet
EndChar

StartChar: Ntilde
Encoding: 209 209 144
Width: 800
VWidth: 0
Flags: HW
HStem: 842 108<272 545>
LayerCount: 2
Back
Fore
SplineSet
237 870 m 5
 202 897 l 5
 272 950 l 5
 545 950 l 5
 615 897 l 5
 545 842 l 5
 272 842 l 5
 237 870 l 5
256 516 m 1
 256 719 l 1
 540 241 l 1
 540 37 l 1
 256 516 l 1
703 -119 m 1
 703 100 l 2
 703 106 703 110 703 116 c 0
 703 118 703 119 703 121 c 2
 703 329 l 1
 595 231 l 1
 595 9 l 1
 595 -15 l 1
 703 -119 l 1
94 329 m 1
 94 110 l 2
 94 104 94 100 94 94 c 0
 94 92 94 90 94 88 c 2
 94 -119 l 1
 202 -21 l 1
 202 201 l 1
 202 226 l 1
 94 329 l 1
706 812 m 1
 598 708 l 1
 598 684 l 1
 598 462 l 1
 706 363 l 1
 706 571 l 2
 706 573 706 574 706 576 c 0
 706 582 706 586 706 592 c 2
 706 812 l 1
97 363 m 1
 205 466 l 1
 205 491 l 1
 205 713 l 1
 97 812 l 1
 97 603 l 2
 97 601 97 600 97 598 c 0
 97 592 97 589 97 583 c 2
 97 363 l 1
EndSplineSet
EndChar

StartChar: T
Encoding: 84 84 145
Width: 800
VWidth: 0
Flags: HW
HStem: -169 21G<434 455> -169 21G<434 455> 713 108<93 707> 740 20G<433 452> 740 20G<433 452>
VStem: 347 108<-66 180 410 633 633 657>
LayerCount: 2
Back
Fore
SplineSet
58 740 m 5x24
 23 766 l 5
 93 820 l 5
 707 820 l 5
 777 766 l 5
 707 713 l 5
 93 713 l 5
 58 740 l 5x24
452 760 m 1x14
 452 541 l 2
 452 535 452 532 452 526 c 0
 452 524 452 522 452 520 c 2
 452 313 l 1
 344 410 l 1
 344 633 l 1
 344 657 l 1
 452 760 l 1x14
455 -169 m 1x84
 347 -66 l 1
 347 -42 l 1
 347 180 l 1
 455 278 l 1
 455 70 l 2
 455 68 455 67 455 65 c 0
 455 59 455 55 455 49 c 2
 455 -169 l 1x84
EndSplineSet
EndChar

StartChar: plus
Encoding: 43 43 146
Width: 800
VWidth: 0
Flags: HW
HStem: 242 108<263 537>
VStem: 347 108<160 434>
LayerCount: 2
Back
Fore
SplineSet
373 467 m 5
 400 503 l 5
 453 434 l 5
 453 160 l 5
 400 90 l 5
 347 160 l 5
 347 434 l 5
 373 467 l 5
228 270 m 1
 193 297 l 1
 263 350 l 1
 537 350 l 1
 607 297 l 1
 537 242 l 1
 263 242 l 1
 228 270 l 1
EndSplineSet
EndChar

StartChar: quotesingle
Encoding: 39 39 147
Width: 800
VWidth: 0
Flags: HW
HStem: 697 247<337 463>
VStem: 337 127<697 944>
LayerCount: 2
Back
Fore
SplineSet
337 944 m 1
 463 944 l 1
 463 697 l 5
 337 697 l 5
 337 944 l 1
EndSplineSet
EndChar

StartChar: equal
Encoding: 61 61 148
Width: 800
VWidth: 0
Flags: HW
HStem: 213 108<223 577> 402 108<223 577>
LayerCount: 2
Back
Fore
SplineSet
187 430 m 5
 153 457 l 5
 223 510 l 5
 577 510 l 5
 647 457 l 5
 577 402 l 5
 223 402 l 5
 187 430 l 5
187 240 m 1
 153 266 l 1
 223 320 l 1
 577 320 l 1
 647 266 l 1
 577 213 l 1
 223 213 l 1
 187 240 l 1
EndSplineSet
EndChar

StartChar: less
Encoding: 60 60 149
Width: 800
VWidth: 0
Flags: HW
LayerCount: 2
Back
Fore
SplineSet
464 623 m 1
 715 624 l 1
 337 350 l 1
 85 350 l 1
 464 623 l 1
464 20 m 5
 715 20 l 5
 337 293 l 5
 85 294 l 5
 464 20 l 5
EndSplineSet
EndChar

StartChar: greater
Encoding: 62 62 150
Width: 800
VWidth: 0
Flags: HW
LayerCount: 2
Back
Fore
SplineSet
336 623 m 1
 85 624 l 1
 463 350 l 1
 715 350 l 1
 336 623 l 1
336 20 m 5
 85 20 l 5
 463 293 l 5
 715 294 l 5
 336 20 l 5
EndSplineSet
EndChar

StartChar: ntilde
Encoding: 241 241 151
Width: 800
VWidth: 0
Flags: HW
HStem: 842 108<263 536>
LayerCount: 2
Back
Fore
SplineSet
228 870 m 5
 192 897 l 5
 263 950 l 5
 536 950 l 5
 606 897 l 5
 536 842 l 5
 263 842 l 5
 228 870 l 5
256 516 m 1
 256 719 l 1
 540 241 l 1
 540 37 l 1
 256 516 l 1
703 -119 m 1
 703 100 l 2
 703 106 703 110 703 116 c 0
 703 118 703 119 703 121 c 2
 703 329 l 1
 595 231 l 1
 595 9 l 1
 595 -15 l 1
 703 -119 l 1
94 329 m 1
 94 110 l 2
 94 104 94 100 94 94 c 0
 94 92 94 90 94 88 c 2
 94 -119 l 1
 202 -21 l 1
 202 201 l 1
 202 226 l 1
 94 329 l 1
706 812 m 1
 598 708 l 1
 598 684 l 1
 598 462 l 1
 706 363 l 1
 706 571 l 2
 706 573 706 574 706 576 c 0
 706 582 706 586 706 592 c 2
 706 812 l 1
97 363 m 1
 205 466 l 1
 205 491 l 1
 205 713 l 1
 97 812 l 1
 97 603 l 2
 97 601 97 600 97 598 c 0
 97 592 97 589 97 583 c 2
 97 363 l 1
EndSplineSet
EndChar

StartChar: uni00B2
Encoding: 178 178 152
Width: 800
VWidth: 0
Flags: HW
HStem: 603 33<364 437> 730 20G<324 344> 740 33<359 441> 760 21G<455 476> 760 21G<455 476> 876 33<363 371 371 437>
VStem: 324 33<645 719> 443 33<790 857 857 863>
LayerCount: 2
Back
Fore
SplineSet
476 894 m 5x97
 476 829 l 6
 476 827 476 826 476 824 c 4
 476 822 l 6
 476 760 l 5
 443 790 l 5
 443 857 l 5
 443 863 l 5
 476 894 l 5x97
333 908 m 5
 398 908 l 6
 400 908 401 908 403 908 c 4
 405 908 l 6
 466 908 l 5
 437 876 l 5
 371 876 l 5
 363 876 l 5
 333 908 l 5
348 748 m 5
 337 756 l 5
 359 772 l 5
 441 772 l 5
 463 756 l 5
 441 740 l 5
 359 740 l 5xa7
 348 748 l 5
324 750 m 5
 357 719 l 5
 357 713 l 5
 357 645 l 5
 324 615 l 5
 324 678 l 6
 324 680 l 4
 324 682 324 683 324 685 c 6
 324 750 l 5
334 603 m 5
 364 636 l 5
 437 636 l 5
 467 603 l 5
 406 603 l 6
 403 603 l 4
 401 603 401 603 399 603 c 6
 334 603 l 5
EndSplineSet
EndChar

StartChar: uni00B3
Encoding: 179 179 153
Width: 800
VWidth: 204
Flags: HW
HStem: 593 33<360 434> 730 33<354 436> 750 21G<449 471> 865 33<360 365 365 433>
VStem: 440 33<637 712 780 847 847 853>
LayerCount: 2
Back
Fore
SplineSet
471 885 m 5xb8
 471 819 l 6
 471 817 471 816 471 814 c 4
 471 813 l 6
 471 750 l 5
 440 780 l 5
 440 847 l 5
 440 853 l 5
 471 885 l 5xb8
328 898 m 5
 393 898 l 6
 395 898 396 898 398 898 c 4
 400 898 l 6
 463 898 l 5
 433 865 l 5
 365 865 l 5
 360 865 l 5
 328 898 l 5
343 737 m 5
 334 745 l 5
 354 763 l 5
 436 763 l 5
 457 745 l 5
 436 730 l 5
 354 730 l 5xd8
 343 737 l 5
472 606 m 5
 440 637 l 5
 440 644 l 5
 440 712 l 5
 472 740 l 5
 472 678 l 6
 472 677 l 4
 472 675 472 673 472 671 c 6
 472 606 l 5
328 593 m 5
 360 626 l 5
 434 626 l 5
 463 593 l 5
 400 593 l 6
 399 593 l 4
 397 593 395 593 393 593 c 6
 328 593 l 5
EndSplineSet
EndChar

StartChar: acute
Encoding: 180 180 154
Width: 800
VWidth: 0
Flags: HW
HStem: 683 278
VStem: 284 234
LayerCount: 2
Back
Fore
SplineSet
407 959 m 5
 516 895 l 5
 393 683 l 5
 284 745 l 5
 407 959 l 5
EndSplineSet
EndChar

StartChar: periodcentered
Encoding: 183 183 155
Width: 800
VWidth: 0
Flags: HW
HStem: 327 127<337 463>
VStem: 337 127<327 455>
LayerCount: 2
Back
Fore
SplineSet
337 455 m 5
 463 455 l 5
 463 327 l 5
 337 327 l 5
 337 455 l 5
EndSplineSet
EndChar

StartChar: cedilla
Encoding: 184 184 156
Width: 800
VWidth: 0
Flags: HW
HStem: -208 278
VStem: 284 234
LayerCount: 2
Back
Fore
SplineSet
407 69 m 5
 516 6 l 5
 393 -208 l 5
 284 -144 l 5
 407 69 l 5
EndSplineSet
EndChar

StartChar: uni00B9
Encoding: 185 185 157
Width: 800
VWidth: 204
Flags: HW
HStem: 636 279 750 20G<395 417> 750 20G<395 417> 780 21G<393 415> 780 21G<393 415>
VStem: 383 33<666 741 810 877 877 884>
LayerCount: 2
Back
Fore
SplineSet
415 914 m 5x84
 415 849 l 6
 415 847 415 846 415 844 c 4
 415 843 l 6
 415 780 l 5x14
 383 810 l 5
 383 877 l 5
 383 884 l 5
 415 914 l 5x84
417 636 m 5x84
 383 666 l 5
 383 674 l 5
 383 741 l 5
 417 770 l 5x44
 417 708 l 6
 417 707 l 4
 417 705 417 703 417 701 c 6
 417 636 l 5x84
EndSplineSet
EndChar

StartChar: t
Encoding: 116 116 158
Width: 800
VWidth: 0
Flags: HW
HStem: -169 21G<434 455> -169 21G<434 455> 713 108<93 707> 740 20G<433 452> 740 20G<433 452>
VStem: 347 108<-66 180 410 633 633 657>
LayerCount: 2
Back
Fore
SplineSet
58 740 m 5x24
 23 766 l 5
 93 820 l 5
 707 820 l 5
 777 766 l 5
 707 713 l 5
 93 713 l 5
 58 740 l 5x24
452 760 m 1x14
 452 541 l 2
 452 535 452 532 452 526 c 0
 452 524 452 522 452 520 c 2
 452 313 l 1
 344 410 l 1
 344 633 l 1
 344 657 l 1
 452 760 l 1x14
455 -169 m 1x84
 347 -66 l 1
 347 -42 l 1
 347 180 l 1
 455 278 l 1
 455 70 l 2
 455 68 455 67 455 65 c 0
 455 59 455 55 455 49 c 2
 455 -169 l 1x84
EndSplineSet
EndChar

StartChar: grave
Encoding: 96 96 159
Width: 800
VWidth: 0
Flags: HW
LayerCount: 2
Back
Fore
SplineSet
393 959 m 5
 284 895 l 5
 407 683 l 5
 516 745 l 5
 393 959 l 5
EndSplineSet
EndChar

StartChar: ccedilla
Encoding: 231 231 160
Width: 800
VWidth: 0
Flags: HW
HStem: -213 108<295 320 428 542> -169 21G<163 184> -169 21G<163 184> 695 108<293 317 319 540> 740 20G<160 183> 740 20G<160 183>
VStem: 163 108<-71 174 415 663>
LayerCount: 2
Back
Fore
SplineSet
443 69 m 5x02
 553 6 l 5
 430 -208 l 5
 320 -144 l 5
 443 69 l 5x02
160 313 m 1
 160 531 l 2
 160 537 160 542 160 548 c 0
 160 550 160 550 160 552 c 2
 160 760 l 1x0a
 267 663 l 1
 267 440 l 1
 267 415 l 1
 160 313 l 1
191 803 m 1x12
 410 803 l 2
 416 803 420 803 426 803 c 0
 428 803 428 803 430 803 c 2
 637 803 l 1
 540 695 l 1
 319 695 l 1
 317 695 l 1
 293 695 l 1
 191 803 l 1x12
163 278 m 1
 270 174 l 1
 270 150 l 1
 270 -71 l 1
 163 -169 l 1x42
 163 37 l 2
 163 39 163 41 163 43 c 0
 163 49 163 53 163 59 c 2
 163 278 l 1
192 -213 m 1x82
 295 -105 l 1
 542 -105 l 1
 640 -213 l 1
 433 -213 l 2
 431 -213 430 -213 428 -213 c 0
 422 -213 418 -213 412 -213 c 2
 192 -213 l 1x82
EndSplineSet
EndChar

StartChar: at
Encoding: 64 64 161
Width: 800
VWidth: 0
Flags: HW
HStem: -169 21G<147 169 635 656> -169 21G<147 169 635 656> 242 108<263 536> 695 108<279 303 303 524> 740 20G<144 166 633 653> 740 20G<144 166 633 653>
VStem: 147 108<-71 174 415 663> 548 108<-66 180 410 633 633 657>
LayerCount: 2
Back
SplineSet
653 760 m 1x2b
 653 541 l 2
 653 535 653 532 653 526 c 0
 653 524 653 522 653 520 c 2
 653 313 l 1
 545 410 l 1
 545 633 l 1
 545 657 l 1
 653 760 l 1x2b
144 313 m 1
 144 531 l 2
 144 537 144 542 144 548 c 0
 144 550 144 550 144 552 c 2
 144 760 l 1
 252 663 l 1
 252 440 l 1
 252 415 l 1
 144 313 l 1
176 803 m 1x33
 394 803 l 2
 400 803 404 803 410 803 c 0
 412 803 413 803 415 803 c 2
 623 803 l 1
 524 695 l 1
 303 695 l 1
 279 695 l 1
 176 803 l 1x33
228 270 m 1
 192 297 l 1
 263 350 l 1
 536 350 l 1
 606 297 l 1
 536 242 l 1
 263 242 l 1
 228 270 l 1
656 -169 m 1xa3
 548 -66 l 1
 548 -42 l 1
 548 180 l 1
 656 278 l 1
 656 70 l 2
 656 68 656 67 656 65 c 0
 656 59 656 55 656 49 c 2
 656 -169 l 1xa3
147 278 m 1
 255 174 l 1
 255 150 l 1
 255 -71 l 1
 147 -169 l 1
 147 37 l 2
 147 39 147 41 147 43 c 0
 147 49 147 53 147 59 c 2
 147 278 l 1
EndSplineSet
Fore
EndChar

StartChar: onehalf
Encoding: 189 189 162
Width: 800
VWidth: 0
Flags: HW
HStem: -87 33<505 578> 50 33<499 581> 186 33<503 512 512 578>
VStem: 185 33<477 551 620 687 687 693> 463 33<-44 29> 584 33<100 166 166 173>
LayerCount: 2
Back
Fore
SplineSet
615 205 m 5
 615 138 l 6
 615 136 615 137 615 135 c 4
 615 133 l 6
 615 70 l 5
 584 100 l 5
 584 166 l 5
 584 173 l 5
 615 205 l 5
472 217 m 5
 537 217 l 6
 539 217 541 217 543 217 c 4
 544 217 l 6
 607 217 l 5
 578 186 l 5
 512 186 l 5
 503 186 l 5
 472 217 l 5
487 58 m 5
 478 65 l 5
 499 83 l 5
 581 83 l 5
 601 65 l 5
 581 50 l 5
 499 50 l 5
 487 58 l 5
463 60 m 5
 495 29 l 5
 495 22 l 5
 495 -44 l 5
 463 -74 l 5
 463 -13 l 6
 463 -10 l 4
 463 -8 463 -8 463 -6 c 6
 463 60 l 5
473 -87 m 5
 505 -55 l 5
 578 -55 l 5
 608 -87 l 5
 544 -87 l 6
 543 -87 l 4
 541 -87 540 -87 538 -87 c 6
 473 -87 l 5
216 724 m 1
 216 659 l 2
 216 657 216 657 216 655 c 0
 216 653 l 2
 216 590 l 1
 185 620 l 1
 185 687 l 1
 185 693 l 1
 216 724 l 1
216 445 m 1
 185 477 l 1
 185 485 l 1
 185 551 l 1
 216 580 l 1
 216 517 l 2
 216 516 l 0
 216 514 216 514 216 512 c 2
 216 445 l 1
550 536 m 1
 550 787 l 1
 206 110 l 1
 206 -144 l 1
 550 536 l 1
EndSplineSet
EndChar

StartChar: threequarters
Encoding: 190 190 163
Width: 800
VWidth: 0
Flags: HW
HStem: 40 33<519 601> 434 33<194 269> 570 33<188 271> 706 33<194 201 202 267>
VStem: 276 33<477 551 620 687 687 693> 484 33<91 165> 605 33<-53 21 90 157 157 163>
LayerCount: 2
Back
Fore
SplineSet
636 194 m 5
 636 129 l 6
 636 127 636 126 636 124 c 4
 636 123 l 6
 636 60 l 5
 603 90 l 5
 603 157 l 5
 603 163 l 5
 636 194 l 5
484 60 m 5
 484 127 l 6
 484 129 484 129 484 131 c 4
 484 133 l 6
 484 194 l 5
 515 165 l 5
 515 99 l 5
 515 91 l 5
 484 60 l 5
508 48 m 5
 498 56 l 5
 519 72 l 5
 601 72 l 5
 622 56 l 5
 601 40 l 5
 519 40 l 5
 508 48 l 5
637 -85 m 5
 605 -53 l 5
 605 -45 l 5
 605 21 l 5
 637 50 l 5
 637 -13 l 6
 637 -15 637 -17 637 -19 c 6
 637 -85 l 5
307 724 m 1
 307 659 l 2
 307 657 307 657 307 655 c 0
 307 652 l 2
 307 590 l 1
 274 620 l 1
 274 687 l 1
 274 693 l 1
 307 724 l 1
163 737 m 1
 229 737 l 2
 231 737 232 737 234 737 c 0
 236 737 l 2
 298 737 l 1
 267 706 l 1
 202 706 l 1
 201 706 l 1
 194 706 l 1
 163 737 l 1
179 578 m 1
 169 586 l 1
 188 602 l 1
 271 602 l 1
 292 586 l 1
 271 570 l 1
 188 570 l 1
 179 578 l 1
308 445 m 1
 276 477 l 1
 276 485 l 1
 276 551 l 1
 308 580 l 1
 308 517 l 2
 308 516 l 0
 308 514 308 514 308 512 c 2
 308 445 l 1
164 434 m 1
 194 465 l 1
 269 465 l 1
 298 434 l 1
 236 434 l 2
 235 434 l 0
 233 434 232 434 230 434 c 2
 164 434 l 1
570 536 m 1
 570 787 l 1
 226 110 l 1
 226 -144 l 1
 570 536 l 1
EndSplineSet
EndChar

StartChar: cent
Encoding: 162 162 164
Width: 800
VWidth: 0
Flags: HW
HStem: -213 108<295 542> -169 21G<163 184> -169 21G<163 184> 695 108<293 317 319 540> 740 20G<160 183> 740 20G<160 183>
VStem: 163 108<-71 174 415 663> 331 108<-220 -213 -213 783 783 807>
LayerCount: 2
Back
Fore
SplineSet
438 910 m 1x03
 438 691 l 6
 438 685 438 682 438 676 c 0
 438 674 438 672 438 670 c 2
 438 -317 l 1
 331 -220 l 1
 331 783 l 1
 331 807 l 1
 438 910 l 1x03
160 313 m 1
 160 531 l 2
 160 537 160 542 160 548 c 0
 160 550 160 550 160 552 c 2
 160 760 l 1x0b
 267 663 l 1
 267 440 l 1
 267 415 l 1
 160 313 l 1
191 803 m 1x13
 410 803 l 6
 416 803 420 803 426 803 c 0
 428 803 428 803 430 803 c 2
 637 803 l 1
 540 695 l 1
 319 695 l 1
 317 695 l 1
 293 695 l 1
 191 803 l 1x13
163 278 m 1
 270 174 l 1
 270 150 l 1
 270 -71 l 1
 163 -169 l 1x43
 163 37 l 2
 163 39 163 41 163 43 c 0
 163 49 163 53 163 59 c 2
 163 278 l 1
192 -213 m 1x83
 295 -105 l 1
 542 -105 l 1
 640 -213 l 1
 433 -213 l 2
 431 -213 430 -213 428 -213 c 0
 422 -213 418 -213 412 -213 c 2
 192 -213 l 1x83
EndSplineSet
EndChar

StartChar: copyright
Encoding: 169 169 165
Width: 800
VWidth: 0
Flags: HW
HStem: -213 108<280 527> -169 21G<147 169 635 656> -169 21G<147 169 635 656> 92 43<363 462> 456 43<363 372 372 462> 695 108<279 303 303 524> 740 20G<144 166 633 653> 740 20G<144 166 633 653>
VStem: 147 108<-71 174 415 663> 309 43<149 247 343 442> 548 108<-66 180 410 633 633 657>
LayerCount: 2
Back
Fore
SplineSet
309 302 m 5x18e0
 309 390 l 6
 309 392 309 395 309 397 c 4
 309 398 309 397 309 398 c 6
 309 481 l 5
 352 442 l 5
 352 353 l 5
 352 343 l 5
 309 302 l 5x18e0
321 499 m 5
 409 499 l 6
 411 499 412 499 414 499 c 4
 415 499 415 499 416 499 c 6
 500 499 l 5
 462 456 l 5
 372 456 l 5
 363 456 l 5
 321 499 l 5
309 288 m 5
 352 247 l 5
 352 237 l 5
 352 149 l 5
 309 109 l 5
 309 192 l 6
 309 193 309 193 309 194 c 4
 309 196 309 199 309 201 c 6
 309 288 l 5
321 92 m 5
 363 136 l 5
 462 136 l 5
 501 92 l 5
 417 92 l 6
 416 92 416 92 415 92 c 4
 413 92 411 92 409 92 c 6
 321 92 l 5
653 760 m 1x1ae0
 653 541 l 2
 653 535 653 532 653 526 c 0
 653 524 653 522 653 520 c 2
 653 313 l 1
 545 410 l 1
 545 633 l 1
 545 657 l 1
 653 760 l 1x1ae0
144 313 m 1
 144 531 l 2
 144 537 144 542 144 548 c 0
 144 550 144 550 144 552 c 2
 144 760 l 1
 252 663 l 1
 252 440 l 1
 252 415 l 1
 144 313 l 1
176 803 m 1x1ce0
 394 803 l 2
 400 803 404 803 410 803 c 0
 412 803 413 803 415 803 c 2
 623 803 l 1
 524 695 l 1
 303 695 l 1
 279 695 l 1
 176 803 l 1x1ce0
656 -169 m 1x58e0
 548 -66 l 1
 548 -42 l 1
 548 180 l 1
 656 278 l 1
 656 70 l 2
 656 68 656 67 656 65 c 0
 656 59 656 55 656 49 c 2
 656 -169 l 1x58e0
147 278 m 1
 255 174 l 1
 255 150 l 1
 255 -71 l 1
 147 -169 l 1
 147 37 l 2
 147 39 147 41 147 43 c 0
 147 49 147 53 147 59 c 2
 147 278 l 1
177 -213 m 1x98e0
 280 -105 l 1
 527 -105 l 1
 624 -213 l 1
 416 -213 l 2
 414 -213 415 -213 413 -213 c 0
 407 -213 401 -213 395 -213 c 2
 177 -213 l 1x98e0
EndSplineSet
EndChar

StartChar: registered
Encoding: 174 174 166
Width: 800
VWidth: 0
Flags: HW
HStem: -213 108<280 527> -169 21G<147 169 635 656> -169 21G<147 169 635 656> 266 43<344 453> 448 43<351 362 362 449> 695 108<279 303 303 524> 740 20G<144 166 633 653> 740 20G<144 166 633 653>
VStem: 147 108<-71 174 415 663> 298 43<141 240 337 435> 458 43<335 423 423 434> 548 108<-66 180 410 633 633 657>
LayerCount: 2
Back
Fore
SplineSet
431 240 m 5
 492 176 l 5
 487 117 l 5
 430 178 l 6
 429 179 l 4
 428 180 425 184 424 185 c 6
 364 248 l 5
 364 248 l 1029x18f0
364 248 m 5
 424 248 l 5
 431 240 l 5
 492 176 l 5
 487 117 l 5
 430 178 l 6
 429 179 l 4
 428 180 425 184 424 185 c 6
 364 248 l 5
480 188 m 1029
341 230 m 5
 341 141 l 5
 298 102 l 5
 298 186 l 6
 298 187 298 186 298 187 c 4
 298 189 298 191 298 193 c 6
 298 281 l 5
 298 281 l 1029
501 474 m 5
 501 387 l 6
 501 385 501 382 501 380 c 4
 501 379 501 379 501 378 c 6
 501 295 l 5
 458 335 l 5
 458 423 l 5
 458 434 l 5
 501 474 l 5
298 295 m 5
 298 383 l 6
 298 385 298 386 298 388 c 4
 298 389 298 390 298 391 c 6
 298 474 l 5
 340 435 l 5
 340 347 l 5
 340 337 l 5
 298 295 l 5
310 491 m 5
 397 491 l 6
 399 491 401 491 403 491 c 4
 404 491 405 491 406 491 c 6
 488 491 l 5
 449 448 l 5
 362 448 l 5
 351 448 l 5
 310 491 l 5
330 278 m 5
 316 288 l 5
 344 310 l 5
 453 310 l 5
 483 288 l 5
 453 266 l 5
 344 266 l 5
 330 278 l 5
298 281 m 5
 341 240 l 5
 341 230 l 5
 341 141 l 5
 298 102 l 5
 298 186 l 6
 298 187 298 186 298 187 c 4
 298 189 298 191 298 193 c 6
 298 281 l 5
653 760 m 1x1af0
 653 541 l 2
 653 535 653 532 653 526 c 0
 653 524 653 522 653 520 c 2
 653 313 l 1
 545 410 l 1
 545 633 l 1
 545 657 l 1
 653 760 l 1x1af0
144 313 m 1
 144 531 l 2
 144 537 144 542 144 548 c 0
 144 550 144 550 144 552 c 2
 144 760 l 1
 252 663 l 1
 252 440 l 1
 252 415 l 1
 144 313 l 1
176 803 m 1x1cf0
 394 803 l 2
 400 803 404 803 410 803 c 0
 412 803 413 803 415 803 c 2
 623 803 l 1
 524 695 l 1
 303 695 l 1
 279 695 l 1
 176 803 l 1x1cf0
656 -169 m 1x58f0
 548 -66 l 1
 548 -42 l 1
 548 180 l 1
 656 278 l 1
 656 70 l 2
 656 68 656 67 656 65 c 0
 656 59 656 55 656 49 c 2
 656 -169 l 1x58f0
147 278 m 1
 255 174 l 1
 255 150 l 1
 255 -71 l 1
 147 -169 l 1
 147 37 l 2
 147 39 147 41 147 43 c 0
 147 49 147 53 147 59 c 2
 147 278 l 1
177 -213 m 1x98f0
 280 -105 l 1
 527 -105 l 1
 624 -213 l 1
 416 -213 l 2
 414 -213 415 -213 413 -213 c 0
 407 -213 401 -213 395 -213 c 2
 177 -213 l 1x98f0
EndSplineSet
EndChar

StartChar: plusminus
Encoding: 177 177 167
Width: 800
VWidth: 0
Flags: HW
HStem: -48 108<263 537> 242 108<263 537>
VStem: 347 108<160 434>
LayerCount: 2
Back
Fore
SplineSet
228 -20 m 5
 193 7 l 5
 263 60 l 5
 537 60 l 5
 607 7 l 5
 537 -48 l 5
 263 -48 l 5
 228 -20 l 5
373 467 m 1
 400 503 l 1
 453 434 l 1
 453 160 l 1
 400 90 l 1
 347 160 l 1
 347 434 l 1
 373 467 l 1
228 270 m 1
 193 297 l 1
 263 350 l 1
 537 350 l 1
 607 297 l 1
 537 242 l 1
 263 242 l 1
 228 270 l 1
EndSplineSet
EndChar

StartChar: logicalnot
Encoding: 172 172 168
Width: 800
VWidth: 0
Flags: HW
HStem: 242 108<130 584>
VStem: 633 108<140 193>
LayerCount: 2
Back
Fore
SplineSet
713 105 m 1
 687 70 l 1
 633 140 l 1
 633 193 l 1
 687 263 l 1
 740 193 l 1
 740 140 l 1
 713 105 l 1
94 270 m 5
 60 297 l 5
 130 350 l 5
 584 350 l 5
 653 297 l 5
 584 242 l 5
 130 242 l 5
 94 270 l 5
EndSplineSet
EndChar

StartChar: degree
Encoding: 176 176 169
Width: 800
VWidth: 0
Flags: HW
HStem: 777 127<337 463>
VStem: 337 127<777 905>
LayerCount: 2
Back
Fore
SplineSet
337 905 m 5
 463 905 l 5
 463 777 l 5
 337 777 l 5
 337 905 l 5
EndSplineSet
EndChar

StartChar: ordmasculine
Encoding: 186 186 170
Width: 800
VWidth: 0
Flags: HW
HStem: 737 47<337 463> 847 127<337 463>
VStem: 337 127<737 785 847 974>
LayerCount: 2
Back
Fore
SplineSet
337 785 m 5
 463 785 l 5
 463 737 l 5
 337 737 l 5
 337 785 l 5
337 974 m 1
 463 974 l 1
 463 847 l 1
 337 847 l 1
 337 974 l 1
EndSplineSet
EndChar

StartChar: macron
Encoding: 175 175 171
Width: 800
VWidth: 0
Flags: HW
HStem: 737 47<337 463>
VStem: 337 127<737 785>
LayerCount: 2
Back
Fore
SplineSet
337 785 m 5
 463 785 l 5
 463 737 l 5
 337 737 l 5
 337 785 l 5
EndSplineSet
EndChar

StartChar: Thorn
Encoding: 222 222 172
Width: 800
VWidth: 0
Flags: HW
HStem: -169 21G<87 109> -169 21G<87 109> 98 108<340 587> 552 108<322 595> 740 20G<85 107> 740 20G<85 107>
VStem: 87 108<-71 174 415 663> 608 108<243 490>
LayerCount: 2
Back
Fore
SplineSet
287 580 m 5x33
 252 607 l 5
 322 660 l 5
 595 660 l 5
 665 607 l 5
 595 552 l 5
 322 552 l 5
 287 580 l 5x33
715 141 m 5
 608 243 l 5
 608 267 l 5
 608 490 l 5
 715 587 l 5
 715 380 l 6
 715 378 715 378 715 376 c 4
 715 370 715 365 715 359 c 6
 715 141 l 5
237 98 m 5
 340 206 l 5
 587 206 l 5
 685 98 l 5
 477 98 l 6
 475 98 474 98 472 98 c 4
 466 98 462 98 456 98 c 6
 237 98 l 5
85 313 m 1
 85 531 l 2
 85 537 85 542 85 548 c 0
 85 550 85 550 85 552 c 2
 85 760 l 1x3b
 192 663 l 1
 192 440 l 1
 192 415 l 1
 85 313 l 1
87 278 m 1
 194 174 l 1
 194 150 l 1
 194 -71 l 1
 87 -169 l 1xb3
 87 37 l 2
 87 39 87 41 87 43 c 0
 87 49 87 53 87 59 c 2
 87 278 l 1
EndSplineSet
EndChar

StartChar: thorn
Encoding: 254 254 173
Width: 800
VWidth: 0
Flags: HW
HStem: -169 21G<87 109> -169 21G<87 109> 37 108<340 587> 492 108<322 595> 740 20G<85 107> 740 20G<85 107>
VStem: 87 108<-71 174 415 663> 608 108<184 430>
LayerCount: 2
Back
Fore
SplineSet
287 520 m 5x33
 252 547 l 5
 322 600 l 5
 595 600 l 5
 665 547 l 5
 595 492 l 5
 322 492 l 5
 287 520 l 5x33
715 81 m 5
 608 184 l 5
 608 208 l 5
 608 430 l 5
 715 528 l 5
 715 320 l 6
 715 318 715 317 715 315 c 4
 715 309 715 305 715 299 c 6
 715 81 l 5
237 37 m 5
 340 145 l 5
 587 145 l 5
 685 37 l 5
 477 37 l 6
 475 37 474 37 472 37 c 4
 466 37 462 37 456 37 c 6
 237 37 l 5
85 313 m 1
 85 531 l 2
 85 537 85 542 85 548 c 0
 85 550 85 550 85 552 c 2
 85 760 l 1x3b
 192 663 l 1
 192 440 l 1
 192 415 l 1
 85 313 l 1
87 278 m 1
 194 174 l 1
 194 150 l 1
 194 -71 l 1
 87 -169 l 1xb3
 87 37 l 2
 87 39 87 41 87 43 c 0
 87 49 87 53 87 59 c 2
 87 278 l 1
EndSplineSet
EndChar

StartChar: ordfeminine
Encoding: 170 170 174
Width: 800
VWidth: 0
Flags: HW
HStem: 657 47<337 463> 813 21<371 426> 902 21<374 379 379 423>
VStem: 348 21<749 799 847 895> 428 21<750 800 845 890 890 894>
LayerCount: 2
Back
Fore
SplineSet
449 915 m 5
 449 872 l 6
 449 871 449 870 449 869 c 4
 449 867 l 6
 449 826 l 5
 428 845 l 5
 428 890 l 5
 428 894 l 5
 449 915 l 5
348 826 m 5
 348 870 l 6
 348 871 348 872 348 873 c 4
 348 874 l 6
 348 915 l 5
 369 895 l 5
 369 851 l 5
 369 847 l 5
 348 826 l 5
353 924 m 5
 398 924 l 6
 399 924 400 924 401 924 c 4
 443 924 l 5
 423 902 l 5
 379 902 l 5
 374 902 l 5
 353 924 l 5
364 817 m 5
 357 822 l 5
 371 834 l 5
 426 834 l 5
 440 822 l 5
 426 813 l 5
 371 813 l 5
 364 817 l 5
450 730 m 5
 428 750 l 5
 428 756 l 5
 428 800 l 5
 450 819 l 5
 450 778 l 6
 450 777 l 4
 450 776 450 774 450 773 c 6
 450 730 l 5
348 819 m 5
 369 799 l 5
 369 793 l 5
 369 749 l 5
 348 730 l 5
 348 771 l 6
 348 772 l 4
 348 773 348 775 348 776 c 6
 348 819 l 5
337 705 m 5
 463 705 l 5
 463 657 l 5
 337 657 l 5
 337 705 l 5
EndSplineSet
EndChar

StartChar: ampersand
Encoding: 38 38 175
Width: 800
VWidth: 0
Flags: HW
HStem: -169 21G<87 110> -169 21G<87 110> 695 108<220 244 244 307> 760 0G<86 108 435 456> 760 0G<86 108 435 456>
VStem: 87 108<-71 174 415 663>
LayerCount: 2
Back
Fore
SplineSet
456 780 m 1x04
 456 631 l 6
 456 625 456 620 456 614 c 4
 456 612 456 612 456 610 c 6
 456 563 l 5
 348 660 l 5
 348 652 l 1
 348 677 l 1
 456 780 l 1x04
86 313 m 1
 86 531 l 2
 86 537 86 542 86 548 c 0
 86 550 86 550 86 552 c 2
 86 760 l 1x14
 193 663 l 1
 193 440 l 1
 193 415 l 1
 86 313 l 1
116 803 m 1x24
 336 803 l 2
 342 803 345 803 351 803 c 0
 353 803 355 803 357 803 c 2
 405 803 l 1
 307 695 l 1
 244 695 l 1
 220 695 l 1
 116 803 l 1x24
695 -17 m 1
 714 -57 l 1
 628 -74 l 1
 213 237 l 1
 174 317 l 1
 262 335 l 1
 676 22 l 1
 695 -17 l 1
87 278 m 1
 195 174 l 1
 195 150 l 1
 195 -71 l 1
 87 -169 l 1x84
 87 37 l 2
 87 39 87 41 87 43 c 0
 87 49 87 53 87 59 c 2
 87 278 l 1
678 240 m 1
 663 92 l 1
 307 -208 l 1
 163 -183 l 1
 328 -56 l 2
 329 -55 332 -54 333 -53 c 0
 338 -50 339 -46 344 -43 c 2
 678 240 l 1
EndSplineSet
EndChar

StartChar: ae
Encoding: 230 230 176
Width: 800
VWidth: 0
Flags: HW
HStem: -213 108<495 742> -169 21G<-37 -16 363 384 450 471> -169 21G<-37 -16 363 384 450 471> 242 108<78 351 478 751> 695 108<93 117 119 340 493 517 519 740> 740 20G<-40 -17 360 383 448 469> 740 20G<-40 -17 360 383 448 469>
VStem: -37 108<-71 174 415 663> 363 109<-71 270 410 663>
LayerCount: 2
Back
Fore
SplineSet
360 313 m 5x1580
 360 531 l 6
 360 537 360 542 360 548 c 4
 360 550 360 550 360 552 c 6
 360 760 l 5
 467 663 l 5
 467 440 l 5
 467 415 l 5
 360 313 l 5x1580
391 803 m 5x1980
 610 803 l 6
 616 803 620 803 626 803 c 4
 628 803 628 803 630 803 c 6
 837 803 l 5
 740 695 l 5
 519 695 l 5
 517 695 l 5
 493 695 l 5
 391 803 l 5x1980
442 270 m 5
 408 297 l 5
 478 350 l 5
 751 350 l 5
 821 297 l 5
 751 242 l 5
 478 242 l 5
 442 270 l 5
363 278 m 5
 470 174 l 5
 470 150 l 5
 470 -71 l 5
 363 -169 l 5x5180
 363 37 l 6
 363 39 363 41 363 43 c 4
 363 49 363 53 363 59 c 6
 363 278 l 5
392 -213 m 5x9180
 495 -105 l 5
 742 -105 l 5
 840 -213 l 5
 633 -213 l 6
 631 -213 630 -213 628 -213 c 4
 622 -213 618 -213 612 -213 c 6
 392 -213 l 5x9180
469 760 m 1x1580
 469 541 l 2
 469 535 469 532 469 526 c 0
 469 524 469 522 469 520 c 2
 469 313 l 1
 362 410 l 1
 362 633 l 1
 362 657 l 1
 469 760 l 1x1580
-40 313 m 1
 -40 531 l 2
 -40 537 -40 542 -40 548 c 0
 -40 550 -40 550 -40 552 c 2
 -40 760 l 1
 67 663 l 1
 67 440 l 1
 67 415 l 1
 -40 313 l 1
-9 803 m 1x1980
 210 803 l 2
 216 803 220 803 226 803 c 0
 228 803 228 803 230 803 c 2
 437 803 l 1
 340 695 l 1
 119 695 l 1
 117 695 l 1
 93 695 l 1
 -9 803 l 1x1980
42 270 m 1
 8 297 l 1
 78 350 l 1
 351 350 l 1
 421 297 l 1
 351 242 l 1
 78 242 l 1
 42 270 l 1
471 -169 m 1x5180
 363 -66 l 1
 363 -42 l 1
 363 180 l 1
 471 278 l 1
 471 70 l 2
 471 68 471 67 471 65 c 0
 471 59 471 55 471 49 c 2
 471 -169 l 1x5180
-37 278 m 1
 70 174 l 1
 70 150 l 1
 70 -71 l 1
 -37 -169 l 1
 -37 37 l 2
 -37 39 -37 41 -37 43 c 0
 -37 49 -37 53 -37 59 c 2
 -37 278 l 1
EndSplineSet
EndChar

StartChar: dieresis
Encoding: 168 168 177
Width: 800
VWidth: 0
Flags: HW
HStem: 827 77<301 379 421 499>
VStem: 301 77<827 905> 421 77<827 905>
LayerCount: 2
Back
Fore
SplineSet
421 905 m 5
 499 905 l 5
 499 827 l 5
 421 827 l 5
 421 905 l 5
301 905 m 1
 379 905 l 1
 379 827 l 1
 301 827 l 1
 301 905 l 1
EndSplineSet
EndChar

StartChar: mu
Encoding: 181 181 178
Width: 800
VWidth: 0
Flags: HW
HStem: -72 108<212 457> 740 20G<74 97 563 584> 740 20G<74 97 563 584>
VStem: 77 108<-131 -72 -72 255 486 663> 476 108<73 260 480 633 633 657>
LayerCount: 2
Back
Fore
SplineSet
726 74 m 1x98
 617 178 l 1
 617 -41 l 2
 617 -47 617 -51 617 -57 c 0
 617 -59 617 -61 617 -63 c 2
 617 -70 l 1
 726 28 l 1
 726 74 l 1x98
584 760 m 1xd8
 584 541 l 2
 584 535 584 532 584 526 c 0
 584 524 584 522 584 520 c 2
 584 383 l 1
 476 480 l 1
 476 633 l 1
 477 633 l 1
 477 657 l 1
 584 760 l 1xd8
74 383 m 1
 74 531 l 2
 74 537 74 542 74 548 c 0
 74 550 74 550 74 552 c 2
 74 760 l 1
 183 663 l 1
 183 510 l 1
 183 486 l 1
 74 383 l 1
586 -29 m 1
 478 73 l 1
 478 98 l 1
 478 260 l 1
 586 358 l 1
 586 210 l 2
 586 208 586 208 586 206 c 0
 586 200 586 194 586 188 c 2
 586 -29 l 1
77 358 m 1
 185 255 l 1
 185 230 l 1
 185 -131 l 5
 77 -229 l 5
 77 178 l 2
 77 180 77 182 77 184 c 0
 77 190 77 193 77 199 c 2
 77 358 l 1
108 -72 m 1
 212 36 l 1
 457 36 l 1
 556 -72 l 1
 347 -72 l 2
 345 -72 344 -72 342 -72 c 0
 336 -72 333 -72 327 -72 c 2
 108 -72 l 1
EndSplineSet
EndChar

StartChar: paragraph
Encoding: 182 182 179
Width: 800
VWidth: 0
Flags: HW
HStem: 740 20G<433 453 583 603> 740 20G<433 453 583 603>
VStem: 345 108<-60 633 633 657> 495 108<-60 633 633 657>
LayerCount: 2
Back
Fore
SplineSet
197 478 m 5x30
 305 374 l 5
 305 593 l 6
 305 599 305 603 305 609 c 4
 305 611 305 612 305 614 c 6
 305 622 l 5
 197 524 l 5
 197 478 l 5x30
603 760 m 1xb0
 603 541 l 2
 603 535 603 532 603 526 c 0
 603 524 603 522 603 520 c 2
 603 -158 l 1
 495 -60 l 1
 495 633 l 1
 495 657 l 1
 603 760 l 1xb0
453 760 m 1
 453 541 l 2
 453 535 453 532 453 526 c 0
 453 524 453 522 453 520 c 2
 453 -158 l 1
 345 -60 l 1
 345 633 l 1
 345 657 l 1
 453 760 l 1
EndSplineSet
EndChar

StartChar: section
Encoding: 167 167 180
Width: 800
VWidth: 0
Flags: HW
LayerCount: 2
Back
Fore
SplineSet
572 550 m 5
 607 577 l 5
 537 630 l 5
 263 630 l 5
 193 577 l 5
 263 522 l 5
 537 522 l 5
 572 550 l 5
157 603 m 5
 264 707 l 5
 264 731 l 5
 264 713 l 5
 157 812 l 5
 157 603 l 6
 157 601 157 601 157 599 c 4
 157 593 157 589 157 583 c 6
 157 603 l 5
187 855 m 5
 291 747 l 5
 537 747 l 5
 636 855 l 5
 428 855 l 6
 426 855 424 855 422 855 c 4
 416 855 413 855 407 855 c 6
 187 855 l 5
145 560 m 5
 145 341 l 6
 145 335 145 332 145 326 c 4
 145 324 145 322 145 320 c 6
 145 113 l 5
 253 210 l 5
 253 433 l 5
 253 457 l 5
 145 560 l 5
655 113 m 5
 655 331 l 6
 655 337 655 342 655 348 c 4
 655 350 655 350 655 352 c 6
 655 560 l 5
 547 463 l 5
 547 240 l 5
 547 215 l 5
 655 113 l 5
572 70 m 5
 607 97 l 5
 537 150 l 5
 263 150 l 5
 193 97 l 5
 263 42 l 5
 537 42 l 5
 572 70 l 5
652 78 m 5
 544 -26 l 5
 544 -50 l 5
 544 -31 l 5
 652 -129 l 5
 652 78 l 6
 652 80 652 82 652 84 c 4
 652 90 652 93 652 99 c 6
 652 78 l 5
622 -172 m 5
 519 -64 l 5
 272 -64 l 5
 174 -172 l 5
 383 -172 l 6
 385 -172 385 -172 387 -172 c 4
 393 -172 397 -172 403 -172 c 6
 622 -172 l 5
EndSplineSet
EndChar

StartChar: yen
Encoding: 165 165 181
Width: 800
VWidth: 0
Flags: HW
HStem: 142 108<173 627> 333 108<173 627> 758 20G<187 206> 758 20G<187 206>
LayerCount: 2
Back
Fore
SplineSet
137 170 m 5xc0
 103 197 l 5
 173 250 l 5
 627 250 l 5
 697 197 l 5
 627 142 l 5
 173 142 l 5
 137 170 l 5xc0
137 360 m 1
 103 387 l 1
 173 440 l 1
 627 440 l 1
 697 387 l 1
 627 333 l 1
 173 333 l 1
 137 360 l 1
631 595 m 1
 631 778 l 1xd0
 187 50 l 1
 187 -135 l 1
 631 595 l 1
187 586 m 1
 187 778 l 1
 431 510 l 1
 431 326 l 1
 187 586 l 1
EndSplineSet
EndChar

StartChar: sterling
Encoding: 163 163 182
Width: 800
VWidth: 0
Flags: HW
HStem: -213 108<194 230 262 612> -169 21G<230 252> -169 21G<230 252> 242 108<216 229 230 520> 695 108<363 387 387 509> 740 20G<229 251> 740 20G<229 251>
VStem: 230 108<-71 174 415 663>
LayerCount: 2
Back
Fore
SplineSet
463 948 m 1x11
 359 840 l 1
 578 840 l 2
 584 840 588 840 594 840 c 0
 596 840 597 840 599 840 c 2
 607 840 l 1
 509 948 l 1
 463 948 l 1x11
229 313 m 1
 229 531 l 2
 229 537 229 542 229 548 c 0
 229 550 229 550 229 552 c 2
 229 760 l 1x15
 337 663 l 1
 337 440 l 1
 337 415 l 1
 229 313 l 1
259 803 m 1x19
 478 803 l 2
 484 803 488 803 494 803 c 0
 496 803 497 803 499 803 c 2
 607 803 l 5
 509 695 l 5
 387 695 l 1
 363 695 l 1
 259 803 l 1x19
181 270 m 1
 147 297 l 1
 216 350 l 1
 520 350 l 1
 590 297 l 1
 520 242 l 1
 216 242 l 1
 181 270 l 1
230 278 m 1
 337 174 l 1
 337 150 l 1
 337 -71 l 1
 230 -169 l 1x51
 230 37 l 2
 230 39 230 41 230 43 c 0
 230 49 230 53 230 59 c 2
 230 278 l 1
91 -213 m 1
 194 -105 l 1
 612 -105 l 1
 709 -213 l 1
 501 -213 l 2
 499 -213 497 -213 495 -213 c 0
 489 -213 486 -213 480 -213 c 2
 262 -213 l 1x91
 91 -213 l 1
EndSplineSet
EndChar

StartChar: currency
Encoding: 164 164 183
Width: 800
VWidth: 0
Flags: HW
HStem: 298 180
VStem: 316 167
LayerCount: 2
Back
Fore
SplineSet
327 478 m 5
 387 477 l 5
 324 414 l 6
 323 413 321 411 320 410 c 4
 319 409 l 6
 316 407 l 5
 313 464 l 5
 327 478 l 5
327 297 m 1
 387 298 l 1
 324 360 l 2
 323 361 321 363 320 364 c 0
 319 365 l 2
 316 367 l 1
 313 310 l 1
 327 297 l 1
473 297 m 1
 413 298 l 1
 476 360 l 2
 477 361 479 363 480 364 c 0
 481 365 l 2
 484 367 l 1
 487 310 l 1
 473 297 l 1
473 478 m 1
 413 477 l 1
 476 414 l 2
 477 413 479 411 480 410 c 0
 481 409 l 2
 484 407 l 1
 487 464 l 1
 473 478 l 1
340 455 m 1
 466 455 l 1
 466 327 l 1
 340 327 l 1
 340 455 l 1
EndSplineSet
EndChar

StartChar: percent
Encoding: 37 37 184
Width: 800
VWidth: 0
Flags: HW
HStem: 116 127<491 619> 407 127<181 309>
VStem: 181 127<407 535> 491 127<116 244>
LayerCount: 2
Back
Fore
SplineSet
181 535 m 5
 309 535 l 5
 309 407 l 5
 181 407 l 5
 181 535 l 5
491 244 m 1
 619 244 l 1
 619 116 l 1
 491 116 l 1
 491 244 l 1
573 536 m 1
 573 787 l 1
 230 110 l 1
 230 -144 l 1
 573 536 l 1
EndSplineSet
EndChar

StartChar: exclam
Encoding: 33 33 185
Width: 800
VWidth: 0
Flags: HW
HStem: -193 127<348 455> 740 20G<433 453> 740 20G<433 453>
VStem: 345 108<-193 -65 110 633 633 657>
LayerCount: 2
Back
Fore
SplineSet
348 -65 m 5x90
 455 -65 l 5
 455 -193 l 5
 348 -193 l 5
 348 -65 l 5x90
453 760 m 1xd0
 453 541 l 2
 453 535 453 532 453 526 c 0
 453 524 453 522 453 520 c 2
 453 13 l 1
 345 110 l 1
 345 633 l 1
 345 657 l 1
 453 760 l 1xd0
EndSplineSet
EndChar

StartChar: quotedbl
Encoding: 34 34 186
Width: 800
VWidth: 0
Flags: HW
HStem: 647 127<331 379 421 469>
VStem: 331 47<647 774> 421 47<647 774>
LayerCount: 2
Back
Fore
SplineSet
421 774 m 5
 469 774 l 5
 469 647 l 5
 421 647 l 5
 421 774 l 5
331 774 m 5
 379 774 l 5
 379 647 l 5
 331 647 l 5
 331 774 l 5
EndSplineSet
EndChar

StartChar: numbersign
Encoding: 35 35 187
Width: 800
VWidth: 0
Flags: HW
LayerCount: 2
Back
Fore
SplineSet
649 138 m 5
 873 253 l 5
 113 251 l 5
 -113 136 l 5
 649 138 l 5
688 379 m 1
 913 493 l 1
 153 491 l 1
 -73 376 l 1
 688 379 l 1
642 579 m 1
 560 816 l 1
 459 63 l 1
 542 -177 l 1
 642 579 l 1
322 579 m 1
 240 816 l 1
 138 63 l 1
 222 -177 l 1
 322 579 l 1
EndSplineSet
EndChar

StartChar: dollar
Encoding: 36 36 188
Width: 800
VWidth: 0
Flags: HW
HStem: -163 108<280 527> 292 108<263 536> 745 108<279 303 303 524>
VStem: 144 108<465 713> 305 56<-208 933> 435 56<-208 933> 548 108<-16 230>
LayerCount: 2
Back
Fore
SplineSet
435 933 m 5
 491 933 l 5
 491 -208 l 1
 435 -208 l 1
 435 933 l 5
305 933 m 5
 362 933 l 5
 362 -208 l 1
 305 -208 l 1
 305 933 l 5
144 363 m 1
 144 581 l 2
 144 587 144 592 144 598 c 0
 144 600 144 600 144 602 c 2
 144 810 l 1
 252 713 l 1
 252 490 l 1
 252 465 l 1
 144 363 l 1
176 853 m 1
 394 853 l 2
 400 853 404 853 410 853 c 0
 412 853 413 853 415 853 c 2
 623 853 l 1
 524 745 l 1
 303 745 l 1
 279 745 l 1
 176 853 l 1
228 320 m 1
 192 347 l 1
 263 400 l 1
 536 400 l 1
 606 347 l 1
 536 292 l 1
 263 292 l 1
 228 320 l 1
656 -119 m 1
 548 -16 l 1
 548 8 l 1
 548 230 l 1
 656 328 l 1
 656 120 l 2
 656 118 656 117 656 115 c 0
 656 109 656 105 656 99 c 2
 656 -119 l 1
177 -163 m 1
 280 -55 l 1
 527 -55 l 1
 624 -163 l 1
 416 -163 l 2
 414 -163 415 -163 413 -163 c 0
 407 -163 401 -163 395 -163 c 2
 177 -163 l 1
EndSplineSet
EndChar

